<svg xmlns="http://www.w3.org/2000/svg" xmlns:xlink="http://www.w3.org/1999/xlink" width="52" height="52" viewBox="0 0 52 52">
    <defs>
        <rect id="a" width="51.019" height="51.019" x=".146" y=".057" rx="2"/>
    </defs>
    <g fill="none" fill-rule="evenodd">
        <use fill="#FFF" xlink:href="#a"/>
        <rect width="50.019" height="50.019" x=".646" y=".557" stroke="#BFDBFF" rx="2"/>
        <g stroke="#448EED" stroke-linecap="square">
            <path d="M5.975 6.251l1.64 1.458M5.975 6.251L4.335 7.71"/>
        </g>
        <g stroke="#448EED" stroke-linecap="square">
            <path d="M47.69 43.393l-1.457 1.64M47.69 43.393l-1.457-1.64"/>
        </g>
        <path fill="#7AB5FB" d="M5.975 12.81s1.933-.164 3.546 2.33c.982 1.518.542 8.308 1.122 12.447.332 2.369.4 8.864 2.02 12.045 1.62 3.185 4.793 3.055 4.793 3.055H5.975V12.81z"/>
        <path stroke="#448EED" stroke-linecap="square" d="M5.975 12.81s1.933-.164 3.546 2.33c.982 1.518.542 8.308 1.122 12.447.332 2.369.4 8.864 2.02 12.045 1.62 3.185 4.793 3.055 4.793 3.055M5.975 43.415H46.98M5.975 43.415V6.98"/>
        <path fill="#BFDBFF" fill-opacity=".8" d="M6.795 26.655s.094-5.063 3.23-5.063c.904 0 3.344 6.9 4.47 13.396.366 2.11 1.82-4.512 8.414-2.849 2.115.534 3.754 4.024 6.694 8.274 2.94 4.25 14.917 2.274 14.917 2.274H6.795V26.655z"/>
        <path stroke="#448EED" stroke-linecap="square" d="M6.795 26.655s.094-5.063 3.23-5.063c.904 0 3.344 6.9 4.47 13.396.366 2.11 1.82-4.512 8.414-2.849 2.115.534 3.754 4.024 6.694 8.274 2.94 4.25 14.917 2.274 14.917 2.274M19.872 10.176v32.063"/>
        <circle cx="20.113" cy="8.34" r="2.453" fill="#448EED" stroke="#448EED"/>
    </g>
</svg>
