<?xml version="1.0" encoding="UTF-8"?>
<svg width="48px" height="48px" viewBox="0 0 48 48" version="1.1" xmlns="http://www.w3.org/2000/svg" xmlns:xlink="http://www.w3.org/1999/xlink">
    <!-- Generator: Sketch 54 (76480) - https://sketchapp.com -->
    <title>Page 1</title>
    <desc>Created with Sketch.</desc>
    <defs>
        <polygon id="path-1" points="0.0002 0.724 47.276 0.724 47.276 47.9997 0.0002 47.9997"></polygon>
    </defs>
    <g id="Page-1" stroke="none" stroke-width="1" fill="none" fill-rule="evenodd">
        <g id="5-4-2-Model-Selection_Advanced-View_Model-Expand_ROC-Cure-Copy-2" transform="translate(-467.000000, -530.000000)">
            <g id="Page-1" transform="translate(467.000000, 529.000000)">
                <g id="Group-3" transform="translate(0.000000, 0.276500)">
                    <mask id="mask-2" fill="white">
                        <use xlink:href="#path-1"></use>
                    </mask>
                    <g id="Clip-2"></g>
                    <path d="M37.3452,38.7397 L10.1622,38.7397 C9.6102,38.7397 9.1622,38.2917 9.1622,37.7397 L9.1622,10.8027 C9.1622,10.2497 9.6102,9.8027 10.1622,9.8027 C10.7152,9.8027 11.1622,10.2497 11.1622,10.8027 L11.1622,17.6057 C11.5432,18.6667 12.2092,19.7057 13.3792,19.8957 C13.5412,19.9227 13.6742,19.9677 13.8232,20.0027 C14.1992,19.4087 14.8592,19.0127 15.6142,19.0127 C16.7882,19.0127 17.7412,19.9657 17.7412,21.1397 C17.7412,21.8847 17.3562,22.5377 16.7762,22.9177 C16.7762,22.9247 16.7792,22.9347 16.7792,22.9417 C16.9692,23.9907 17.5432,25.6797 18.2022,25.9017 C18.4072,25.9717 18.6652,25.8637 18.9652,25.5837 C19.4932,25.0327 20.8622,23.7437 21.7712,24.1067 C22.0572,24.2217 22.3982,24.5267 22.3982,25.3247 C22.3982,25.8497 22.5302,26.2177 22.7992,26.4487 C23.1832,26.7757 23.9102,26.8667 24.9052,26.7107 C25.2512,26.6567 25.5762,26.7487 25.8402,26.9817 C26.6012,27.6507 26.6512,29.4007 26.6452,29.9947 C26.8702,30.2547 28.4142,31.5577 37.4122,32.7897 C37.6872,32.8277 37.8782,33.0797 37.8402,33.3537 C37.8062,33.6037 37.5922,33.7857 37.3462,33.7857 C37.3232,33.7857 37.3002,33.7837 37.2782,33.7817 C26.9542,32.3667 25.7032,30.7777 25.6452,30.1597 C25.6642,29.3277 25.5322,28.0427 25.1792,27.7327 C25.1402,27.6977 25.1122,27.6917 25.0612,27.6977 C23.7362,27.9097 22.7822,27.7477 22.1502,27.2087 C21.6512,26.7827 21.3982,26.1487 21.3982,25.3247 C21.3982,25.0747 21.3512,25.0007 21.3512,25.0007 C21.1632,25.0107 20.3142,25.6207 19.6672,26.2957 C18.9102,26.9997 18.2832,26.9827 17.8832,26.8487 C16.5612,26.4037 15.9912,24.0707 15.8262,23.2447 C15.7562,23.2517 15.6872,23.2657 15.6142,23.2657 C14.4402,23.2657 13.4882,22.3137 13.4882,21.1397 C13.4882,21.0757 13.5002,21.0157 13.5062,20.9537 C13.4072,20.9317 13.3272,20.9007 13.2192,20.8837 C12.3262,20.7387 11.6642,20.2677 11.1622,19.6607 L11.1622,36.7397 L37.3452,36.7397 C37.8982,36.7397 38.3452,37.1877 38.3452,37.7397 C38.3452,38.2917 37.8982,38.7397 37.3452,38.7397 M43.2762,0.7237 L4.0002,0.7237 C1.7902,0.7237 0.0002,2.5137 0.0002,4.7237 L0.0002,43.9997 C0.0002,46.2087 1.7902,47.9997 4.0002,47.9997 L43.2762,47.9997 C45.4862,47.9997 47.2762,46.2087 47.2762,43.9997 L47.2762,4.7237 C47.2762,2.5137 45.4862,0.7237 43.2762,0.7237" id="Fill-1" fill="#1D2B3C" mask="url(#mask-2)"></path>
                </g>
                <path d="M37.3452,37.0162 L11.1622,37.0162 L11.1622,19.9372 C11.6642,20.5442 12.3262,21.0152 13.2192,21.1602 C13.3272,21.1772 13.4072,21.2082 13.5062,21.2302 C13.5002,21.2922 13.4882,21.3522 13.4882,21.4162 C13.4882,22.5902 14.4402,23.5422 15.6142,23.5422 C15.6872,23.5422 15.7562,23.5282 15.8262,23.5212 C15.9912,24.3472 16.5612,26.6802 17.8832,27.1252 C18.2832,27.2592 18.9102,27.2762 19.6672,26.5722 C20.3142,25.8972 21.1632,25.2872 21.3512,25.2772 C21.3512,25.2772 21.3982,25.3512 21.3982,25.6012 C21.3982,26.4252 21.6512,27.0592 22.1502,27.4852 C22.7822,28.0242 23.7362,28.1862 25.0612,27.9742 C25.1122,27.9682 25.1402,27.9742 25.1792,28.0092 C25.5322,28.3192 25.6642,29.6042 25.6452,30.4362 C25.7032,31.0542 26.9542,32.6432 37.2782,34.0582 C37.3002,34.0602 37.3232,34.0622 37.3462,34.0622 C37.5922,34.0622 37.8062,33.8802 37.8402,33.6302 C37.8782,33.3562 37.6872,33.1042 37.4122,33.0662 C28.4142,31.8342 26.8702,30.5312 26.6452,30.2712 C26.6512,29.6772 26.6012,27.9272 25.8402,27.2582 C25.5762,27.0252 25.2512,26.9332 24.9052,26.9872 C23.9102,27.1432 23.1832,27.0522 22.7992,26.7252 C22.5302,26.4942 22.3982,26.1262 22.3982,25.6012 C22.3982,24.8032 22.0572,24.4982 21.7712,24.3832 C20.8622,24.0202 19.4932,25.3092 18.9652,25.8602 C18.6652,26.1402 18.4072,26.2482 18.2022,26.1782 C17.5432,25.9562 16.9692,24.2672 16.7792,23.2182 C16.7792,23.2112 16.7762,23.2012 16.7762,23.1942 C17.3562,22.8142 17.7412,22.1612 17.7412,21.4162 C17.7412,20.2422 16.7882,19.2892 15.6142,19.2892 C14.8592,19.2892 14.1992,19.6852 13.8232,20.2792 C13.6742,20.2442 13.5412,20.1992 13.3792,20.1722 C12.2092,19.9822 11.5432,18.9432 11.1622,17.8822 L11.1622,11.0792 C11.1622,10.5262 10.7152,10.0792 10.1622,10.0792 C9.6102,10.0792 9.1622,10.5262 9.1622,11.0792 L9.1622,38.0162 C9.1622,38.5682 9.6102,39.0162 10.1622,39.0162 L37.3452,39.0162 C37.8982,39.0162 38.3452,38.5682 38.3452,38.0162 C38.3452,37.4642 37.8982,37.0162 37.3452,37.0162" id="Fill-4" fill="#FFFFFF"></path>
            </g>
        </g>
    </g>
</svg>