<svg xmlns="http://www.w3.org/2000/svg" xmlns:xlink="http://www.w3.org/1999/xlink" width="52" height="52" viewBox="0 0 52 52">
    <defs>
        <rect id="a" width="8.229" height="6.545" y="14.532" rx="3"/>
        <rect id="b" width="8.229" height="6.545" x="13.553" y="22.904" rx="3"/>
        <rect id="c" width="8.229" height="6.545" x="13.553" y="6.54" rx="3"/>
        <rect id="d" width="8.229" height="6.545" x="27.771" y="9.818" rx="3"/>
        <rect id="e" width="8.229" height="6.545" x="27.771" y="19.636" rx="3"/>
        <rect id="f" width="8.229" height="6.545" x="27.771" y="29.455" rx="3"/>
        <rect id="g" width="8.229" height="6.545" x="27.771" rx="3"/>
    </defs>
    <g fill="none" fill-rule="evenodd">
        <rect width="52" height="52" fill="#448EED" rx="2"/>
        <g transform="translate(6 8)">
            <use fill="#FFF" xlink:href="#a"/>
            <rect width="7.229" height="5.545" x=".5" y="15.032" stroke="#448EED" rx="2.773"/>
        </g>
        <g stroke="#FFF" stroke-linecap="square">
            <path d="M14.743 25.182l5.143-6.546M14.157 26.555l5.729 5.172M28.114 17l8.229-4.91M28.114 18.636l7.2 3.273M28.114 33.364l6.172-3.273M28.114 35l7.2 4.91"/>
        </g>
        <g transform="translate(6 8)">
            <use fill="#FFF" xlink:href="#b"/>
            <rect width="7.229" height="5.545" x="14.053" y="23.404" stroke="#448EED" rx="2.773"/>
        </g>
        <g transform="translate(6 8)">
            <use fill="#FFF" xlink:href="#c"/>
            <rect width="7.229" height="5.545" x="14.053" y="7.04" stroke="#448EED" rx="2.773"/>
        </g>
        <g transform="translate(6 8)">
            <use fill="#FFF" xlink:href="#d"/>
            <rect width="7.229" height="5.545" x="28.271" y="10.318" stroke="#448EED" rx="2.773"/>
        </g>
        <g transform="translate(6 8)">
            <use fill="#FFF" xlink:href="#e"/>
            <rect width="7.229" height="5.545" x="28.271" y="20.136" stroke="#448EED" rx="2.773"/>
        </g>
        <g transform="translate(6 8)">
            <use fill="#FFF" xlink:href="#f"/>
            <rect width="7.229" height="5.545" x="28.271" y="29.955" stroke="#448EED" rx="2.773"/>
        </g>
        <g transform="translate(6 8)">
            <use fill="#FFF" xlink:href="#g"/>
            <rect width="7.229" height="5.545" x="28.271" y=".5" stroke="#448EED" rx="2.773"/>
        </g>
    </g>
</svg>
