<svg xmlns="http://www.w3.org/2000/svg" width="271" height="255" viewBox="0 0 271 255">
    <g fill="none" fill-rule="evenodd">
        <path fill="#FFF" d="M28.567 16.872h200v190h-200z"/>
        <path stroke="#D8D8D8" stroke-linecap="square" d="M30.167 84.972h199.387M30.167 106.092h199.387M30.167 42.733h199.387M30.167 63.853h199.387M30.167 127.642h199.387M30.167 148.762h199.387M30.167 169.881h199.387M30.167 191h199.387"/>
        <path stroke="#4A4A4A" stroke-linecap="square" d="M30.167 212.12h199.387"/>
        <path stroke="#D8D8D8" stroke-linecap="square" d="M29.783 22.476h199.388M57.804 211.258v-191.8M85.46 211.258v-191.8M113.116 211.258v-191.8M140.772 211.258v-191.8M168.428 211.258v-191.8M196.084 211.258v-191.8M223.74 211.258v-191.8"/>
        <text fill="#4A4A4A" font-family="ArialMT, Arial" font-size="14">
            <tspan x="9.177" y="115.571">0</tspan>
        </text>
        <text fill="#4A4A4A" font-family="ArialMT, Arial" font-size="14">
            <tspan x="2" y="136.686">-5</tspan>
        </text>
        <text fill="#4A4A4A" font-family="ArialMT, Arial" font-size="14">
            <tspan x=".589" y="157.8">-20</tspan>
        </text>
        <text fill="#4A4A4A" font-family="ArialMT, Arial" font-size="14">
            <tspan x=".589" y="178.914">-25</tspan>
        </text>
        <text fill="#4A4A4A" font-family="ArialMT, Arial" font-size="14">
            <tspan x=".589" y="200.028">-20</tspan>
        </text>
        <text fill="#4A4A4A" font-family="ArialMT, Arial" font-size="14">
            <tspan x="8.177" y="31.114">20</tspan>
        </text>
        <text fill="#4A4A4A" font-family="ArialMT, Arial" font-size="14">
            <tspan x="8.177" y="52.228">15</tspan>
        </text>
        <text fill="#4A4A4A" font-family="ArialMT, Arial" font-size="14">
            <tspan x="8.177" y="73.343">10</tspan>
        </text>
        <text fill="#4A4A4A" font-family="ArialMT, Arial" font-size="14">
            <tspan x="9.177" y="94.457">5</tspan>
        </text>
        <path stroke="#9B9B9B" stroke-dasharray="5" stroke-linecap="square" d="M30.855 105.899H231.01"/>
        <path stroke="#4A4A4A" stroke-linecap="square" d="M30.148 211.258v-191.8"/>
        <text fill="#4A4A4A" font-family="ArialMT, Arial" font-size="14">
            <tspan x="95.975" y="251.575">Predicted Target Value</tspan>
        </text>
        <text fill="#4A4A4A" font-family="ArialMT, Arial" font-size="14">
            <tspan x="16.294" y="13.202">Residual</tspan>
        </text>
        <text fill="#4A4A4A" font-family="ArialMT, Arial" font-size="14">
            <tspan x="26.867" y="227.35">100</tspan>
        </text>
        <text fill="#4A4A4A" font-family="ArialMT, Arial" font-size="14">
            <tspan x="54.575" y="227.35">200</tspan>
        </text>
        <text fill="#4A4A4A" font-family="ArialMT, Arial" font-size="14">
            <tspan x="82.283" y="227.35">300</tspan>
        </text>
        <text fill="#4A4A4A" font-family="ArialMT, Arial" font-size="14">
            <tspan x="109.991" y="227.35">400</tspan>
        </text>
        <text fill="#4A4A4A" font-family="ArialMT, Arial" font-size="14">
            <tspan x="137.699" y="227.35">500</tspan>
        </text>
        <text fill="#4A4A4A" font-family="ArialMT, Arial" font-size="14">
            <tspan x="165.407" y="227.35">600</tspan>
        </text>
        <text fill="#4A4A4A" font-family="ArialMT, Arial" font-size="14">
            <tspan x="193.115" y="227.35">700</tspan>
        </text>
        <text fill="#4A4A4A" font-family="ArialMT, Arial" font-size="14">
            <tspan x="220.823" y="227.35">800</tspan>
        </text>
        <path stroke="#01B8BE" stroke-dasharray="1,29" stroke-linecap="round" stroke-linejoin="round" stroke-width="4" d="M87.163 107.445l-8.958-6.418-40.951 6.418 68.2-4.324 20.74-1.314-95.339 2.718 193.237-7.143-152.286 11.07-11.517-3.927c16.028 1.691 29.679 3 40.95 3.927 12.926 1.062 23.38 4.202 42.231 4.376 30.253.28-43.58-.173-56.307-5.383-5.441-2.228 18.426-6.201 14.077-8.659-7.424-4.195 80.127 2.228 80.622 1.026.974-2.369 5.667-4.914 14.076-7.636-60.935 4.26-86.955 7.471-78.062 9.63 4.512 1.096 23.527-5.664 38.391-3.02.802.143-8.622 1.693 0 4.323 20.355 6.211 68.721 16.996 67.825 19.091-.79 1.849-70.528-13.147-67.825-12.148 5.685 2.098-8.392.594-42.23-4.513h29.433l-17.276 2.913 30.073-1.007-42.23-.178"/>
        <path stroke="#01B8BE" stroke-dasharray="1,78" stroke-linecap="round" stroke-linejoin="round" stroke-width="4" d="M163.942 174.269l8.958-6.418 40.95 6.418-68.2-4.323-20.74-1.315 95.339 2.718L12 172.363l167.298 2.913 11.518-3.927c-16.029 1.692-29.68 3-40.951 3.927-12.926 1.062-23.38 4.202-42.23 4.377-30.254.28 43.58-.173 56.307-5.384 5.44-2.228-18.427-6.2-14.077-8.659 7.424-4.195-80.128 2.228-80.622 1.026-.975-2.369-5.667-4.914-14.077-7.636 60.935 4.261 86.956 7.471 78.063 9.63-4.512 1.096-23.528-5.664-38.392-3.02-.801.143 8.623 1.693 0 4.324-20.354 6.21 2.703 5.944 0 6.942-5.684 2.099 8.392.595 42.23-4.513h-29.433l17.276 2.913-30.073-1.007 42.23-.178"/>
        <path stroke="#01B8BE" stroke-dasharray="1,88" stroke-linecap="round" stroke-linejoin="round" stroke-width="4" d="M170.942 43.202l8.958-6.418 40.95 6.418-68.2-4.324-20.74-1.315 95.339 2.719-193.237-7.143 152.286 11.07 11.518-3.927c-16.029 1.691-29.68 3-40.951 3.926-12.926 1.063-23.38 4.203-42.23 4.377-30.254.28 43.58-.173 56.307-5.383 5.44-2.228-18.427-6.201-14.077-8.66 7.424-4.195-80.128 2.229-80.622 1.027-.975-2.37-5.667-4.915-14.077-7.636 60.935 4.26 86.956 7.47 78.063 9.63-4.512 1.096-23.528-5.664-38.392-3.02-.801.142 8.623 1.692 0 4.323-20.354 6.21-68.721 16.996-67.825 19.091.791 1.848 70.528-13.147 67.825-12.149-5.684 2.1 8.392.595 42.23-4.512h-29.433l17.276 2.912-30.073-1.006 42.23-.178"/>
    </g>
</svg>
