<svg xmlns="http://www.w3.org/2000/svg" width="36" height="25" viewBox="0 0 36 25">
    <g fill="none" fill-rule="evenodd">
        <path fill="#9B9B9B" d="M18.149 24.793c-3.353 0-6.705.006-10.058-.001-4.462-.01-8.035-3.564-8.09-8.037-.041-3.272 2.056-6.35 5.172-7.544.537-.205.817-.405.867-1.09.21-2.862 3.33-4.817 6.098-3.817.727.263.991.082 1.38-.501 2.02-3.04 5.628-4.397 9.279-3.56 3.21.737 5.895 3.61 6.365 7.047.16 1.162.59 1.629 1.695 1.98 2.576.82 5.475 3.735 5.112 8.327-.252 3.195-2.797 6.21-6.092 6.998a7.39 7.39 0 0 1-1.76.205c-3.323-.013-6.646-.006-9.968-.007"/>
        <path fill="#FFF" d="M11.088 16.088h2.22l-1.08-3.144h-.024l-1.116 3.144zm.18-5.256H13.2l3.204 8.568h-1.956l-.648-1.908h-3.204L9.924 19.4H8.028l3.24-8.568zm7.764 4.032h1.464c.216 0 .424-.016.624-.048s.376-.094.528-.186c.152-.092.274-.222.366-.39.092-.168.138-.388.138-.66s-.046-.492-.138-.66a1.013 1.013 0 0 0-.366-.39 1.452 1.452 0 0 0-.528-.186 3.946 3.946 0 0 0-.624-.048h-1.464v2.568zm-1.884-4.032h3.864c.536 0 .992.078 1.368.234.376.156.682.362.918.618s.408.548.516.876a3.259 3.259 0 0 1 0 2.034c-.108.332-.28.626-.516.882a2.56 2.56 0 0 1-.918.618c-.376.156-.832.234-1.368.234h-1.98V19.4h-1.884v-8.568zm8.004 0h1.884V19.4h-1.884v-8.568z"/>
    </g>
</svg>
