<svg xmlns="http://www.w3.org/2000/svg" width="30" height="26" viewBox="0 0 30 26">
    <path fill="#9B9B9B" fill-rule="evenodd" d="M18.353 10.391c-6.205 0-11.452-2.364-11.63-5.196C6.902 2.365 12.149 0 18.354 0c6.206 0 11.453 2.365 11.63 5.195-.177 2.831-5.424 5.196-11.63 5.196zm0 11.425c5.243 0 9.653-1.504 11.647-3.713v2.555C30 23.554 24.667 26 18.353 26c-2.576 0-4.988-.408-6.942-1.087V20.82c1.987.633 4.364.997 6.942.997zm0-5.346c5.243 0 9.653-1.504 11.647-3.712v2.661c0 2.895-5.333 5.342-11.647 5.342-2.576 0-4.988-.407-6.942-1.087v-.676c0-.259.227-.468.507-.468h4.117c.422 0 .66-.448.4-.755l-1.256-1.497c1.011.125 2.074.192 3.174.192zm0-5.024c5.243 0 9.653-1.503 11.647-3.712v2.338c0 2.896-5.333 5.342-11.647 5.342-1.477 0-2.901-.134-4.216-.376L9.755 9.821c2.255 1.014 5.257 1.625 8.598 1.625zM13.34 16.64c.176.21.014.514-.273.514H10.26c-.19 0-.346.144-.346.32v6.719c0 .176-.155.319-.345.319H3.845c-.19 0-.346-.143-.346-.32v-6.719c0-.175-.154-.319-.346-.319H.347c-.288 0-.45-.305-.274-.514l6.36-7.573a.364.364 0 0 1 .547 0l6.36 7.573z"/>
</svg>
