<svg xmlns="http://www.w3.org/2000/svg" width="32" height="30" viewBox="0 0 32 30">
    <g fill="none" fill-rule="evenodd">
        <path stroke="#9B9B9B" stroke-width="2" d="M2.942 12.19C3.947 5.846 9.329 1 15.816 1c6.536 0 11.949 4.917 12.896 11.332.674 2.382 1.733 6.659 1.733 10.02 0 4.931-2.278 5.044-2.278 5.044s-5.571.918-12.445.918c-6.873 0-12.254-.918-12.254-.918S1 26.925 1 22.353c0-3.211 1.217-7.747 1.942-10.162z"/>
        <path fill="#9B9B9B" d="M6 12.605S10.368 10 15.898 10c5.53 0 9.897 2.605 9.897 2.605v8.428s-4.949-.97-9.897-.97c-4.95 0-9.898.97-9.898.97v-8.428z"/>
        <path fill="#FFF" d="M10.77 17.794c.977 0 1.77-.85 1.77-1.897 0-1.048-.793-1.897-1.77-1.897-.978 0-1.77.85-1.77 1.897 0 1.048.792 1.897 1.77 1.897zM21.77 17.794c.977 0 1.77-.85 1.77-1.897 0-1.048-.793-1.897-1.77-1.897-.978 0-1.77.85-1.77 1.897 0 1.048.792 1.897 1.77 1.897z"/>
    </g>
</svg>
