<svg xmlns="http://www.w3.org/2000/svg" width="23" height="24" viewBox="0 0 23 24">
    <path fill="#9B9B9B" fill-rule="evenodd" d="M1 0h21a1 1 0 0 1 1 1v5.385a1 1 0 0 1-1 1H1a1 1 0 0 1-1-1V1a1 1 0 0 1 1-1zm1.875 2.77v1.845h12.458V2.77H2.875zm17.25 1.845c.53 0 .958-.413.958-.923s-.429-.923-.958-.923c-.53 0-.958.414-.958.923 0 .51.429.923.958.923zM1 16.615h21a1 1 0 0 1 1 1V23a1 1 0 0 1-1 1H1a1 1 0 0 1-1-1v-5.385a1 1 0 0 1 1-1zm1.875 2.77v1.846h12.458v-1.846H2.875zm17.25 1.846c.53 0 .958-.414.958-.923 0-.51-.429-.923-.958-.923-.53 0-.958.413-.958.923s.429.923.958.923zM1 8.308h21a1 1 0 0 1 1 1v5.384a1 1 0 0 1-1 1H1a1 1 0 0 1-1-1V9.308a1 1 0 0 1 1-1zm1.875 2.769v1.846h12.458v-1.846H2.875zm17.25 1.846c.53 0 .958-.413.958-.923s-.429-.923-.958-.923c-.53 0-.958.413-.958.923s.429.923.958.923z"/>
</svg>
