<svg xmlns="http://www.w3.org/2000/svg" width="28" height="26" viewBox="0 0 28 26">
    <path fill="#9B9B9B" fill-rule="evenodd" d="M23.712 7.521V6.454h-.396c-1.762 0-3.524-.004-5.286.001-1.83.006-3.394-.63-4.69-1.925-.571-.57-1.147-1.138-1.712-1.715-.45-.458-.983-.675-1.627-.673-2.502.008-5.005.003-7.507.003h-.35V22.513c0 .865.738 1.414 1.485 1.113.425-.17.678-.559.68-1.063.002-1.234 0-2.468 0-3.703v-7.944c.001-1.39.908-2.295 2.298-2.295h19.087c1.395 0 2.304.903 2.305 2.288 0 3.523.002 7.047 0 10.57-.003 2.467-1.907 4.366-4.38 4.366-6.755.002-13.51.002-20.265 0-1.955 0-3.353-1.397-3.353-3.35V2.297C0 .908.908.003 2.298.002 4.856.002 7.415.006 9.973 0c1.243-.003 2.3.42 3.173 1.307.566.575 1.142 1.142 1.713 1.715.867.87 1.912 1.298 3.144 1.292 1.851-.01 3.703-.004 5.554-.002 1.37 0 2.284.91 2.287 2.271v.938h-2.132z"/>
</svg>
