<svg xmlns="http://www.w3.org/2000/svg" width="36" height="28" viewBox="0 0 36 28">
    <path fill="#979797" fill-rule="nonzero" d="M20.899 8.495v6.375h-6.26V8.495h-3.914L17.769 0l7.043 8.495h-3.913zM5.674 20.723H30.13l5.87 5.29v1.033H0v-1.033l5.674-5.29zM11.25 3.968v2.3H8.52c-.241 0-.345.094-.345.081v11.11c0-.012.104.082.346.082h18.958c.242 0 .346-.094.346-.081V6.35c0 .012-.104-.082-.346-.082h-3.125v-2.3h3.125c1.462 0 2.646 1.066 2.646 2.381v11.11c0 1.316-1.184 2.382-2.646 2.382H8.521c-1.462 0-2.646-1.066-2.646-2.381V6.35c0-1.316 1.184-2.382 2.646-2.382h2.73z"/>
</svg>
