<?xml version="1.0" encoding="UTF-8"?>
<svg width="182px" height="114px" viewBox="0 0 182 114" version="1.1" xmlns="http://www.w3.org/2000/svg" xmlns:xlink="http://www.w3.org/1999/xlink">
    <!-- Generator: Sketch 52.2 (67145) - http://www.bohemiancoding.com/sketch -->
    <title>icon_automatic_modeling copy</title>
    <desc>Created with Sketch.</desc>
    <defs>
        <linearGradient x1="50%" y1="0%" x2="50%" y2="100%" id="linearGradient-1">
            <stop stop-color="#5B657B" offset="0%"></stop>
            <stop stop-color="#243448" offset="100%"></stop>
        </linearGradient>
        <filter x="-14.8%" y="-17.2%" width="129.7%" height="134.3%" filterUnits="objectBoundingBox" id="filter-2">
            <feOffset dx="0" dy="3" in="SourceAlpha" result="shadowOffsetOuter1"></feOffset>
            <feGaussianBlur stdDeviation="3" in="shadowOffsetOuter1" result="shadowBlurOuter1"></feGaussianBlur>
            <feColorMatrix values="0 0 0 0 0   0 0 0 0 0   0 0 0 0 0  0 0 0 0.2 0" type="matrix" in="shadowBlurOuter1" result="shadowMatrixOuter1"></feColorMatrix>
            <feMerge>
                <feMergeNode in="shadowMatrixOuter1"></feMergeNode>
                <feMergeNode in="SourceGraphic"></feMergeNode>
            </feMerge>
        </filter>
        <polygon id="path-3" points="4.24203048e-16 0 118 0 118 102 4.24203048e-16 102"></polygon>
    </defs>
    <g id="Page-1" stroke="none" stroke-width="1" fill="none" fill-rule="evenodd">
        <g id="Upgrade-" transform="translate(-464.000000, -394.000000)">
            <g id="icon_automatic_modeling-copy" transform="translate(464.000000, 397.000000)">
                <g id="Group-12">
                    <rect id="Rectangle-4" fill="#445167" x="0" y="0" width="18" height="18" rx="2"></rect>
                    <path d="M20,1.99508929 C20,0.893231902 20.8954434,0 21.9932301,0 L84.0067699,0 C85.1076005,0 86,0.892622799 86,1.99508929 L86,16.0049107 C86,17.1067681 85.1045566,18 84.0067699,18 L21.9932301,18 C20.8923995,18 20,17.1073772 20,16.0049107 L20,1.99508929 Z" id="Rectangle-4-Copy-3" fill="#445167"></path>
                    <path d="M20,25.9950893 C20,24.8932319 20.8954434,24 21.9932301,24 L84.0067699,24 C85.1076005,24 86,24.8926228 86,25.9950893 L86,40.0049107 C86,41.1067681 85.1045566,42 84.0067699,42 L21.9932301,42 C20.8923995,42 20,41.1073772 20,40.0049107 L20,25.9950893 Z" id="Rectangle-4-Copy-4" fill="#C4CBD7"></path>
                    <path d="M20,50.9950893 C20,49.8932319 20.8954434,49 21.9932301,49 L84.0067699,49 C85.1076005,49 86,49.8926228 86,50.9950893 L86,65.0049107 C86,66.1067681 85.1045566,67 84.0067699,67 L21.9932301,67 C20.8923995,67 20,66.1073772 20,65.0049107 L20,50.9950893 Z" id="Rectangle-4-Copy-5" fill="#445167"></path>
                    <rect id="Rectangle-4-Copy" stroke="#445167" stroke-width="2" fill="#FFFFFF" x="1" y="25" width="16" height="16" rx="2"></rect>
                    <rect id="Rectangle-4-Copy-2" stroke="#445167" stroke-width="2" fill="#FFFFFF" x="1" y="50" width="16" height="16" rx="2"></rect>
                    <path d="M4.14635276,58.3530355 C3.94387264,58.5746751 3.95512153,59.0179543 4.15760166,59.2337613 L6.62673426,61.8292776 C6.83483883,62.0509172 7.25104797,62.0567498 7.46477699,61.8467755 L7.85848834,61.4559899 L8.70777997,60.6102598 L12.8361247,56.5274251 C13.0498537,56.3174508 13.0554782,55.8858368 12.8473736,55.6700298 L12.3692955,55.1625918 C12.1611909,54.9467848 11.7449818,54.9467848 11.5368772,55.1567592 L7.49852368,59.3387484 C7.29041911,59.5545554 6.87420997,59.5487228 6.67172984,59.3329158 L5.32748681,57.9272542 C5.12500669,57.7056146 4.72004644,57.7114472 4.51756632,57.9389194 L4.14635276,58.3530355 L4.14635276,58.3530355 Z" id="Shape-Copy-4" fill="#1D2B3C"></path>
                    <path d="M4.14635276,33.3530355 C3.94387264,33.5746751 3.95512153,34.0179543 4.15760166,34.2337613 L6.62673426,36.8292776 C6.83483883,37.0509172 7.25104797,37.0567498 7.46477699,36.8467755 L7.85848834,36.4559899 L8.70777997,35.6102598 L12.8361247,31.5274251 C13.0498537,31.3174508 13.0554782,30.8858368 12.8473736,30.6700298 L12.3692955,30.1625918 C12.1611909,29.9467848 11.7449818,29.9467848 11.5368772,30.1567592 L7.49852368,34.3387484 C7.29041911,34.5545554 6.87420997,34.5487228 6.67172984,34.3329158 L5.32748681,32.9272542 C5.12500669,32.7056146 4.72004644,32.7114472 4.51756632,32.9389194 L4.14635276,33.3530355 L4.14635276,33.3530355 Z" id="Shape-Copy-5" fill="#1D2B3C"></path>
                    <path d="M4.14635276,9.35303549 C3.94387264,9.57467509 3.95512153,10.0179543 4.15760166,10.2337613 L6.62673426,12.8292776 C6.83483883,13.0509172 7.25104797,13.0567498 7.46477699,12.8467755 L7.85848834,12.4559899 L8.70777997,11.6102598 L12.8361247,7.52742512 C13.0498537,7.31745076 13.0554782,6.88583681 12.8473736,6.67002983 L12.3692955,6.1625918 C12.1611909,5.94678482 11.7449818,5.94678482 11.5368772,6.15675918 L7.49852368,10.3387484 C7.29041911,10.5545554 6.87420997,10.5487228 6.67172984,10.3329158 L5.32748681,8.92725416 C5.12500669,8.70561456 4.72004644,8.71144718 4.51756632,8.9389194 L4.14635276,9.35303549 L4.14635276,9.35303549 Z" id="Shape-Copy-6" fill="#FFFFFF"></path>
                </g>
                <g id="kafei" filter="url(#filter-2)" transform="translate(58.000000, 0.000000)">
                    <mask id="mask-4" fill="white">
                        <use xlink:href="#path-3"></use>
                    </mask>
                    <g id="Clip-2"></g>
                    <path d="M86.168365,72.8961608 C89.1437109,77.8597269 94.6247584,81.2075932 100.900101,81.2075932 C110.329143,81.2075932 118,73.6694919 118,64.4059997 C118,55.14031 110.329143,47.6029412 100.900101,47.6029412 C96.8365595,47.6029412 93.1032598,49.0078658 90.1659328,51.3434246 L90.1659328,42.1636199 C90.1659328,39.7207506 88.1507486,37.7399023 85.6638701,37.7399023 L70.5834418,37.7399023 C70.5420684,37.6928395 70.5282772,37.6325918 70.4829901,37.5875434 C70.2435087,37.3450877 64.6963011,31.6145998 70.770554,23.5529481 C78.448866,13.3602866 73.9162392,4.2890742 70.447394,0.915021235 C69.1836408,-0.313921476 67.1451608,-0.3040328 65.8922168,0.939193555 C64.6416956,2.18040555 64.6517594,4.18542622 65.9162581,5.41436894 C66.1639396,5.65407777 71.9070188,11.4067236 65.5930981,19.7853624 C60.3194769,26.784714 60.9848064,33.3200302 63.0102407,37.7399023 L47.0168014,37.7399023 C46.4672058,37.0140002 43.6694674,32.8550793 47.2642965,27.4421278 C52.849523,19.0312593 49.4142239,12.0941698 46.817389,9.60258958 C45.5471129,8.38371867 43.5063965,8.40587663 42.2637027,9.6569773 C41.0202634,10.905148 41.0443048,12.9103518 42.3162581,14.1314202 C42.3540906,14.1663968 45.9917841,17.7752143 41.8699097,23.9834717 C38.4163466,29.1832673 38.652846,34.1748514 39.8795123,37.7399023 L23.5135258,37.7399023 C23.0643818,36.7127618 22.1856624,34.0589341 23.7231885,31.5087544 C27.0041759,26.0622912 25.1675311,20.907544 23.5658949,18.7201322 C22.5408775,17.3203352 20.5745214,17.011955 19.1316697,17.9933145 C17.6880725,18.9768716 17.3313665,20.9427038 18.3083012,22.3761956 C18.494668,22.650881 20.0752448,25.1402637 18.1802672,28.2848628 C16.0771179,31.7741005 16.2066429,35.2428284 16.7882936,37.7399023 L4.80546781,37.7399023 C2.31933477,37.7399023 0.303591509,39.7207506 0.303591509,42.1643524 L0.303591509,54.7605116 C0.303591509,73.2166271 11.8385779,89.0088431 28.2032598,95.6049564 L3.21780908,95.6049564 C1.44061533,95.6049564 0,97.0205021 0,98.766586 L0,98.8381873 C0,100.584271 1.44061533,102 3.21780908,102 L100.911097,102 C102.688104,102 104.128719,100.584271 104.128719,98.8381873 L104.128719,98.766586 C104.128719,97.0205021 102.688104,95.6049564 100.911097,95.6049564 L62.2660781,95.6049564 C72.8927127,91.3215115 81.4538442,83.1525493 86.168365,72.8961608 Z M100.900101,53.9313278 C106.777923,53.9313278 111.559536,58.6310128 111.559536,64.4059997 C111.559536,70.181536 106.777923,74.878291 100.900101,74.878291 C95.0215333,74.878291 90.2401068,70.181536 90.2401068,64.4059997 C90.2401068,58.6310128 95.0215333,53.9313278 100.900101,53.9313278 Z" id="Fill-1" fill="#4D596F" mask="url(#mask-4)"></path>
                </g>
            </g>
        </g>
    </g>
</svg>