<?xml version="1.0" encoding="UTF-8"?>
<svg width="175px" height="128px" viewBox="0 0 175 128" version="1.1" xmlns="http://www.w3.org/2000/svg" xmlns:xlink="http://www.w3.org/1999/xlink">
    <!-- Generator: Sketch 52.2 (67145) - http://www.bohemiancoding.com/sketch -->
    <title>icon_advanced_modeling copy</title>
    <desc>Created with Sketch.</desc>
    <defs>
        <linearGradient x1="50%" y1="0%" x2="50%" y2="100%" id="linearGradient-1">
            <stop stop-color="#5B657B" offset="0%"></stop>
            <stop stop-color="#243448" offset="100%"></stop>
        </linearGradient>
        <path d="M165.710183,18 L83.2893248,18 C82.682224,18 82.099963,18.241774 81.6705532,18.6723067 C81.2411434,19.1028395 81,19.6866232 81,20.2953116 L81,116.704688 C81,117.972245 82.0250745,119 83.2893248,119 L124.5,105.227514 L165.710183,119 C166.317776,119 166.900037,118.758226 167.329447,118.327693 C167.758857,117.897161 168,117.3135 168,116.704688 L168,20.2953116 C168,19.6866232 167.758857,19.1028395 167.329447,18.6723067 C166.900037,18.241774 166.317776,18 165.710183,18 Z M127.977429,88.108854 C127.977429,88.6011699 127.52481,89 126.966097,89 L111.011212,89 C110.452619,89 110,88.6011699 110,88.108854 L110,87.891146 C110,87.3988301 110.452619,87 111.011212,87 L126.988668,87 C127.547381,87 128,87.3988301 128,87.891146 L127.977429,88.108854 Z M139.977458,88.3664451 C139.977458,88.7162457 139.656322,89 139.259362,89 L131.718578,89 C131.321618,89 131,88.7162457 131,88.3664451 L131,87.6335549 C131,87.2837543 131.321618,87 131.718578,87 L139.281905,87 C139.678382,87 140,87.2837543 140,87.6335549 L139.977458,88.3664451 Z M136.500124,63.8003695 L139.375154,81 L125.000247,72.4001232 L110.62534,81 L113.500371,63.8003695 L102,55.2001232 L119.250062,55.2001232 L125.000247,38 L130.749938,55.2001232 L148,55.2001232 L136.500124,63.8003695 Z" id="path-2"></path>
        <filter x="-12.1%" y="-7.4%" width="124.1%" height="120.8%" filterUnits="objectBoundingBox" id="filter-3">
            <feOffset dx="0" dy="3" in="SourceAlpha" result="shadowOffsetOuter1"></feOffset>
            <feGaussianBlur stdDeviation="3" in="shadowOffsetOuter1" result="shadowBlurOuter1"></feGaussianBlur>
            <feColorMatrix values="0 0 0 0 0   0 0 0 0 0   0 0 0 0 0  0 0 0 0.2 0" type="matrix" in="shadowBlurOuter1"></feColorMatrix>
        </filter>
    </defs>
    <g id="Page-1" stroke="none" stroke-width="1" fill="none" fill-rule="evenodd">
        <g id="Upgrade-" transform="translate(-1088.000000, -397.000000)">
            <g id="icon_advanced_modeling-copy" transform="translate(1089.000000, 397.000000)">
                <g id="Group-11">
                    <polygon id="Rectangle-16-Copy-2" fill="#445167" points="4 42 22 42 22 64 4 64"></polygon>
                    <polygon id="Rectangle-16-Copy-6" fill="#C4CBD7" points="28 13 46 13 46 64 28 64"></polygon>
                    <polygon id="Rectangle-16-Copy-3" fill="#445167" points="51 0 69 0 69 64 51 64"></polygon>
                    <polygon id="Rectangle-16-Copy-4" fill="#C4CBD7" points="75 21 93 21 93 63 75 63"></polygon>
                    <path d="M0.772138036,63.3333333 L96.2305636,63.3333333" id="Line" stroke="#1D2B3C" stroke-width="2" stroke-linecap="square"></path>
                </g>
                <g id="zhuanyebaniconkuozhan_newprod">
                    <use fill="black" fill-opacity="1" filter="url(#filter-3)" xlink:href="#path-2"></use>
                    <use fill="url(#linearGradient-1)" fill-rule="evenodd" xlink:href="#path-2"></use>
                </g>
            </g>
        </g>
    </g>
</svg>