<?xml version="1.0" encoding="UTF-8"?>
<svg width="30px" height="30px" viewBox="0 0 30 30" version="1.1" xmlns="http://www.w3.org/2000/svg" xmlns:xlink="http://www.w3.org/1999/xlink">
    <!-- Generator: Sketch 52.2 (67145) - http://www.bohemiancoding.com/sketch -->
    <title>Fill 1</title>
    <desc>Created with Sketch.</desc>
    <g id="Page-1" stroke="none" stroke-width="1" fill="none" fill-rule="evenodd">
        <g id="language" transform="translate(-45.000000, -401.000000)" fill="#31C4E9">
            <path d="M59.9866109,430.97318 C51.709749,430.97318 45,424.263598 45,415.986611 C45,407.709749 51.709749,401 59.9866109,401 C68.263431,401 74.9731799,407.709749 74.9731799,415.986611 C74.9731799,424.263598 68.263431,430.97318 59.9866109,430.97318 Z M64.463431,410.879707 C64.463431,410.268285 63.9676987,409.772552 63.3561088,409.772552 L53.6668201,409.772552 C53.0553556,409.772552 52.5596653,410.268285 52.5596653,410.879707 L52.5596653,417.061883 C52.5596653,417.673305 53.0553556,418.169038 53.6668201,418.169038 L55.5132218,418.169038 L55.5135146,420.712008 L58.3376569,418.169038 L63.3562762,418.169038 C63.9676987,418.169038 64.463431,417.673305 64.463431,417.061883 L64.463431,410.879707 Z M67.4135565,413.279665 C67.4135565,412.668075 66.9178243,412.203431 66.3062343,412.203431 L64.9208787,412.203431 L64.9208787,417.604184 C64.9208787,418.068201 64.318954,418.664268 63.8547699,418.664268 C63.3905858,418.664268 58.4358577,418.691715 58.4358577,418.691715 C58.4358577,419.303138 58.93159,419.675146 59.5430126,419.675146 L61.6764017,419.675146 L64.4596653,422.200795 L64.4562343,419.675146 L66.3062343,419.675146 C66.9178243,419.675146 67.4135565,419.303138 67.4135565,418.691715 L67.4135565,413.279665 Z" id="Fill-1"></path>
        </g>
    </g>
</svg>