<svg xmlns="http://www.w3.org/2000/svg" xmlns:xlink="http://www.w3.org/1999/xlink" width="61" height="57" viewBox="0 0 61 57">
    <defs>
        <linearGradient id="c" x1="50%" x2="50%" y1="0%" y2="100%">
            <stop offset="0%" stop-color="#FFF"/>
            <stop offset="100%" stop-color="#F1F3F5"/>
        </linearGradient>
        <path id="b" d="M3.68 18.473C5.354 7.998 14.322 0 25.135 0 36.03 0 45.051 8.118 46.63 18.708c1.123 3.93 2.888 10.99 2.888 16.541 0 8.14-3.796 8.325-3.796 8.325S36.435 45.09 24.98 45.09c-11.456 0-20.424-1.516-20.424-1.516S.442 42.796.442 35.249c0-5.3 2.03-12.787 3.237-16.776z"/>
        <filter id="a" width="142.8%" height="146.6%" x="-21.4%" y="-16.6%" filterUnits="objectBoundingBox">
            <feOffset dy="3" in="SourceAlpha" result="shadowOffsetOuter1"/>
            <feGaussianBlur in="shadowOffsetOuter1" result="shadowBlurOuter1" stdDeviation="3"/>
            <feColorMatrix in="shadowBlurOuter1" values="0 0 0 0 0 0 0 0 0 0 0 0 0 0 0 0 0 0 0.2 0"/>
        </filter>
    </defs>
    <g fill="none" fill-rule="evenodd">
        <g transform="translate(6 3)">
            <use fill="#000" filter="url(#a)" xlink:href="#b"/>
            <use fill="url(#c)" xlink:href="#b"/>
        </g>
        <path fill="#1D2B3C" d="M14.944 22.054s7.28-4.3 16.496-4.3c9.216 0 16.496 4.3 16.496 4.3v13.912s-8.248-1.6-16.496-1.6-16.496 1.6-16.496 1.6V22.054z"/>
        <path fill="#31C4E9" d="M22.436 30.863c1.629 0 2.95-1.402 2.95-3.13 0-1.73-1.321-3.132-2.95-3.132-1.629 0-2.95 1.402-2.95 3.131 0 1.73 1.321 3.131 2.95 3.131zM40.931 30.863c1.63 0 2.95-1.402 2.95-3.13 0-1.73-1.32-3.132-2.95-3.132-1.629 0-2.95 1.402-2.95 3.131 0 1.73 1.321 3.131 2.95 3.131z"/>
    </g>
</svg>
