<?xml version="1.0" encoding="UTF-8"?>
<svg width="23px" height="26px" viewBox="0 0 23 26" version="1.1" xmlns="http://www.w3.org/2000/svg" xmlns:xlink="http://www.w3.org/1999/xlink">
    <!-- Generator: Sketch 52.2 (67145) - http://www.bohemiancoding.com/sketch -->
    <title>分组</title>
    <desc>Created with Sketch.</desc>
    <defs>
        <polygon id="path-1" points="0.0327913978 0.0411652174 7.96421505 0.0411652174 7.96421505 7.98438261 0.0327913978 7.98438261"></polygon>
        <polygon id="path-3" points="1.31799163e-05 0.0205472656 20.9566073 0.0205472656 20.9566073 23 1.31799163e-05 23"></polygon>
        <polygon id="path-5" points="0.0219643902 0.0084375 8.97858878 0.0084375 8.97858878 5.96319375 0.0219643902 5.96319375"></polygon>
    </defs>
    <g id="Page-1" stroke="none" stroke-width="1" fill="none" fill-rule="evenodd">
        <g id="Order-management" transform="translate(-49.000000, -157.000000)">
            <rect fill="#F4F3F3" x="0" y="0" width="1920" height="930"></rect>
            <g id="menu" transform="translate(1.000000, 0.000000)">
                <rect id="Rectangle-5" fill="#1D2B3C" x="0" y="0" width="120" height="930"></rect>
                <g id="home" transform="translate(27.000000, 157.000000)">
                    <g id="分组" transform="translate(21.000000, 0.000000)">
                        <g transform="translate(15.000000, 17.000000)">
                            <mask id="mask-2" fill="white">
                                <use xlink:href="#path-1"></use>
                            </mask>
                            <g id="Clip-2"></g>
                            <path d="M3.24014624,6.49507826 L2.75270538,5.99625217 L1.3068129,4.51646957 L2.19425376,3.63386087 L3.32345806,4.75764348 L6.20298495,1.94838261 L7.00724301,2.8029913 L3.24014624,6.49507826 Z M3.99851183,0.0411652174 C1.80831828,0.0411652174 0.0327913978,1.81929565 0.0327913978,4.01273043 C0.0327913978,6.2062087 1.80831828,7.98438261 3.99851183,7.98438261 C6.18870538,7.98438261 7.96423226,6.2062087 7.96423226,4.01273043 C7.96423226,1.81929565 6.18870538,0.0411652174 3.99851183,0.0411652174 Z" id="Fill-1" fill="#31C4E9" mask="url(#mask-2)"></path>
                        </g>
                        <g transform="translate(0.000000, 3.000000)">
                            <mask id="mask-4" fill="white">
                                <use xlink:href="#path-3"></use>
                            </mask>
                            <g id="Clip-4"></g>
                            <path d="M15.1771701,13.6987641 L5.77927469,13.6987641 C4.97749644,13.6987641 4.32109268,13.0340551 4.32109268,12.2215531 C4.32109268,11.4089164 4.97749644,10.7442074 5.77927469,10.7442074 L15.1771701,10.7442074 C15.9791241,10.7442074 16.6355278,11.4089164 16.6355278,12.2215531 C16.6355278,13.0340551 15.9791241,13.6987641 15.1771701,13.6987641 M17.067873,0.0205472656 L16.0252977,0.0205472656 L16.0252977,3.42324453 L4.931191,3.42324453 L4.931191,0.0205472656 L3.88879142,0.0205472656 C1.75013033,0.0205472656 1.31799163e-05,1.79320937 1.31799163e-05,3.95983633 L1.31799163e-05,19.0607289 C1.31799163e-05,21.2273559 1.75013033,23.000018 3.88879142,23.000018 L17.067873,23.000018 C17.4479818,23.000018 17.8147349,22.9417992 18.1624211,22.8375355 C15.8728939,22.5190395 14.0743626,20.6426977 13.8514462,18.2946312 L5.77927469,18.2946312 C4.97749644,18.2946312 4.32109268,17.6299223 4.32109268,16.8175102 C4.32109268,16.0050531 4.97749644,15.3401645 5.77927469,15.3401645 L14.45535,15.3401645 C15.346532,13.7150258 17.0280257,12.7103031 18.8501931,12.7139867 C19.6034253,12.7139867 20.3151408,12.8866664 20.9566073,13.187598 L20.9566073,3.95983633 C20.9566073,1.79320937 19.2064902,0.0205472656 17.067873,0.0205472656" id="Fill-3" fill="#31C4E9" mask="url(#mask-4)"></path>
                        </g>
                        <g transform="translate(6.000000, 0.000000)">
                            <mask id="mask-6" fill="white">
                                <use xlink:href="#path-5"></use>
                            </mask>
                            <g id="Clip-6"></g>
                            <path d="M4.50018878,3.34719375 C3.95364732,3.34719375 3.51067171,2.87863125 3.51067171,2.30038125 C3.51067171,1.72231875 3.95364732,1.25356875 4.50018878,1.25356875 C5.04677415,1.25356875 5.48988146,1.72231875 5.48988146,2.30038125 C5.48988146,2.87863125 5.04677415,3.34719375 4.50018878,3.34719375 Z M6.64851073,2.0152875 C6.51539854,0.884240625 5.60547659,0.008428125 4.50018878,0.008428125 C3.3952522,0.008428125 2.48515463,0.884240625 2.35208634,2.0152875 L0.0219643902,2.0152875 L0.0219643902,5.96319375 L8.97858878,5.96319375 L8.97858878,2.0152875 L6.64851073,2.0152875 Z" id="Fill-5" fill="#31C4E9" mask="url(#mask-6)"></path>
                        </g>
                    </g>
                </g>
            </g>
        </g>
    </g>
</svg>