<?xml version="1.0" encoding="utf-8"?>
<!-- Generator: Adobe Illustrator 22.0.1, SVG Export Plug-In . SVG Version: 6.00 Build 0)  -->
<svg version="1.1" id="Layer_1" xmlns="http://www.w3.org/2000/svg" xmlns:xlink="http://www.w3.org/1999/xlink" x="0px" y="0px"
	 viewBox="0 0 218.5 104.5" style="enable-background:new 0 0 218.5 104.5;" xml:space="preserve">
<style type="text/css">
	.st0{fill:#D3323E;}
	.st1{fill:#FFFFFF;}
</style>
<title>Asset 2abc</title>
<g id="Layer_2_1_">
	<g id="图层_1">
		<polygon class="st0" points="38.2,54.7 55.8,54.7 64,46.5 64,8.2 55.8,0 0,0 0,11.6 52.4,11.6 52.4,43.2 26.7,43.2 18.5,51.4 
			71.5,104.4 87.9,104.4 		"/>
		<rect y="29" class="st0" width="11.6" height="75.5"/>
	</g>
</g>
<polygon class="st0" points="110.7,0.1 87.8,0.1 79.9,7.5 79.9,17.3 90.4,17.3 90.4,10.6 107.5,10.6 107.6,17.2 80,44.8 80,49.3 
	80,55.1 119.4,55.1 119.4,44.7 95.1,44.7 116.7,23.1 118.1,19.5 118.1,7.5 "/>
<g>
	<rect x="114.1" y="92.8" class="st1" width="11.6" height="11.6"/>
	<rect x="206.9" y="46.4" class="st1" width="11.6" height="58"/>
	<rect x="206.9" y="23.2" class="st1" width="11.6" height="11.6"/>
	<path class="st1" d="M186.8,54.8c-11.4-11.3-29.8-11.1-41,0.2c-11.3,11.4-11.1,29.8,0.2,41c10.2,10.1,26.3,11.2,37.8,2.6v5.8h11.6
		v-29C195.4,67.7,192.3,60.3,186.8,54.8z M183.8,75.4c0,9.6-7.8,17.4-17.4,17.4c-9.6,0-17.4-7.8-17.4-17.4S156.8,58,166.4,58l0,0
		C176,58,183.8,65.8,183.8,75.4L183.8,75.4z"/>
</g>
</svg>
