<?xml version="1.0" encoding="UTF-8"?>
<svg width="50px" height="50px" viewBox="0 0 50 50" version="1.1" xmlns="http://www.w3.org/2000/svg" xmlns:xlink="http://www.w3.org/1999/xlink">
    <!-- Generator: Sketch 54 (76480) - https://sketchapp.com -->
    <title>Page 1</title>
    <desc>Created with Sketch.</desc>
    <defs>
        <polygon id="path-1" points="0 0.724 49.277 0.724 49.277 49.9996 0 49.9996"></polygon>
    </defs>
    <g id="Page-1" stroke="none" stroke-width="1" fill="none" fill-rule="evenodd">
        <g id="5-4-2-Model-Selection_Advanced-View_Model-Expand_ROC-Cure-Copy" transform="translate(-466.000000, -529.000000)">
            <g id="Page-1" transform="translate(466.000000, 528.000000)">
                <path d="M18.7412,22.416 C18.7412,23.59 17.7892,24.542 16.6142,24.542 C15.4392,24.542 14.4882,23.59 14.4882,22.416 C14.4882,21.242 15.4392,20.29 16.6142,20.29 C17.7892,20.29 18.7412,21.242 18.7412,22.416" id="Fill-1" fill="#1D2B3C"></path>
                <g id="Group-5" transform="translate(0.000000, 0.276400)">
                    <mask id="mask-2" fill="white">
                        <use xlink:href="#path-1"></use>
                    </mask>
                    <g id="Clip-4"></g>
                    <path d="M5,2.7236 C3.346,2.7236 2,4.0696 2,5.7236 L2,44.9996 C2,46.6546 3.346,47.9996 5,47.9996 L44.277,47.9996 C45.932,47.9996 47.277,46.6546 47.277,44.9996 L47.277,5.7236 C47.277,4.0696 45.932,2.7236 44.277,2.7236 L5,2.7236 Z M44.277,49.9996 L5,49.9996 C2.243,49.9996 0,47.7566 0,44.9996 L0,5.7236 C0,2.9666 2.243,0.7236 5,0.7236 L44.277,0.7236 C47.034,0.7236 49.277,2.9666 49.277,5.7236 L49.277,44.9996 C49.277,47.7566 47.034,49.9996 44.277,49.9996 L44.277,49.9996 Z" id="Fill-3" fill="#1D2B3C" mask="url(#mask-2)"></path>
                </g>
                <path d="M38.3457,40.0161 L11.1627,40.0161 C10.6107,40.0161 10.1627,39.5681 10.1627,39.0161 L10.1627,12.0791 C10.1627,11.5261 10.6107,11.0791 11.1627,11.0791 C11.7157,11.0791 12.1627,11.5261 12.1627,12.0791 L12.1627,38.0161 L38.3457,38.0161 C38.8987,38.0161 39.3457,38.4641 39.3457,39.0161 C39.3457,39.5681 38.8987,40.0161 38.3457,40.0161" id="Fill-6" fill="#1D2B3C"></path>
                <path d="M38.3467,35.062 C38.3237,35.062 38.3007,35.061 38.2787,35.058 C27.9547,33.643 26.7037,32.054 26.6457,31.437 C26.6647,30.604 26.5337,29.319 26.1797,29.009 C26.1407,28.974 26.1127,28.968 26.0617,28.975 C24.7367,29.186 23.7827,29.024 23.1507,28.485 C22.6517,28.059 22.3987,27.425 22.3987,26.601 C22.3987,26.351 22.3517,26.277 22.3517,26.277 C22.1637,26.287 21.3147,26.897 20.6677,27.572 C19.9107,28.276 19.2837,28.259 18.8837,28.125 C17.4347,27.637 16.8827,24.861 16.7867,24.31 C16.7777,24.167 16.6937,22.562 14.2197,22.16 C10.8987,21.62 10.6717,16.642 10.6627,16.43 C10.6537,16.154 10.8677,15.922 11.1437,15.912 C11.1507,15.912 11.1577,15.911 11.1627,15.911 C11.4307,15.911 11.6527,16.123 11.6627,16.392 C11.6637,16.436 11.8657,20.764 14.3797,21.172 C17.0457,21.605 17.7697,23.354 17.7797,24.218 C17.9697,25.267 18.5437,26.956 19.2027,27.178 C19.4077,27.248 19.6657,27.14 19.9657,26.86 C20.4937,26.309 21.8627,25.02 22.7717,25.383 C23.0577,25.498 23.3987,25.803 23.3987,26.601 C23.3987,27.126 23.5307,27.494 23.7997,27.725 C24.1837,28.052 24.9107,28.143 25.9057,27.987 C26.2517,27.933 26.5767,28.025 26.8407,28.258 C27.6017,28.927 27.6517,30.677 27.6457,31.271 C27.8707,31.531 29.4147,32.834 38.4127,34.066 C38.6877,34.104 38.8787,34.356 38.8407,34.63 C38.8067,34.88 38.5927,35.062 38.3467,35.062" id="Fill-8" fill="#1D2B3C"></path>
            </g>
        </g>
    </g>
</svg>