<svg xmlns="http://www.w3.org/2000/svg" xmlns:xlink="http://www.w3.org/1999/xlink" width="52" height="52" viewBox="0 0 52 52">
    <defs>
        <rect id="a" width="52" height="52" rx="2"/>
    </defs>
    <g fill="none" fill-rule="evenodd">
        <g>
            <use fill="#F3F8FF" xlink:href="#a"/>
            <rect width="51" height="51" x=".5" y=".5" stroke="#448EED" rx="2"/>
        </g>
        <g stroke="#448EED" stroke-linecap="square">
            <path d="M5.09 11.138l1.672 1.287M5.09 11.138l-1.672 1.287M47.458 43.892l-1.288 1.672M47.458 43.892L46.17 42.22M5.09 43.966h41.794M5.09 43.966V11.782"/>
        </g>
        <g transform="matrix(-1 0 0 1 41.01 13.467)">
            <path stroke="#448EED" stroke-linecap="square" d="M.869 30.065l5.03-10.27 6.004-8.35 3.267-7.134 9.718-3.075h11.13"/>
            <circle cx="3.509" cy="24.563" r="1.5" fill="#448EED"/>
            <circle cx="6.521" cy="18.798" r="1.5" fill="#448EED"/>
            <circle cx="11.543" cy="12.208" r="1.5" fill="#448EED"/>
            <circle cx="15.56" cy="4.795" r="1.5" fill="#448EED"/>
            <circle cx="24.598" cy="1.5" r="1.5" fill="#448EED"/>
        </g>
    </g>
</svg>
