<?xml version="1.0" encoding="UTF-8"?>
<svg width="48px" height="48px" viewBox="0 0 48 48" version="1.1" xmlns="http://www.w3.org/2000/svg" xmlns:xlink="http://www.w3.org/1999/xlink">
    <!-- Generator: Sketch 54 (76480) - https://sketchapp.com -->
    <title>Page 1</title>
    <desc>Created with Sketch.</desc>
    <defs>
        <polygon id="path-1" points="0 0.724 47.276 0.724 47.276 47.9997 0 47.9997"></polygon>
    </defs>
    <g id="Page-1" stroke="none" stroke-width="1" fill="none" fill-rule="evenodd">
        <g id="5-4-2-Model-Selection_Advanced-View_Model-Expand_ROC-Cure-Copy" transform="translate(-297.000000, -589.000000)">
            <g id="Page-1" transform="translate(297.000000, 588.000000)">
                <path d="M17.2778,25.6437 C17.2558,25.2317 17.2328,24.8187 17.2098,24.4057 L11.1628,30.4527 L11.1628,32.5917 L17.3218,26.4337 C17.3058,26.1697 17.2928,25.9067 17.2778,25.6437" id="Fill-1" fill="#1D2B3C"></path>
                <path d="M17.7085,31.0128 L11.7055,37.0158 L14.2635,37.0158 L18.1025,33.1778 C17.9385,32.4928 17.8105,31.7678 17.7085,31.0128" id="Fill-3" fill="#1D2B3C"></path>
                <path d="M11.1626,29.0387 L17.1246,23.0767 C17.0786,22.4107 17.0226,21.7527 16.9546,21.1067 L11.1626,26.8997 L11.1626,29.0387 Z" id="Fill-5" fill="#1D2B3C"></path>
                <path d="M21.5747,37.0162 L27.4497,37.0162 L27.4497,31.1592 C26.8397,31.2222 26.2247,31.4032 25.6087,31.7172 C24.1347,32.4662 22.9357,32.5792 22.0477,32.0572 C20.7947,31.3192 20.7187,29.6212 20.7157,29.5492 C20.7187,29.4422 20.9077,22.5372 17.9317,20.8332 C18.1007,22.3802 18.1897,23.9962 18.2757,25.5902 C18.5507,30.6642 18.8197,35.4962 21.5747,37.0162" id="Fill-7" fill="#1D2B3C"></path>
                <path d="M34.687,37.0162 C33.135,34.0022 31.327,32.0632 29.413,31.3902 C29.093,31.2782 28.773,31.2042 28.45,31.1642 L28.45,37.0162 L34.687,37.0162 Z" id="Fill-9" fill="#1D2B3C"></path>
                <g id="Group-13" transform="translate(0.000000, 0.276500)">
                    <mask id="mask-2" fill="white">
                        <use xlink:href="#path-1"></use>
                    </mask>
                    <g id="Clip-12"></g>
                    <path d="M37.3452,38.7397 L10.1622,38.7397 C9.6102,38.7397 9.1622,38.2917 9.1622,37.7397 L9.1622,10.8027 C9.1622,10.2497 9.6102,9.8027 10.1622,9.8027 C10.7152,9.8027 11.1622,10.2497 11.1622,10.8027 L11.1622,13.6607 C11.8622,12.7837 12.7632,12.0147 13.7702,12.0397 C15.0602,12.0877 16.1122,13.3377 16.9862,15.8597 C17.3582,16.9327 17.6072,18.1377 17.7882,19.4087 C21.9402,20.8617 21.7282,28.9107 21.7152,29.2717 C21.7162,29.2717 21.7842,30.4687 22.5582,30.9207 C23.2742,31.3387 24.3672,30.9497 25.1562,30.5487 C25.9202,30.1607 26.6872,29.9337 27.4492,29.8697 L27.4492,14.1217 C26.5182,13.8957 25.8242,13.0617 25.8242,12.0607 C25.8242,10.8857 26.7762,9.9337 27.9492,9.9337 C29.1242,9.9337 30.0762,10.8857 30.0762,12.0607 C30.0762,13.0617 29.3822,13.8957 28.4492,14.1217 L28.4492,29.8837 C28.8832,29.9277 29.3152,30.0197 29.7432,30.1707 C31.9982,30.9637 34.0772,33.2377 35.7972,36.7397 L37.3452,36.7397 C37.8982,36.7397 38.3452,37.1877 38.3452,37.7397 C38.3452,38.2917 37.8982,38.7397 37.3452,38.7397 M43.2772,0.7237 L3.9992,0.7237 C1.7902,0.7237 -0.0008,2.5137 -0.0008,4.7237 L-0.0008,43.9997 C-0.0008,46.2087 1.7902,47.9997 3.9992,47.9997 L43.2772,47.9997 C45.4862,47.9997 47.2772,46.2087 47.2772,43.9997 L47.2772,4.7237 C47.2772,2.5137 45.4862,0.7237 43.2772,0.7237" id="Fill-11" fill="#1D2B3C" mask="url(#mask-2)"></path>
                </g>
                <path d="M11.1626,22.7423 L11.1626,25.4863 L16.2776,20.3703 C13.4146,20.0543 11.8806,21.6243 11.1626,22.7423" id="Fill-14" fill="#1D2B3C"></path>
                <path d="M16.7397,19.4371 C16.5727,18.3691 16.3517,17.3611 16.0407,16.4631 C15.3467,14.4631 14.5277,13.3451 13.7317,13.3151 C12.7907,13.2921 11.7937,14.6271 11.1627,15.7121 L11.1627,21.1861 C12.2507,20.0541 14.0247,19.0241 16.7397,19.4371" id="Fill-16" fill="#1D2B3C"></path>
                <path d="M17.4019,27.7672 L11.1629,34.0062 L11.1629,36.1452 L17.5619,29.7452 C17.4989,29.0962 17.4449,28.4362 17.4019,27.7672" id="Fill-18" fill="#1D2B3C"></path>
                <path d="M18.4106,34.2828 L15.6776,37.0158 L19.9296,37.0158 C19.2596,36.3028 18.7686,35.3718 18.4106,34.2828" id="Fill-20" fill="#1D2B3C"></path>
                <path d="M13.3032096,20.0002047 C14.0168549,20.0230727 14.7511207,20.875286 15.373319,22.3998179 C15.6521427,23.0843327 15.8502779,23.8526968 16,24.6667969 C13.5658956,24.351981 11.9754348,25.1371149 11,26 L11,21.8273562 C11.5657163,21.0002976 12.4595661,19.9834349 13.3032096,20.0002047 L13.3032096,20.0002047 Z M17.5719661,35 C17.9087488,35.7969265 18.3697084,36.4774973 19,37 L15,37 L17.5719661,35 Z M11,35.4681308 L16.8499766,31 C16.8902954,31.479112 16.9409283,31.9517785 17,32.4165672 L11,37 L11,35.4681308 Z M11,29 L11,26.8717061 C11.5607038,26.0053415 12.7610948,24.7868467 15,25.0319417 L11,29 Z M11,32.4322013 L15.9090761,28 C15.927748,28.3027119 15.9456081,28.6054239 15.9642799,28.9074029 C15.9764572,29.0994381 15.9870109,29.2929392 16,29.4857073 L11,34 L11,32.4322013 Z M16,26.48941 L11,31 L11,29.381997 L15.8574304,25 C15.9144582,25.4886536 15.9614223,25.9863843 16,26.48941 L16,26.48941 Z M11,38 L16.6313321,33 C16.7260788,33.6288522 16.8470919,34.232717 17,34.8024321 L13.3986867,38 L11,38 Z M19.3391469,31.4630785 C19.3416684,31.5164679 19.4055474,32.775567 20.4587098,33.3228079 C21.2059256,33.7098807 22.2128598,33.6260891 23.4526161,33.0706915 C23.9703719,32.8378545 24.4864467,32.7036396 25,32.6569239 L25,37 L20.0619878,37 C17.7463753,35.8728913 17.5194369,32.2906136 17.2891364,28.5274053 C17.2168523,27.3461657 17.1420466,26.1471297 17,25 C19.5013658,26.2635482 19.3416684,31.383736 19.3391469,31.4630785 L19.3391469,31.4630785 Z M26.7720058,33.1538199 C28.3063973,33.6145958 29.7558121,34.9394975 31,37 L26,37 L26,33 C26.2589386,33.0273458 26.5154722,33.0772518 26.7720058,33.1538199 L26.7720058,33.1538199 Z M33.1433075,37.4794554 L31.8171476,37.4794554 C30.3444932,34.8169817 28.5634295,33.0881225 26.631588,32.4852265 C26.2640669,32.3704254 25.8939757,32.3004804 25.5230279,32.2670284 L25.5230279,20.2836161 C26.3214653,20.1117946 26.9168666,19.4777275 26.9168666,18.7166949 C26.9168666,17.8233749 26.1012953,17.1003559 25.0946817,17.1003559 C24.0889247,17.1003559 23.2733534,17.8233749 23.2733534,18.7166949 C23.2733534,19.4777275 23.867898,20.1117946 24.6663354,20.2836161 L24.6663354,32.2563846 C24.012679,32.3058023 23.3555959,32.4776238 22.7010829,32.7726095 C22.0260092,33.0774787 21.0887876,33.3732246 20.4753958,33.0554308 C19.8131725,32.7117877 19.7540607,31.8017417 19.753204,31.8017417 C19.764341,31.5280437 19.9459598,25.4078515 16.3898293,24.3039361 C16.2339113,23.33763 16.0205949,22.4215019 15.7019053,21.6049694 C14.9531561,19.6875626 14.0519156,18.7372222 12.9467823,18.7007292 C12.0840929,18.6824826 11.312213,19.267132 10.713385,19.9331306 L10.713385,17.7602723 C10.713385,17.3398417 10.3295867,17 9.85669248,17 C9.38294154,17 9,17.3398417 9,17.7602723 L9,38.2397277 C9,38.659398 9.38294154,39 9.85669248,39 L33.1433075,39 C33.6170585,39 34,38.659398 34,38.2397277 C34,37.8200574 33.6170585,37.4794554 33.1433075,37.4794554 L33.1433075,37.4794554 Z" id="Fill-22" fill="#FFFFFF"></path>
            </g>
        </g>
    </g>
</svg>