<?xml version="1.0" encoding="UTF-8"?>
<svg width="48px" height="48px" viewBox="0 0 48 48" version="1.1" xmlns="http://www.w3.org/2000/svg" xmlns:xlink="http://www.w3.org/1999/xlink">
    <!-- Generator: Sketch 54 (76480) - https://sketchapp.com -->
    <title>Page 1</title>
    <desc>Created with Sketch.</desc>
    <defs>
        <polygon id="path-1" points="0 0.724 47.276 0.724 47.276 47.9997 0 47.9997"></polygon>
    </defs>
    <g id="Page-1" stroke="none" stroke-width="1" fill="none" fill-rule="evenodd">
        <g id="5-4-2-Model-Selection_Advanced-View_Model-Expand_ROC-Cure" transform="translate(-297.000000, -530.000000)">
            <g id="Page-1" transform="translate(297.000000, 529.000000)">
                <path d="M18.8213,30.2096 L15.4863,26.8756 C15.2173,27.2746 14.9663,27.6766 14.7273,28.0786 L17.6853,31.0366 L18.8213,30.2096 Z" id="Fill-1" fill="#1D2B3C"></path>
                <path d="M21.3398,21.028 C20.8398,21.356 20.3548,21.695 19.9018,22.054 L24.0908,26.243 C24.1168,26.269 24.1308,26.301 24.1508,26.332 L25.5928,25.281 L21.3398,21.028 Z" id="Fill-3" fill="#1D2B3C"></path>
                <path d="M16.8672,31.6315 L14.2162,28.9805 C13.9712,29.4325 13.7462,29.8815 13.5392,30.3245 L15.6972,32.4835 L16.8672,31.6315 Z" id="Fill-5" fill="#1D2B3C"></path>
                <path d="M19.6396,29.6139 L21.0546,28.5839 L17.1586,24.6879 C16.7716,25.1339 16.4136,25.5889 16.0746,26.0489 L19.6396,29.6139 Z" id="Fill-7" fill="#1D2B3C"></path>
                <path d="M12.2715,33.5001 C12.0445,34.1831 11.8635,34.8121 11.7155,35.3801 L13.1255,34.3541 L12.2715,33.5001 Z" id="Fill-9" fill="#1D2B3C"></path>
                <path d="M14.8789,33.0792 L13.1019,31.3022 C12.9359,31.6942 12.7789,32.0802 12.6399,32.4542 L13.9439,33.7592 L14.8789,33.0792 Z" id="Fill-11" fill="#1D2B3C"></path>
                <path d="M34.7402,18.6242 L36.0012,17.7072 C35.2232,17.6512 34.4672,17.6212 33.7372,17.6212 L34.7402,18.6242 Z" id="Fill-13" fill="#1D2B3C"></path>
                <path d="M21.873,27.9884 L23.349,26.9144 L19.136,22.7024 C18.678,23.1054 18.242,23.5214 17.834,23.9484 L21.873,27.9884 Z" id="Fill-15" fill="#1D2B3C"></path>
                <g id="Group-19" transform="translate(0.000000, 0.276500)">
                    <mask id="mask-2" fill="white">
                        <use xlink:href="#path-1"></use>
                    </mask>
                    <g id="Clip-18"></g>
                    <path d="M37.3457,38.7397 L10.1627,38.7397 C10.1617,38.7397 10.1597,38.7387 10.1587,38.7387 C10.1207,38.7387 10.0817,38.7367 10.0427,38.7317 C9.9957,38.7257 9.9587,38.7007 9.9157,38.6897 C9.8477,38.6717 9.7817,38.6557 9.7207,38.6247 C9.6637,38.5967 9.6167,38.5597 9.5687,38.5227 C9.5157,38.4827 9.4647,38.4447 9.4207,38.3957 C9.3787,38.3477 9.3497,38.2957 9.3167,38.2407 C9.2837,38.1857 9.2517,38.1327 9.2307,38.0707 C9.2067,38.0077 9.1997,37.9427 9.1907,37.8747 C9.1837,37.8287 9.1627,37.7877 9.1627,37.7397 L9.1627,10.8027 C9.1627,10.2497 9.6107,9.8027 10.1627,9.8027 C10.7157,9.8027 11.1627,10.2497 11.1627,10.8027 L11.1627,30.3617 C14.5447,22.4077 22.3667,13.9157 37.4517,15.5367 C38.0007,15.5947 38.3987,16.0887 38.3397,16.6367 C38.2947,17.0547 38.0017,17.3797 37.6197,17.4877 L11.3707,36.5917 C11.3597,36.6447 11.3517,36.6897 11.3417,36.7397 L37.3457,36.7397 C37.8987,36.7397 38.3457,37.1877 38.3457,37.7397 C38.3457,38.2917 37.8987,38.7397 37.3457,38.7397 M43.2767,0.7237 L3.9997,0.7237 C1.7907,0.7237 -0.0003,2.5137 -0.0003,4.7237 L-0.0003,43.9997 C-0.0003,46.2087 1.7907,47.9997 3.9997,47.9997 L43.2767,47.9997 C45.4857,47.9997 47.2767,46.2087 47.2767,43.9997 L47.2767,4.7237 C47.2767,2.5137 45.4857,0.7237 43.2767,0.7237" id="Fill-17" fill="#1D2B3C" mask="url(#mask-2)"></path>
                </g>
                <path d="M32.6807,19.8976 C32.7257,19.9426 32.7577,19.9946 32.7817,20.0496 L33.9217,19.2196 L32.3577,17.6556 C31.7477,17.6846 31.1567,17.7316 30.5807,17.7976 L32.6807,19.8976 Z" id="Fill-20" fill="#1D2B3C"></path>
                <path d="M28.6602,23.0494 L30.0332,22.0494 L26.5862,18.6024 C25.9752,18.7844 25.3822,18.9834 24.8182,19.2084 L28.6602,23.0494 Z" id="Fill-22" fill="#1D2B3C"></path>
                <path d="M26.4121,24.6857 L27.8421,23.6447 L23.8381,19.6427 C23.2731,19.9047 22.7241,20.1797 22.2071,20.4807 L26.4121,24.6857 Z" id="Fill-24" fill="#1D2B3C"></path>
                <path d="M30.8516,21.4537 L31.9976,20.6207 C31.9906,20.6137 31.9806,20.6117 31.9736,20.6047 L29.3336,17.9647 C28.7706,18.0577 28.2246,18.1697 27.6956,18.2977 L30.8516,21.4537 Z" id="Fill-26" fill="#1D2B3C"></path>
                <path d="M19.1357,22.7028 L23.3487,26.9148 L21.8727,27.9888 L17.8337,23.9488 C18.2417,23.5208 18.6777,23.1058 19.1357,22.7028 M36.0007,17.7068 L34.7397,18.6238 L33.7377,17.6208 C34.4667,17.6208 35.2237,17.6508 36.0007,17.7068 M32.3577,17.6558 L33.9217,19.2198 L32.7817,20.0498 C32.7577,19.9948 32.7257,19.9428 32.6807,19.8978 L30.5807,17.7978 C31.1567,17.7318 31.7477,17.6848 32.3577,17.6558 M29.3337,17.9648 L31.9737,20.6048 C31.9807,20.6118 31.9897,20.6138 31.9967,20.6198 L30.8517,21.4538 L27.6957,18.2978 C28.2247,18.1698 28.7707,18.0578 29.3337,17.9648 M26.5857,18.6018 L30.0327,22.0498 L28.6597,23.0498 L24.8187,19.2078 C25.3817,18.9828 25.9757,18.7848 26.5857,18.6018 M23.8377,19.6418 L27.8417,23.6448 L26.4117,24.6858 L22.2067,20.4808 C22.7237,20.1798 23.2737,19.9048 23.8377,19.6418 M24.0907,26.2428 L19.9017,22.0548 C20.3547,21.6948 20.8397,21.3558 21.3397,21.0278 L25.5927,25.2818 L24.1507,26.3318 C24.1307,26.3018 24.1167,26.2688 24.0907,26.2428 M17.1577,24.6878 L21.0547,28.5838 L19.6397,29.6138 L16.0737,26.0488 C16.4137,25.5888 16.7717,25.1338 17.1577,24.6878 M15.4867,26.8748 L18.8217,30.2098 L17.6857,31.0358 L14.7277,28.0778 C14.9657,27.6768 15.2167,27.2748 15.4867,26.8748 M14.2157,28.9798 L16.8667,31.6318 L15.6977,32.4838 L13.5387,30.3248 C13.7457,29.8818 13.9717,29.4328 14.2157,28.9798 M13.1017,31.3028 L14.8787,33.0788 L13.9447,33.7588 L12.6397,32.4548 C12.7797,32.0798 12.9357,31.6938 13.1017,31.3028 M12.2717,33.4998 L13.1247,34.3548 L11.7157,35.3808 C11.8637,34.8128 12.0447,34.1828 12.2717,33.4998 M37.3457,37.0158 L11.3417,37.0158 C11.3517,36.9658 11.3597,36.9218 11.3707,36.8688 L37.6197,17.7648 C38.0017,17.6558 38.2947,17.3308 38.3397,16.9138 C38.3987,16.3648 38.0007,15.8718 37.4517,15.8128 C22.3667,14.1918 14.5447,22.6838 11.1627,30.6388 L11.1627,11.0788 C11.1627,10.5268 10.7157,10.0788 10.1627,10.0788 C9.6107,10.0788 9.1627,10.5268 9.1627,11.0788 L9.1627,38.0158 C9.1627,38.0638 9.1837,38.1048 9.1907,38.1518 C9.1997,38.2188 9.2067,38.2848 9.2307,38.3478 C9.2517,38.4098 9.2837,38.4618 9.3167,38.5168 C9.3497,38.5718 9.3787,38.6248 9.4207,38.6718 C9.4647,38.7218 9.5157,38.7598 9.5687,38.7998 C9.6167,38.8368 9.6637,38.8738 9.7207,38.9018 C9.7817,38.9318 9.8477,38.9488 9.9157,38.9668 C9.9587,38.9778 9.9957,39.0028 10.0427,39.0088 C10.0817,39.0138 10.1207,39.0148 10.1587,39.0148 C10.1597,39.0148 10.1617,39.0158 10.1627,39.0158 L37.3457,39.0158 C37.8987,39.0158 38.3457,38.5688 38.3457,38.0158 C38.3457,37.4638 37.8987,37.0158 37.3457,37.0158" id="Fill-28" fill="#FFFFFF"></path>
            </g>
        </g>
    </g>
</svg>