<?xml version="1.0" encoding="UTF-8"?>
<svg width="50px" height="50px" viewBox="0 0 50 50" version="1.1" xmlns="http://www.w3.org/2000/svg" xmlns:xlink="http://www.w3.org/1999/xlink">
    <!-- Generator: Sketch 54 (76480) - https://sketchapp.com -->
    <title>Page 1</title>
    <desc>Created with Sketch.</desc>
    <defs>
        <polygon id="path-1" points="0.0004 0.724 49.276 0.724 49.276 50 0.0004 50"></polygon>
    </defs>
    <g id="Page-1" stroke="none" stroke-width="1" fill="none" fill-rule="evenodd">
        <g id="5-4-2-Model-Selection_Advanced-View_Model-Expand_ROC-Cure-Copy-2" transform="translate(-296.000000, -529.000000)">
            <g id="Page-1" transform="translate(296.000000, 528.000000)">
                <g id="Group-3" transform="translate(0.000000, 0.276400)">
                    <mask id="mask-2" fill="white">
                        <use xlink:href="#path-1"></use>
                    </mask>
                    <g id="Clip-2"></g>
                    <path d="M47.2764,45 C47.2764,46.654 45.9304,48 44.2764,48 L5.0004,48 C3.3454,48 2.0004,46.654 2.0004,45 L2.0004,5.724 C2.0004,4.069 3.3454,2.724 5.0004,2.724 L44.2764,2.724 C45.9304,2.724 47.2764,4.069 47.2764,5.724 L47.2764,45 Z M44.2764,0.724 L5.0004,0.724 C2.2434,0.724 0.0004,2.967 0.0004,5.724 L0.0004,45 C0.0004,47.757 2.2434,50 5.0004,50 L44.2764,50 C47.0334,50 49.2764,47.757 49.2764,45 L49.2764,5.724 C49.2764,2.967 47.0334,0.724 44.2764,0.724 L44.2764,0.724 Z" id="Fill-1" fill="#1D2B3C" mask="url(#mask-2)"></path>
                </g>
                <path d="M20.1357,23.7027 L24.3487,27.9147 L22.8727,28.9887 L18.8337,24.9487 C19.2417,24.5207 19.6777,24.1057 20.1357,23.7027 M37.0007,18.7067 L35.7397,19.6237 L34.7377,18.6207 C35.4667,18.6207 36.2237,18.6517 37.0007,18.7067 M33.3577,18.6557 L34.9217,20.2197 L33.7817,21.0497 C33.7577,20.9947 33.7257,20.9427 33.6807,20.8977 L31.5807,18.7977 C32.1567,18.7317 32.7477,18.6847 33.3577,18.6557 M30.3337,18.9647 L32.9737,21.6047 C32.9807,21.6117 32.9897,21.6137 32.9967,21.6197 L31.8517,22.4537 L28.6957,19.2977 C29.2247,19.1697 29.7707,19.0587 30.3337,18.9647 M27.5857,19.6017 L31.0327,23.0497 L29.6597,24.0497 L25.8187,20.2077 C26.3817,19.9827 26.9757,19.7847 27.5857,19.6017 M24.8377,20.6417 L28.8417,24.6447 L27.4117,25.6857 L23.2067,21.4807 C23.7237,21.1797 24.2737,20.9047 24.8377,20.6417 M25.0907,27.2427 L20.9017,23.0547 C21.3547,22.6947 21.8397,22.3557 22.3397,22.0277 L26.5927,26.2817 L25.1507,27.3317 C25.1307,27.3017 25.1167,27.2687 25.0907,27.2427 M18.1577,25.6877 L22.0547,29.5837 L20.6397,30.6147 L17.0737,27.0487 C17.4137,26.5887 17.7717,26.1337 18.1577,25.6877 M16.4867,27.8747 L19.8217,31.2097 L18.6857,32.0357 L15.7277,29.0777 C15.9657,28.6767 16.2167,28.2757 16.4867,27.8747 M15.2157,29.9807 L17.8667,32.6317 L16.6977,33.4837 L14.5387,31.3247 C14.7457,30.8817 14.9717,30.4327 15.2157,29.9807 M14.1017,32.3027 L15.8787,34.0787 L14.9447,34.7587 L13.6397,33.4547 C13.7797,33.0797 13.9357,32.6937 14.1017,32.3027 M13.2717,34.4997 L14.1247,35.3547 L12.7157,36.3807 C12.8637,35.8127 13.0447,35.1827 13.2717,34.4997 M38.3457,38.0157 L12.3417,38.0157 C12.3517,37.9657 12.3597,37.9217 12.3707,37.8687 L38.6197,18.7647 C39.0017,18.6557 39.2947,18.3307 39.3397,17.9137 C39.3987,17.3647 39.0007,16.8717 38.4517,16.8127 C23.3667,15.1927 15.5447,23.6837 12.1627,31.6387 L12.1627,12.0787 C12.1627,11.5267 11.7157,11.0787 11.1627,11.0787 C10.6107,11.0787 10.1627,11.5267 10.1627,12.0787 L10.1627,39.0157 C10.1627,39.0637 10.1837,39.1047 10.1907,39.1517 C10.1997,39.2187 10.2067,39.2847 10.2307,39.3477 C10.2517,39.4097 10.2837,39.4617 10.3167,39.5167 C10.3497,39.5717 10.3787,39.6247 10.4207,39.6717 C10.4647,39.7217 10.5157,39.7597 10.5687,39.7997 C10.6167,39.8367 10.6637,39.8737 10.7207,39.9017 C10.7817,39.9327 10.8477,39.9487 10.9157,39.9667 C10.9587,39.9777 10.9957,40.0027 11.0427,40.0087 C11.0817,40.0137 11.1207,40.0147 11.1587,40.0147 C11.1597,40.0147 11.1617,40.0157 11.1627,40.0157 L38.3457,40.0157 C38.8987,40.0157 39.3457,39.5687 39.3457,39.0157 C39.3457,38.4637 38.8987,38.0157 38.3457,38.0157" id="Fill-4" fill="#1D2B3C"></path>
            </g>
        </g>
    </g>
</svg>