<?xml version="1.0" encoding="UTF-8"?>
<svg width="50px" height="50px" viewBox="0 0 50 50" version="1.1" xmlns="http://www.w3.org/2000/svg" xmlns:xlink="http://www.w3.org/1999/xlink">
    <!-- Generator: Sketch 54 (76480) - https://sketchapp.com -->
    <title>Page 1</title>
    <desc>Created with Sketch.</desc>
    <defs>
        <polygon id="path-1" points="0.0003 0.724 49.277 0.724 49.277 50 0.0003 50"></polygon>
    </defs>
    <g id="Page-1" stroke="none" stroke-width="1" fill="none" fill-rule="evenodd">
        <g id="5-4-2-Model-Selection_Advanced-View_Model-Expand_ROC-Cure" transform="translate(-296.000000, -588.000000)">
            <g id="Page-1" transform="translate(296.000000, 587.000000)">
                <g id="Group-3" transform="translate(0.000000, 0.276400)">
                    <mask id="mask-2" fill="white">
                        <use xlink:href="#path-1"></use>
                    </mask>
                    <g id="Clip-2"></g>
                    <path d="M47.2773,45 C47.2773,46.654 45.9313,48 44.2773,48 L5.0003,48 C3.3453,48 2.0003,46.654 2.0003,45 L2.0003,5.724 C2.0003,4.069 3.3453,2.724 5.0003,2.724 L44.2773,2.724 C45.9313,2.724 47.2773,4.069 47.2773,5.724 L47.2773,45 Z M44.2773,0.724 L5.0003,0.724 C2.2433,0.724 0.0003,2.967 0.0003,5.724 L0.0003,45 C0.0003,47.757 2.2433,50 5.0003,50 L44.2773,50 C47.0343,50 49.2773,47.757 49.2773,45 L49.2773,5.724 C49.2773,2.967 47.0343,0.724 44.2773,0.724 L44.2773,0.724 Z" id="Fill-1" fill="#1D2B3C" mask="url(#mask-2)"></path>
                </g>
                <path d="M14.7324,14.315 C15.5284,14.345 16.3474,15.463 17.0414,17.463 C17.3524,18.361 17.5734,19.369 17.7404,20.438 C15.0254,20.024 13.2514,21.055 12.1634,22.186 L12.1634,16.712 C12.7944,15.627 13.7914,14.293 14.7324,14.315 L14.7324,14.315 Z M19.4114,35.283 C19.7694,36.372 20.2594,37.302 20.9294,38.016 L16.6774,38.016 L19.4114,35.283 Z M12.1634,35.006 L18.4024,28.767 C18.4454,29.436 18.4994,30.096 18.5624,30.745 L12.1634,37.145 L12.1634,35.006 Z M12.1634,26.486 L12.1634,23.742 C12.8804,22.625 14.4154,21.054 17.2784,21.37 L12.1634,26.486 Z M12.1634,31.453 L18.2104,25.406 C18.2334,25.819 18.2554,26.232 18.2784,26.644 C18.2934,26.906 18.3064,27.17 18.3224,27.433 L12.1634,33.592 L12.1634,31.453 Z M18.1254,24.076 L12.1634,30.039 L12.1634,27.9 L17.9554,22.107 C18.0234,22.753 18.0794,23.411 18.1254,24.076 L18.1254,24.076 Z M12.7064,38.016 L18.7094,32.013 C18.8104,32.768 18.9394,33.493 19.1024,34.178 L15.2634,38.016 L12.7064,38.016 Z M21.7154,30.549 C21.7184,30.621 21.7944,32.319 23.0474,33.057 C23.9364,33.579 25.1344,33.466 26.6094,32.717 C27.2254,32.403 27.8394,32.222 28.4504,32.159 L28.4504,38.016 L22.5754,38.016 C19.8204,36.496 19.5504,31.665 19.2764,26.59 C19.1904,24.997 19.1014,23.38 18.9324,21.833 C21.9084,23.537 21.7184,30.442 21.7154,30.549 L21.7154,30.549 Z M30.4134,32.39 C32.3274,33.064 34.1354,35.002 35.6874,38.016 L29.4504,38.016 L29.4504,32.165 C29.7734,32.205 30.0934,32.278 30.4134,32.39 L30.4134,32.39 Z M38.3454,38.016 L36.7974,38.016 C35.0784,34.515 32.9994,32.24 30.7444,31.447 C30.3154,31.296 29.8834,31.204 29.4504,31.16 L29.4504,15.398 C30.3824,15.172 31.0774,14.338 31.0774,13.337 C31.0774,12.162 30.1254,11.211 28.9504,11.211 C27.7764,11.211 26.8244,12.162 26.8244,13.337 C26.8244,14.338 27.5184,15.172 28.4504,15.398 L28.4504,31.146 C27.6874,31.211 26.9204,31.437 26.1564,31.825 C25.3684,32.226 24.2744,32.615 23.5584,32.197 C22.7854,31.745 22.7164,30.549 22.7154,30.548 C22.7284,30.188 22.9404,22.138 18.7894,20.686 C18.6074,19.415 18.3584,18.21 17.9864,17.136 C17.1124,14.614 16.0604,13.364 14.7704,13.316 C13.7634,13.292 12.8624,14.061 12.1634,14.937 L12.1634,12.079 C12.1634,11.526 11.7154,11.079 11.1634,11.079 C10.6104,11.079 10.1634,11.526 10.1634,12.079 L10.1634,39.016 C10.1634,39.568 10.6104,40.016 11.1634,40.016 L38.3454,40.016 C38.8984,40.016 39.3454,39.568 39.3454,39.016 C39.3454,38.464 38.8984,38.016 38.3454,38.016 L38.3454,38.016 Z" id="Fill-4" fill="#1D2B3C"></path>
            </g>
        </g>
    </g>
</svg>