<?xml version="1.0" encoding="UTF-8"?>
<svg width="50px" height="50px" viewBox="0 0 50 50" version="1.1" xmlns="http://www.w3.org/2000/svg" xmlns:xlink="http://www.w3.org/1999/xlink">
    <!-- Generator: Sketch 54 (76480) - https://sketchapp.com -->
    <title>Page 1</title>
    <desc>Created with Sketch.</desc>
    <defs>
        <polygon id="path-1" points="0 0.724 49.276 0.724 49.276 49.9996 0 49.9996"></polygon>
    </defs>
    <g id="Page-1" stroke="none" stroke-width="1" fill="none" fill-rule="evenodd">
        <g id="5-4-2-Model-Selection_Advanced-View_Model-Expand_ROC-Cure-Copy-2" transform="translate(-466.000000, -588.000000)">
            <g id="Page-1" transform="translate(466.000000, 587.000000)">
                <g id="Group-3" transform="translate(0.000000, 0.276400)">
                    <mask id="mask-2" fill="white">
                        <use xlink:href="#path-1"></use>
                    </mask>
                    <g id="Clip-2"></g>
                    <path d="M5,2.7236 C3.346,2.7236 2,4.0696 2,5.7236 L2,44.9996 C2,46.6546 3.346,47.9996 5,47.9996 L44.276,47.9996 C45.931,47.9996 47.276,46.6546 47.276,44.9996 L47.276,5.7236 C47.276,4.0696 45.931,2.7236 44.276,2.7236 L5,2.7236 Z M44.276,49.9996 L5,49.9996 C2.243,49.9996 0,47.7566 0,44.9996 L0,5.7236 C0,2.9666 2.243,0.7236 5,0.7236 L44.276,0.7236 C47.033,0.7236 49.276,2.9666 49.276,5.7236 L49.276,44.9996 C49.276,47.7566 47.033,49.9996 44.276,49.9996 L44.276,49.9996 Z" id="Fill-1" fill="#1D2B3C" mask="url(#mask-2)"></path>
                </g>
                <path d="M38.3457,40.0161 L11.1627,40.0161 C10.6107,40.0161 10.1627,39.5681 10.1627,39.0161 L10.1627,12.0791 C10.1627,11.5261 10.6107,11.0791 11.1627,11.0791 C11.7157,11.0791 12.1627,11.5261 12.1627,12.0791 L12.1627,38.0161 L38.3457,38.0161 C38.8987,38.0161 39.3457,38.4641 39.3457,39.0161 C39.3457,39.5681 38.8987,40.0161 38.3457,40.0161" id="Fill-4" fill="#1D2B3C"></path>
                <path d="M34.6172,39.5161 C34.4002,39.5161 34.2012,39.3751 34.1382,39.1571 L32.0562,32.0831 L27.6232,29.9121 L24.4932,23.7661 L19.2402,20.4681 L11.0822,19.1201 C10.8092,19.0751 10.6252,18.8181 10.6702,18.5451 C10.7152,18.2731 10.9722,18.0831 11.2442,18.1341 L19.6862,19.5671 L25.2592,23.0661 L28.3632,29.1621 L32.8922,31.3791 L35.0962,38.8751 C35.1752,39.1401 35.0232,39.4181 34.7582,39.4951 C34.7112,39.5101 34.6642,39.5161 34.6172,39.5161" id="Fill-6" fill="#1D2B3C"></path>
                <path d="M21.0898,19.8643 C21.0898,20.8113 20.3218,21.5793 19.3748,21.5793 C18.4278,21.5793 17.6598,20.8113 17.6598,19.8643 C17.6598,18.9173 18.4278,18.1503 19.3748,18.1503 C20.3218,18.1503 21.0898,18.9173 21.0898,19.8643" id="Fill-8" fill="#1D2B3C"></path>
                <path d="M26.5449,23.2901 C26.5449,24.2371 25.7769,25.0051 24.8299,25.0051 C23.8829,25.0051 23.1149,24.2371 23.1149,23.2901 C23.1149,22.3431 23.8829,21.5761 24.8299,21.5761 C25.7769,21.5761 26.5449,22.3431 26.5449,23.2901" id="Fill-10" fill="#1D2B3C"></path>
                <path d="M29.5049,29.3091 C29.5049,30.2561 28.7369,31.0231 27.7909,31.0231 C26.8439,31.0231 26.0759,30.2561 26.0759,29.3091 C26.0759,28.3621 26.8439,27.5941 27.7909,27.5941 C28.7369,27.5941 29.5049,28.3621 29.5049,29.3091" id="Fill-12" fill="#1D2B3C"></path>
                <path d="M33.9941,31.5533 C33.9941,32.5003 33.2261,33.2673 32.2791,33.2673 C31.3321,33.2673 30.5641,32.5003 30.5641,31.5533 C30.5641,30.6063 31.3321,29.8383 32.2791,29.8383 C33.2261,29.8383 33.9941,30.6063 33.9941,31.5533" id="Fill-14" fill="#1D2B3C"></path>
            </g>
        </g>
    </g>
</svg>