<?xml version="1.0" encoding="UTF-8"?>
<svg width="20px" height="20px" viewBox="0 0 20 20" version="1.1" xmlns="http://www.w3.org/2000/svg" xmlns:xlink="http://www.w3.org/1999/xlink">
    <!-- Generator: Sketch 43.2 (39069) - http://www.bohemiancoding.com/sketch -->
    <title>iconEdit</title>
    <desc>Created with Sketch.</desc>
    <defs>
        <path d="M5.86063384,4.85592848 L10.8606338,4.85592848 L10.8606338,14.8473983 C10.8606338,15.9566789 9.96673404,16.8559285 8.85575234,16.8559285 L7.86551534,16.8559285 C6.75824986,16.8559285 5.86063384,15.9539781 5.86063384,14.8473983 L5.86063384,4.85592848 Z M8.36063384,-0.134660802 L10.8606338,3.8653392 L5.86063384,3.8653392 L8.36063384,-0.134660802 Z" id="path-1"></path>
    </defs>
    <g id="DataPreviewV3-2" stroke="none" stroke-width="1" fill="none" fill-rule="evenodd">
        <g id="iconEdit">
            <g transform="translate(1.000000, 1.000000)" id="Group-2">
                <g>
                    <g id="Combined-Shape" transform="translate(8.360634, 8.360634) scale(-1, -1) rotate(45.000000) translate(-8.360634, -8.360634) ">
                        <use fill="#50647A" fill-rule="evenodd" xlink:href="#path-1"></use>
                        <path stroke="#50647A" stroke-width="1" d="M6.36063384,5.35592848 L10.3606338,5.35592848 L10.3606338,14.8473983 C10.3606338,15.6821703 9.68896068,16.3559285 8.85575234,16.3559285 L7.86551534,16.3559285 C7.03563034,16.3559285 6.36063384,15.6790755 6.36063384,14.8473983 L6.36063384,5.35592848 Z M8.36063384,0.808737311 L9.95851002,3.3653392 L6.76275766,3.3653392 L8.36063384,0.808737311 Z"></path>
                    </g>
                    <path d="M6.5,8.5 L10.7426407,4.25735931" id="Line" stroke="#6E8AA8" stroke-linecap="square"></path>
                    <path d="M3.5,16.5 L17.5,16.5" id="Line" stroke="#50647A" stroke-linecap="square"></path>
                </g>
            </g>
        </g>
    </g>
</svg>