<?xml version="1.0" encoding="UTF-8" standalone="no"?>
<svg width="99px" height="79px" viewBox="0 0 99 79" version="1.1" xmlns="http://www.w3.org/2000/svg" xmlns:xlink="http://www.w3.org/1999/xlink">
    <!-- Generator: Sketch 50.2 (55047) - http://www.bohemiancoding.com/sketch -->
    <title>icon_automatic_modeling</title>
    <desc>Created with Sketch.</desc>
    <defs>
        <linearGradient x1="50%" y1="0%" x2="50%" y2="100%" id="linearGradient-1">
            <stop stop-color="#FFFFFF" offset="0%"></stop>
            <stop stop-color="#F1F3F5" offset="100%"></stop>
        </linearGradient>
        <path d="M4.94465594,24.8702521 C7.19666629,10.7676517 19.2507195,0 33.7828876,0 C48.4231239,0 60.5482514,10.928394 62.6697312,25.1854235 C64.1788875,30.4771823 66.5508399,39.9828041 66.5508399,47.454854 C66.5508399,58.4129525 61.4493521,58.6622236 61.4493521,58.6622236 C61.4493521,58.6622236 48.9687991,60.7035749 33.5727293,60.7035749 C18.1766595,60.7035749 6.12271443,58.6622236 6.12271443,58.6622236 C6.12271443,58.6622236 0.594618701,57.6152905 0.594618701,47.454854 C0.594618701,40.319145 3.32124164,30.2393269 4.94465446,24.8702614 Z" id="path-2"></path>
        <filter x="-15.9%" y="-12.4%" width="131.8%" height="134.6%" filterUnits="objectBoundingBox" id="filter-3">
            <feOffset dx="0" dy="3" in="SourceAlpha" result="shadowOffsetOuter1"></feOffset>
            <feGaussianBlur stdDeviation="3" in="shadowOffsetOuter1" result="shadowBlurOuter1"></feGaussianBlur>
            <feColorMatrix values="0 0 0 0 0   0 0 0 0 0   0 0 0 0 0  0 0 0 0.3 0" type="matrix" in="shadowBlurOuter1"></feColorMatrix>
        </filter>
    </defs>
    <g id="Page-1" stroke="none" stroke-width="1" fill="none" fill-rule="evenodd">
        <g id="5-1-1modeling" transform="translate(-330.000000, -231.000000)">
            <g id="icon_automatic_modeling" transform="translate(330.600000, 231.000000)">
                <g id="Group-12">
                    <rect id="Rectangle-4" fill="#445167" x="0" y="0" width="10.8" height="10.8" rx="1.2"></rect>
                    <rect id="Rectangle-4-Copy-3" fill="#445167" x="12" y="0" width="39.6" height="10.8" rx="1.2"></rect>
                    <rect id="Rectangle-4-Copy-4" fill="#C4CBD7" x="12" y="14.4" width="39.6" height="10.8" rx="1.2"></rect>
                    <rect id="Rectangle-4-Copy-5" fill="#445167" x="12" y="29.4" width="39.6" height="10.8" rx="1.2"></rect>
                    <rect id="Rectangle-4-Copy" stroke="#445167" stroke-width="1.2" fill="#FFFFFF" x="0.6" y="15" width="9.6" height="9.6" rx="1.2"></rect>
                    <rect id="Rectangle-4-Copy-2" stroke="#445167" stroke-width="1.2" fill="#FFFFFF" x="0.6" y="30" width="9.6" height="9.6" rx="1.2"></rect>
                    <path d="M2.48781166,35.0118213 C2.36632358,35.1448051 2.37307292,35.4107726 2.49456099,35.5402568 L3.97604056,37.0975666 C4.1009033,37.2305503 4.35062878,37.2340499 4.47886619,37.1080653 L4.715093,36.8735939 L5.22466798,36.3661559 L7.70167481,33.9164551 C7.82991222,33.7904705 7.83328689,33.5315021 7.70842415,33.4020179 L7.42157731,33.0975551 C7.29671457,32.9680709 7.04698908,32.9680709 6.92212634,33.0940555 L4.49911421,35.6032491 C4.37425146,35.7327332 4.12452598,35.7292337 4.00303791,35.5997495 L3.19649208,34.7563525 C3.07500401,34.6233687 2.83202786,34.6268683 2.71053979,34.7633516 L2.48781166,35.0118213 L2.48781166,35.0118213 Z" id="Shape-Copy-4" fill="#1D2B3C"></path>
                    <path d="M2.48781166,20.0118213 C2.36632358,20.1448051 2.37307292,20.4107726 2.49456099,20.5402568 L3.97604056,22.0975666 C4.1009033,22.2305503 4.35062878,22.2340499 4.47886619,22.1080653 L4.715093,21.8735939 L5.22466798,21.3661559 L7.70167481,18.9164551 C7.82991222,18.7904705 7.83328689,18.5315021 7.70842415,18.4020179 L7.42157731,18.0975551 C7.29671457,17.9680709 7.04698908,17.9680709 6.92212634,18.0940555 L4.49911421,20.6032491 C4.37425146,20.7327332 4.12452598,20.7292337 4.00303791,20.5997495 L3.19649208,19.7563525 C3.07500401,19.6233687 2.83202786,19.6268683 2.71053979,19.7633516 L2.48781166,20.0118213 L2.48781166,20.0118213 Z" id="Shape-Copy-5" fill="#1D2B3C"></path>
                    <path d="M2.48781166,5.61182129 C2.36632358,5.74480505 2.37307292,6.01077257 2.49456099,6.14025676 L3.97604056,7.69756656 C4.1009033,7.83055032 4.35062878,7.8340499 4.47886619,7.70806528 L4.715093,7.47359392 L5.22466798,6.96615589 L7.70167481,4.51645507 C7.82991222,4.39047046 7.83328689,4.13150208 7.70842415,4.0020179 L7.42157731,3.69755508 C7.29671457,3.56807089 7.04698908,3.56807089 6.92212634,3.69405551 L4.49911421,6.20324906 C4.37425146,6.33273325 4.12452598,6.32923368 4.00303791,6.19974949 L3.19649208,5.35635249 C3.07500401,5.22336873 2.83202786,5.22686831 2.71053979,5.36335164 L2.48781166,5.61182129 L2.48781166,5.61182129 Z" id="Shape-Copy-6" fill="#FFFFFF"></path>
                </g>
                <g id="Mr.OneLogoBlue" transform="translate(25.800000, 9.600000)">
                    <g id="Mr.One-Copy">
                        <g id="VDSLogoSmall">
                            <g id="Combined-Shape">
                                <use fill="black" fill-opacity="1" filter="url(#filter-3)" xlink:href="#path-2"></use>
                                <use fill="url(#linearGradient-1)" fill-rule="evenodd" xlink:href="#path-2"></use>
                            </g>
                            <path d="M12.0205553,25.6514451 C12.0205553,25.6514451 21.804761,19.8620117 34.191178,19.8620116 C46.577595,19.8620116 56.3618007,25.6514451 56.3618007,25.6514451 L56.3618007,44.3817443 C56.3618007,44.3817443 45.2764894,42.226184 34.191178,42.226184 C23.1058666,42.226184 12.0205553,44.3817443 12.0205553,44.3817443 L12.0205553,25.6514451 Z" id="Rectangle-126" fill="#1D2B3C"></path>
                            <path d="M22.0899067,37.5118286 C24.2792323,37.5118286 26.0540314,35.6243965 26.0540314,33.296131 C26.0540314,30.9678656 24.2792323,29.0804335 22.0899067,29.0804335 C19.9005811,29.0804335 18.125782,30.9678656 18.125782,33.296131 C18.125782,35.6243965 19.9005811,37.5118286 22.0899067,37.5118286 Z" id="leftEye" fill="#31C4E9"></path>
                            <path d="M46.9475795,37.5118286 C49.1369051,37.5118286 50.9117042,35.6243965 50.9117042,33.296131 C50.9117042,30.9678656 49.1369051,29.0804335 46.9475795,29.0804335 C44.7582539,29.0804335 42.9834548,30.9678656 42.9834548,33.296131 C42.9834548,35.6243965 44.7582539,37.5118286 46.9475795,37.5118286 Z" id="rightEye" fill="#31C4E9"></path>
                        </g>
                    </g>
                </g>
            </g>
        </g>
    </g>
</svg>