<svg xmlns="http://www.w3.org/2000/svg" xmlns:xlink="http://www.w3.org/1999/xlink" width="53" height="53" viewBox="0 0 53 53">
    <defs>
        <rect id="a" width="52" height="52" x=".001" y=".942" rx="2"/>
    </defs>
    <g fill="none" fill-rule="evenodd">
        <use fill="#F3F8FF" xlink:href="#a"/>
        <rect width="51" height="51" x=".501" y="1.442" stroke="#448EED" rx="2"/>
        <g stroke="#448EED" stroke-linecap="square">
            <path d="M5.09 11.064l1.672 1.287M5.09 11.064L3.418 12.35"/>
        </g>
        <g stroke="#448EED" stroke-linecap="square">
            <path d="M47.458 43.817L46.17 45.49M47.458 43.817l-1.288-1.671"/>
        </g>
        <path stroke="#448EED" stroke-linecap="square" d="M5.09 43.892h41.794M5.545 17.536s.441 3.802 1.325 5.08c1.073 1.552 2.676.807 3.361 3.16 1.25 4.291 2.58.014 3.238 1.123.875 1.477.43 5.24 1.243 6.515.666 1.04 2.44.573 2.908 1.427.826 1.506 0 4.73 0 4.73s3.543.73 5.202 1.907c.932.66 7.292.374 12.199.823 4.536.416 7.68 1.593 7.68 1.593M5.09 43.892V11.707"/>
        <circle cx="13" cy="28" r="3" fill="#448EED"/>
    </g>
</svg>
