<svg xmlns="http://www.w3.org/2000/svg" xmlns:xlink="http://www.w3.org/1999/xlink" width="52" height="52" viewBox="0 0 52 52">
    <defs>
        <rect id="a" width="51.019" height="51.019" x=".001" y=".924" rx="2"/>
    </defs>
    <g fill="none" fill-rule="evenodd">
        <use fill="#FFF" xlink:href="#a"/>
        <rect width="50.019" height="50.019" x=".501" y="1.424" stroke="#BFDBFF" rx="2"/>
        <g stroke="#448EED" stroke-linecap="square">
            <path d="M4.994 10.855l1.64 1.263M4.994 10.855l-1.64 1.263"/>
        </g>
        <g stroke="#448EED" stroke-linecap="square">
            <path d="M46.562 42.99L45.3 44.63M46.562 42.99L45.3 41.35"/>
        </g>
        <path stroke="#448EED" stroke-linecap="square" d="M4.994 43.064H46M5.44 17.205s.433 3.73 1.3 4.984c1.053 1.523 2.626.792 3.298 3.101 1.226 4.21 2.532.014 3.177 1.101.859 1.45.421 5.142 1.22 6.392.652 1.022 2.394.562 2.853 1.4.81 1.478 0 4.64 0 4.64s3.476.718 5.103 1.872c.915.649 7.155.367 11.97.808 4.45.408 7.535 1.563 7.535 1.563M4.994 43.064V11.486"/>
        <circle cx="12.755" cy="27.472" r="2.943" fill="#448EED"/>
    </g>
</svg>
