<?xml version="1.0" encoding="UTF-8"?>
<svg width="56px" height="56px" viewBox="0 0 56 56" version="1.1" xmlns="http://www.w3.org/2000/svg" xmlns:xlink="http://www.w3.org/1999/xlink">
    <!-- Generator: Sketch 47.1 (45422) - http://www.bohemiancoding.com/sketch -->
    <title>iconMR-FitPlot-Selected</title>
    <desc>Created with Sketch.</desc>
    <defs>
        <rect id="path-1" x="0.716464207" y="0" width="52" height="52" rx="2"></rect>
    </defs>
    <g id="20171114-Regression-AdvanceView2" stroke="none" stroke-width="1" fill="none" fill-rule="evenodd">
        <g id="iconMR-FitPlot-Selected">
            <g id="iconROCCurve-Selected" transform="translate(2.000000, 2.000000)">
                <g id="Rectangle-7-Copy-3">
                    <use fill="#4390FF" fill-rule="evenodd" xlink:href="#path-1"></use>
                    <rect stroke="#448EED" stroke-width="1" x="1.21646421" y="0.5" width="51" height="51" rx="2"></rect>
                </g>
                <g id="ROCCurve" transform="translate(4.239338, 7.010067)" stroke-linecap="square" stroke="#FFFFFF">
                    <g id="Arrow">
                        <path d="M2.08968727,0.375629192 L3.76143708,1.87814596" id="Line"></path>
                        <path d="M0.417937454,0.375629192 L2.08968727,1.87814596" id="Line-Copy-2" transform="translate(1.253812, 1.126888) scale(-1, 1) translate(-1.253812, -1.126888) "></path>
                    </g>
                    <g id="Arrow-Copy" transform="translate(43.492504, 39.077330) rotate(90.000000) translate(-43.492504, -39.077330) translate(40.992504, 37.577330)">
                        <path d="M2.08968727,0.375629192 L3.76143708,1.87814596" id="Line"></path>
                        <path d="M0.417937454,0.375629192 L2.08968727,1.87814596" id="Line-Copy-2" transform="translate(1.253812, 1.126888) scale(-1, 1) translate(-1.253812, -1.126888) "></path>
                    </g>
                    <path d="M2.08968727,38.6898067 L43.8834327,38.6898067" id="Line"></path>
                    <path d="M2.08968727,38.6898067 L2.08968727,1.12688757" id="Line-Copy"></path>
                </g>
                <path d="M6.66855469,45.5629883 L45.4447266,11.628418" id="Line-4" stroke="#FFFFFF" stroke-linecap="square"></path>
                <polyline id="Path-4" stroke="#FFFFFF" stroke-width="2" stroke-linecap="round" stroke-linejoin="round" stroke-dasharray="1,7" points="10 39.6230469 15.3484375 37.109375 20.696875 27.0546875 23.3710938 33.3388672 35.4050781 20.7705078 23.3710938 24.5410156 30.0566406 27.0546875 23.3710938 39.6230469 38.0792969 24.5410156 43.4277344 17"></polyline>
            </g>
        </g>
    </g>
</svg>