<svg xmlns="http://www.w3.org/2000/svg" width="276" height="255" viewBox="0 0 276 255">
    <g fill="none" fill-rule="evenodd">
        <path fill="#FFF" d="M33.9 13.872h200v190h-200z"/>
        <path stroke="#D8D8D8" stroke-linecap="square" d="M34.5 84.972h199.388M34.5 106.092h199.388M34.5 42.733h199.388M34.5 63.853h199.388M34.5 127.642h199.388M34.5 148.762h199.388M34.5 169.881h199.388M34.5 191h199.388"/>
        <path stroke="#4A4A4A" stroke-linecap="square" d="M34.5 212.12h199.388"/>
        <path stroke="#D8D8D8" stroke-linecap="square" d="M34.117 22.476h199.387M62.137 211.258v-191.8M89.793 211.258v-191.8M117.45 211.258v-191.8M145.105 211.258v-191.8M172.761 211.258v-191.8M200.417 211.258v-191.8M228.073 211.258v-191.8"/>
        <text fill="#4A4A4A" font-family="ArialMT, Arial" font-size="14" transform="translate(.333)">
            <tspan x="6.177" y="114.571">0</tspan>
        </text>
        <text fill="#4A4A4A" font-family="ArialMT, Arial" font-size="14" transform="translate(.333)">
            <tspan x="0" y="135.436">-0.5</tspan>
        </text>
        <text fill="#4A4A4A" font-family="ArialMT, Arial" font-size="14" transform="translate(.333)">
            <tspan x=".589" y="156.3">-1.0</tspan>
        </text>
        <text fill="#4A4A4A" font-family="ArialMT, Arial" font-size="14" transform="translate(.333)">
            <tspan x=".589" y="177.164">-1.5</tspan>
        </text>
        <text fill="#4A4A4A" font-family="ArialMT, Arial" font-size="14" transform="translate(.333)">
            <tspan x=".589" y="198.028">-2.0</tspan>
        </text>
        <text fill="#4A4A4A" font-family="ArialMT, Arial" font-size="14" transform="translate(.333)">
            <tspan x="6.177" y="31.114">2.0</tspan>
        </text>
        <text fill="#4A4A4A" font-family="ArialMT, Arial" font-size="14" transform="translate(.333)">
            <tspan x="6.177" y="51.978">1.5</tspan>
        </text>
        <text fill="#4A4A4A" font-family="ArialMT, Arial" font-size="14" transform="translate(.333)">
            <tspan x="6.177" y="72.843">1.0</tspan>
        </text>
        <text fill="#4A4A4A" font-family="ArialMT, Arial" font-size="14" transform="translate(.333)">
            <tspan x="6.177" y="93.707">0.5</tspan>
        </text>
        <path stroke="#9B9B9B" stroke-dasharray="5" stroke-linecap="square" d="M35.189 105.899h200.154"/>
        <path stroke="#4A4A4A" stroke-linecap="square" d="M34.481 211.258v-191.8"/>
        <text fill="#4A4A4A" font-family="ArialMT, Arial" font-size="14" transform="translate(.333)">
            <tspan x="99.975" y="251.575">Predicted Target Value</tspan>
        </text>
        <text fill="#4A4A4A" font-family="ArialMT, Arial" font-size="14" transform="translate(.333)">
            <tspan x="20.294" y="13.202">Residual</tspan>
        </text>
        <text fill="#4A4A4A" font-family="ArialMT, Arial" font-size="14" transform="translate(.333)">
            <tspan x="30.867" y="227.35">100</tspan>
        </text>
        <text fill="#4A4A4A" font-family="ArialMT, Arial" font-size="14" transform="translate(.333)">
            <tspan x="58.575" y="227.35">200</tspan>
        </text>
        <text fill="#4A4A4A" font-family="ArialMT, Arial" font-size="14" transform="translate(.333)">
            <tspan x="86.283" y="227.35">300</tspan>
        </text>
        <text fill="#4A4A4A" font-family="ArialMT, Arial" font-size="14" transform="translate(.333)">
            <tspan x="113.991" y="227.35">400</tspan>
        </text>
        <text fill="#4A4A4A" font-family="ArialMT, Arial" font-size="14" transform="translate(.333)">
            <tspan x="141.699" y="227.35">500</tspan>
        </text>
        <text fill="#4A4A4A" font-family="ArialMT, Arial" font-size="14" transform="translate(.333)">
            <tspan x="169.407" y="227.35">600</tspan>
        </text>
        <text fill="#4A4A4A" font-family="ArialMT, Arial" font-size="14" transform="translate(.333)">
            <tspan x="197.115" y="227.35">700</tspan>
        </text>
        <text fill="#4A4A4A" font-family="ArialMT, Arial" font-size="14" transform="translate(.333)">
            <tspan x="224.823" y="227.35">800</tspan>
        </text>
        <path stroke="#01B8BE" stroke-dasharray="1,29" stroke-linecap="round" stroke-linejoin="round" stroke-width="4" d="M56.333 207l-6-135 10 49.98-10 39.02 10-55.844-19-78.156v180l9-75 28-26.844C60.858 74.38 56.525 61.662 65.333 67c10.1 6.122-1.73 42.995 13 44 23.64 1.613-3.055 41.003-13 10.98-4.252-12.837-1.6-2.662-5-16.824-5.8-24.173-10.386 6.926-10 0 .762-13.65.762-22.702 0-27.156-12.95 9.557-15.95 20.557-9 33 3.526 6.312-2.615 14.764 9 30 .626.821 21.263-64.159 28-49 15.906 35.785-27.3-56.073-28-44-.618 10.65 12.888 24.249 15 30 3.284 8.939 29.305 24.104 78 14 11.456-2.377 31.456-12.377 60-30l-74 65-8.82-29-70.18-10 10 44"/>
    </g>
</svg>
