<?xml version="1.0" encoding="UTF-8" standalone="no"?>
<svg width="40px" height="35px" viewBox="0 0 40 35" version="1.1" xmlns="http://www.w3.org/2000/svg" xmlns:xlink="http://www.w3.org/1999/xlink">
    <!-- Generator: Sketch 50.2 (55047) - http://www.bohemiancoding.com/sketch -->
    <title>Group 7</title>
    <desc>Created with Sketch.</desc>
    <defs></defs>
    <g id="Page-1" stroke="none" stroke-width="1" fill="none" fill-rule="evenodd">
        <g id="4-3-3data_quality_target_issues_fix_outlier" transform="translate(-1836.000000, -430.000000)" fill-rule="nonzero">
            <g id="Group-9" transform="translate(1790.000000, 180.000000)">
                <g id="Group-7" transform="translate(46.000000, 250.000000)">
                    <path d="M25.184107,20.3517965 C25.1441571,19.9966748 24.730089,19.7298165 24.3720445,19.7298165 C23.2144396,19.7298165 22.1872121,19.0501223 21.756412,17.9989508 C21.316306,16.9223061 21.6000907,15.6666905 22.4628189,14.8753275 C22.7343837,14.6270807 22.7673776,14.2115188 22.5396166,13.9228532 C21.9471372,13.170499 21.2737242,12.4908988 20.5384594,11.9019119 C20.2505387,11.6708666 19.8281045,11.7030136 19.5784416,11.9794596 C18.8255049,12.8133094 17.4730389,13.1232184 16.4279515,12.6871651 C15.3403762,12.2296803 14.6545553,11.1276563 14.721671,9.9447007 C14.7437609,9.57312949 14.4721961,9.25006087 14.1017437,9.20691612 C13.1581758,9.09778529 12.206336,9.09440139 11.2599482,9.19939634 C10.8937258,9.23981517 10.622161,9.55527001 10.6344749,9.92214135 C10.6756468,11.0934413 9.9815538,12.1761959 8.90478854,12.6172311 C7.87220308,13.0389968 6.52923098,12.7317198 5.77779829,11.9052958 C5.52945138,11.6330797 5.11387921,11.5996166 4.82454848,11.8251161 C4.06747581,12.4190848 3.37892884,13.0992491 2.78099746,13.8453994 C2.54778449,14.135475 2.58209434,14.5559248 2.85638513,14.8054875 C3.73556327,15.6016444 4.01944202,16.8681636 3.56269803,17.957216 C3.12663394,18.9955099 2.04845869,19.6646764 0.814150112,19.6646764 C0.413617873,19.6517988 0.128329128,19.920631 0.0845253204,20.2847764 C-0.026582191,21.2337729 -0.0278981853,22.2007228 0.0790733444,23.157427 C0.11874117,23.5140526 0.545405294,23.778561 0.907397702,23.778561 C2.00738087,23.7504558 3.06346622,24.431466 3.50648627,25.5095207 C3.94809633,26.5861654 3.66421758,27.841029 2.80017338,28.63305 C2.52992457,28.8812968 2.49561472,29.2962007 2.72337572,29.5848663 C3.31030914,30.3324266 3.98381618,31.0126849 4.72171293,31.6065596 C5.01113766,31.8397669 5.43225581,31.8068678 5.6831407,31.5304218 C6.43889738,30.6945041 7.79126943,30.3851591 8.83222086,30.8220584 C9.92252206,31.2781332 10.608343,32.3800632 10.5412273,33.5636768 C10.5193254,33.935436 10.7922062,34.2590686 11.1611546,34.3015554 C11.6438425,34.3578597 12.1294444,34.3859649 12.6163622,34.3859649 C13.0785582,34.3859649 13.5408482,34.3605856 14.0030441,34.3091691 C14.3693605,34.2687503 14.6407373,33.9532955 14.6284234,33.5857662 C14.5860296,32.4151241 15.2813445,31.3323696 16.3566998,30.8920864 C17.3962412,30.4675007 18.7335733,30.7782557 19.4851,31.6038337 C19.7348569,31.8754858 20.1475151,31.9082909 20.4384438,31.6835434 C21.1941065,31.0909846 21.8812435,30.4113843 22.4819948,29.6631661 C22.7151138,29.3737485 22.682214,28.9526407 22.4065132,28.7031719 C21.527335,27.9070151 21.2420463,26.6403079 21.6987903,25.5520075 C22.1281804,24.5275312 23.1663118,23.8396592 24.2829329,23.8396592 L24.4391602,23.8437011 C24.8013406,23.8731222 25.1345692,23.5941383 25.178467,23.224447 C25.2897625,22.2746046 25.2910785,21.3085007 25.184107,20.3517965 Z M12.6316259,25.9649123 C10.3097236,25.9649123 8.42105263,24.0762624 8.42105263,21.754386 C8.42105263,19.4326035 10.3097236,17.5438596 12.6316259,17.5438596 C14.9534343,17.5438596 16.8421053,19.4326035 16.8421053,21.754386 C16.8421053,24.0762624 14.9534343,25.9649123 12.6316259,25.9649123 Z" id="Shape" fill="#9FABB5"></path>
                    <path d="M39.9407118,8.42174209 C39.9107494,8.15540083 39.6001983,7.95525714 39.331665,7.95525714 C38.4634613,7.95525714 37.6930407,7.44548644 37.3699406,6.65710784 C37.0398611,5.84962429 37.2526996,4.90791263 37.8997458,4.31439037 C38.1034194,4.12820528 38.1281648,3.81653383 37.957344,3.60003462 C37.5129845,3.035769 37.0079247,2.5260688 36.4564761,2.08432863 C36.2405356,1.91104466 35.92371,1.93515496 35.7364628,2.14248944 C35.1717603,2.76787678 34.1574107,3.00030853 33.3735952,2.67326853 C32.5579138,2.33015499 32.043548,1.503637 32.0938848,0.616420261 C32.1104522,0.337741854 31.9067786,0.0954403904 31.6289393,0.0630818302 C30.9212635,-0.0187662929 30.2073836,-0.0213042192 29.4975927,0.0574419939 C29.2229259,0.0877561136 29.0192523,0.324347243 29.0284878,0.599500752 C29.0593666,1.47797574 28.5387969,2.29004166 27.731223,2.62081805 C26.9567839,2.93714237 25.9495548,2.70668456 25.3859803,2.08686656 C25.1997201,1.88270449 24.888041,1.85760722 24.6710429,2.0267318 C24.1032384,2.47220837 23.5868282,2.98233155 23.1383797,3.5419443 C22.9634699,3.75950098 22.9892023,4.07483833 23.1949204,4.26201039 C23.854304,4.85912805 24.0672131,5.80901747 23.7246551,6.62580675 C23.397607,7.40452713 22.5889756,7.90640206 21.6632442,7.90640206 C21.362845,7.89674384 21.1488784,8.09836798 21.1160256,8.37147705 C21.0326949,9.08322438 21.0317079,9.80843682 21.1119366,10.525965 C21.1416875,10.7934342 21.4616855,10.9918155 21.7331799,10.9918155 C22.5581672,10.9707366 23.3502312,11.4814942 23.6824963,12.2900353 C24.0137038,13.0975188 23.8007948,14.0386665 23.1527616,14.6326822 C22.950075,14.8188673 22.9243426,15.1300453 23.0951634,15.3465445 C23.5353634,15.9072147 24.0404937,16.4174084 24.5939163,16.8628145 C24.8109848,17.0377199 25.1268234,17.0130456 25.3149871,16.8057111 C25.8818046,16.1787728 26.8960837,15.9467641 27.6767972,16.2744385 C28.4945231,16.6164946 29.0088889,17.4429421 28.9585521,18.3306523 C28.9421257,18.6094717 29.1467863,18.8521962 29.4234975,18.8840613 C29.7855134,18.9262895 30.1497148,18.9473684 30.5149032,18.9473684 C30.8615502,18.9473684 31.2082677,18.928334 31.5549147,18.8897716 C31.829652,18.8594575 32.0331846,18.6228663 32.0239491,18.3472193 C31.9921537,17.4692378 32.51364,16.6571719 33.3201564,16.3269595 C34.0998125,16.0085203 35.1028116,16.2415865 35.6664566,16.86077 C35.8537743,17.0645091 36.1632679,17.0891129 36.3814644,16.9205523 C36.9482115,16.4761332 37.4635642,15.966433 37.9141277,15.4052693 C38.0889669,15.1882061 38.064292,14.8723753 37.8575165,14.6852737 C37.1981329,14.088156 36.9841663,13.1381256 37.3267243,12.3219003 C37.6487669,11.5535431 38.4273655,11.0376391 39.2648313,11.0376391 L39.3820018,11.0406705 C39.6536371,11.0627364 39.9035585,10.8534985 39.9364818,10.57623 C40.0199534,9.86384821 40.0209404,9.13927025 39.9407118,8.42174209 Z M30.526351,12.6315789 C28.7849243,12.6315789 27.3684211,11.2150915 27.3684211,9.47368421 C27.3684211,7.73234733 28.7849243,6.31578947 30.526351,6.31578947 C32.2677073,6.31578947 33.6842105,7.73234733 33.6842105,9.47368421 C33.6842105,11.2150915 32.2677073,12.6315789 30.526351,12.6315789 Z" id="Shape" fill="#C3CBD1"></path>
                </g>
            </g>
        </g>
    </g>
</svg>