<?xml version="1.0" encoding="UTF-8" standalone="no"?>
<svg width="112px" height="79px" viewBox="0 0 112 79" version="1.1" xmlns="http://www.w3.org/2000/svg" xmlns:xlink="http://www.w3.org/1999/xlink">
    <!-- Generator: Sketch 50.2 (55047) - http://www.bohemiancoding.com/sketch -->
    <title>icon_advanced_modeling</title>
    <desc>Created with Sketch.</desc>
    <defs>
        <linearGradient x1="50%" y1="0%" x2="50%" y2="100%" id="linearGradient-1">
            <stop stop-color="#5B657B" offset="0%"></stop>
            <stop stop-color="#243448" offset="100%"></stop>
        </linearGradient>
        <path d="M104.812254,36.26885 C104.717373,35.4254359 103.733961,34.7916476 102.883606,34.7916476 C100.134294,34.7916476 97.6946288,33.1773737 96.6714786,30.6808415 C95.6262267,28.1238102 96.3002155,25.1417233 98.3491949,23.2622362 C98.9941614,22.67265 99.0725218,21.6856905 98.5315894,21.0001096 C97.1244508,19.2132685 95.5250949,17.5992179 93.778841,16.200374 C93.0950293,15.6516414 92.0917482,15.7279907 91.4987988,16.3845499 C89.7105742,18.3649431 86.4984673,19.100977 84.0163847,18.0653503 C81.4333936,16.9788241 79.8045687,14.3615172 79.9639685,11.5519975 C80.0164321,10.6695159 79.3714656,9.9022279 78.4916413,9.79975913 C76.2506676,9.54057341 73.9900481,9.53253664 71.7423769,9.78189965 C70.8725988,9.87789436 70.2276323,10.6270996 70.256878,11.498419 C70.354661,14.2802565 68.7061903,16.8517986 66.1488728,17.8992572 C63.6964823,18.9009508 60.5069236,18.1711678 58.7222709,16.2084108 C58.132447,15.5618975 57.1454631,15.4824229 56.4583026,16.017984 C54.660255,17.4286598 53.024956,19.0440499 51.604869,20.816157 C51.0509882,21.5050865 51.1324741,22.5036547 51.7839147,23.0963662 C53.8719628,24.9872388 54.5461748,27.995222 53.4614078,30.5817214 C52.4257556,33.0476692 49.8650894,34.6369398 46.9336065,34.6369398 C45.9823424,34.6063555 45.3047817,35.2448319 45.2007476,36.1096773 C44.9368673,38.3635439 44.9337418,40.6600499 45.1877992,42.9322224 C45.2820103,43.7792083 46.2953376,44.4074156 47.1550695,44.4074156 C49.7675296,44.3406658 52.2757323,45.9580651 53.3279049,48.518445 C54.3767288,51.0754762 53.7025168,54.0557772 51.6504118,55.936827 C51.0085708,56.5264132 50.927085,57.51181 51.4680173,58.1973909 C52.8619842,59.9728466 54.4615634,61.5884599 56.2140682,62.9989124 C56.9014519,63.5527796 57.9016075,63.4746444 58.4974592,62.8180852 C60.2923813,60.8327806 63.5042649,60.0980862 65.9765245,61.1357221 C68.5659899,62.2188996 70.1948147,64.8359833 70.0354149,67.6470657 C69.9833979,68.5299938 70.6314898,69.2986213 71.5077422,69.3995273 C72.6541259,69.5332502 73.8074304,69.6 74.9638603,69.6 C76.0615757,69.6 77.1595144,69.5397243 78.2572298,69.41761 C79.1272312,69.3216153 79.7717511,68.5724101 79.7425055,67.6995279 C79.6418202,64.9192532 81.2931932,62.3477111 83.847162,61.3020385 C86.3160729,60.2936475 89.4922366,61.0316906 91.2771125,62.9924384 C91.8702852,63.6376122 92.8503484,63.7155241 93.5413041,63.1817489 C95.3360029,61.7744218 96.9679533,60.1603711 98.3947377,58.3833527 C98.9483953,57.6959859 98.8702582,56.695855 98.2154688,56.1033667 C96.1274207,54.2124941 95.4498599,51.2040645 96.5346269,48.619351 C97.5544284,46.1862199 100.019991,44.5525239 102.671966,44.5525239 L103.043006,44.5621234 C103.903184,44.6319986 104.694602,43.9694118 104.798859,43.0913951 C105.063186,40.8355193 105.066311,38.5410225 104.812254,36.26885 Z M74.7001104,49.2 C69.2407376,49.2 64.8,44.759312 64.8,39.3 C64.8,33.8409089 69.2407376,29.4 74.7001104,29.4 C80.1592624,29.4 84.6,33.8409089 84.6,39.3 C84.6,44.759312 80.1592624,49.2 74.7001104,49.2 Z" id="path-2"></path>
        <filter x="-17.5%" y="-12.5%" width="135.0%" height="135.0%" filterUnits="objectBoundingBox" id="filter-3">
            <feOffset dx="0" dy="3" in="SourceAlpha" result="shadowOffsetOuter1"></feOffset>
            <feGaussianBlur stdDeviation="3" in="shadowOffsetOuter1" result="shadowBlurOuter1"></feGaussianBlur>
            <feColorMatrix values="0 0 0 0 0   0 0 0 0 0   0 0 0 0 0  0 0 0 0.3 0" type="matrix" in="shadowBlurOuter1"></feColorMatrix>
        </filter>
    </defs>
    <g id="Page-1" stroke="none" stroke-width="1" fill="none" fill-rule="evenodd">
        <g id="5-1-1modeling" transform="translate(-705.000000, -231.000000)">
            <g id="icon_advanced_modeling" transform="translate(705.600000, 231.000000)">
                <g id="Group-11">
                    <rect id="Rectangle-16-Copy-2" fill="#445167" x="2.4" y="25.2" width="10.8" height="13.2"></rect>
                    <rect id="Rectangle-16-Copy-6" fill="#C4CBD7" x="16.8" y="7.8" width="10.8" height="30.6"></rect>
                    <rect id="Rectangle-16-Copy-3" fill="#445167" x="30.6" y="0" width="10.8" height="38.4"></rect>
                    <rect id="Rectangle-16-Copy-4" fill="#C4CBD7" x="45" y="12.6" width="10.8" height="25.2"></rect>
                    <path d="M0.463282822,38 L57.7383382,38" id="Line" stroke="#1D2B3C" stroke-width="1.2" stroke-linecap="square"></path>
                </g>
                <g id="Shape" fill-rule="nonzero">
                    <use fill="black" fill-opacity="1" filter="url(#filter-3)" xlink:href="#path-2"></use>
                    <use fill="url(#linearGradient-1)" fill-rule="evenodd" xlink:href="#path-2"></use>
                </g>
            </g>
        </g>
    </g>
</svg>