<svg xmlns="http://www.w3.org/2000/svg" width="38" height="31" viewBox="0 0 38 31">
    <g fill="#000" fill-rule="nonzero">
        <path d="M23.562 17.26c-.037-.333-.424-.583-.76-.583a2.625 2.625 0 0 1-2.447-1.619 2.632 2.632 0 0 1 .661-2.923.656.656 0 0 0 .072-.89 11.695 11.695 0 0 0-1.872-1.892.658.658 0 0 0-.898.073c-.705.78-1.97 1.07-2.948.662a2.625 2.625 0 0 1-1.596-2.566.656.656 0 0 0-.58-.69 11.8 11.8 0 0 0-2.66-.007.658.658 0 0 0-.584.676 2.63 2.63 0 0 1-1.619 2.522c-.966.394-2.222.107-2.925-.666a.66.66 0 0 0-.892-.075 11.739 11.739 0 0 0-1.912 1.89.657.657 0 0 0 .07.898 2.619 2.619 0 0 1 .661 2.949c-.408.971-1.416 1.598-2.571 1.598a.642.642 0 0 0-.683.58 11.84 11.84 0 0 0-.005 2.687c.037.334.436.582.775.582 1.03-.027 2.017.61 2.432 1.62a2.628 2.628 0 0 1-.661 2.922.657.657 0 0 0-.072.89c.55.7 1.18 1.336 1.87 1.892.27.218.664.187.9-.072.706-.782 1.972-1.071 2.945-.662a2.62 2.62 0 0 1 1.6 2.565c-.021.348.234.65.58.69a11.747 11.747 0 0 0 2.658.007.658.658 0 0 0 .585-.676 2.627 2.627 0 0 1 1.617-2.52c.973-.398 2.224-.107 2.927.665a.66.66 0 0 0 .892.075c.707-.555 1.35-1.19 1.912-1.89a.656.656 0 0 0-.07-.899 2.619 2.619 0 0 1-.662-2.948 2.646 2.646 0 0 1 2.417-1.602l.146.004a.658.658 0 0 0 .692-.58 11.83 11.83 0 0 0 .005-2.688zm-11.725 5.279a3.946 3.946 0 0 1-3.942-3.942 3.946 3.946 0 0 1 3.942-3.942 3.946 3.946 0 0 1 3.942 3.942 3.946 3.946 0 0 1-3.942 3.942z"/>
        <path d="M37.09 7.504c-.027-.237-.303-.415-.543-.415-.773 0-1.46-.454-1.748-1.157a1.88 1.88 0 0 1 .473-2.088.469.469 0 0 0 .05-.636 8.354 8.354 0 0 0-1.336-1.35.47.47 0 0 0-.642.051c-.503.557-1.407.765-2.106.473A1.875 1.875 0 0 1 30.098.55a.468.468 0 0 0-.414-.493 8.428 8.428 0 0 0-1.9-.005.47.47 0 0 0-.417.483 1.878 1.878 0 0 1-1.156 1.801c-.69.282-1.588.077-2.09-.475a.47.47 0 0 0-.637-.054 8.385 8.385 0 0 0-1.366 1.35.47.47 0 0 0 .05.642 1.87 1.87 0 0 1 .473 2.106c-.292.694-1.012 1.141-1.837 1.141a.459.459 0 0 0-.488.415 8.457 8.457 0 0 0-.003 1.92c.026.238.311.415.553.415.735-.02 1.441.436 1.737 1.156.295.72.106 1.559-.472 2.088a.47.47 0 0 0-.051.636c.392.5.842.954 1.335 1.351a.47.47 0 0 0 .643-.05c.505-.56 1.409-.766 2.104-.474a1.872 1.872 0 0 1 1.142 1.832.469.469 0 0 0 .415.493 8.391 8.391 0 0 0 1.899.005.47.47 0 0 0 .418-.483 1.876 1.876 0 0 1 1.155-1.8c.695-.284 1.588-.076 2.09.475a.472.472 0 0 0 .638.054c.505-.396.964-.85 1.365-1.35a.469.469 0 0 0-.05-.642 1.87 1.87 0 0 1-.473-2.106 1.89 1.89 0 0 1 1.727-1.145l.104.003a.47.47 0 0 0 .494-.414 8.45 8.45 0 0 0 .004-1.92zm-8.375 3.772a2.819 2.819 0 0 1-2.816-2.816 2.819 2.819 0 0 1 2.816-2.816A2.819 2.819 0 0 1 31.53 8.46a2.819 2.819 0 0 1-2.816 2.816z"/>
    </g>
</svg>
