<svg xmlns="http://www.w3.org/2000/svg" width="24" height="26" viewBox="0 0 24 26">
    <path fill="#FFF" fill-opacity=".7" fill-rule="nonzero" d="M11.98 0c6.382 0 11.779 2.357 11.961 5.179-.182 2.82-5.58 5.178-11.962 5.178S.2 8 .017 5.18C.2 2.357 5.597 0 11.98 0zm11.979 20.59c0 2.886-5.486 5.325-11.98 5.325C5.485 25.915 0 23.476 0 20.59v-2.546c2.05 2.202 6.587 3.7 11.98 3.7 5.392 0 9.928-1.498 11.979-3.7v2.546zm0-5.222c0 2.886-5.486 5.325-11.98 5.325C5.485 20.693 0 18.254 0 15.368v-2.652c2.05 2.202 6.587 3.7 11.98 3.7 5.392 0 9.928-1.499 11.979-3.7v2.652zm0-5.329c0 2.887-5.486 5.325-11.98 5.325C5.485 15.364 0 12.925 0 10.039V7.71c2.05 2.203 6.587 3.7 11.98 3.7 5.392 0 9.928-1.498 11.979-3.7v2.33z"/>
</svg>
