<?xml version="1.0" encoding="UTF-8"?>
<svg width="19px" height="19px" viewBox="0 0 19 19" version="1.1" xmlns="http://www.w3.org/2000/svg" xmlns:xlink="http://www.w3.org/1999/xlink">
    <!-- Generator: Sketch 54 (76480) - https://sketchapp.com -->
    <title>分组</title>
    <desc>Created with Sketch.</desc>
    <defs>
        <polygon id="path-1" points="0.00294193548 0.00123157895 18.9890707 0.00123157895 18.9890707 17.9772632 0.00294193548 17.9772632"></polygon>
    </defs>
    <g id="Clustering-Copy" stroke="none" stroke-width="1" fill="none" fill-rule="evenodd">
        <g id="4.3.4-Simplified-view-Copy-3" transform="translate(-1540.000000, -587.000000)">
            <g id="分组" transform="translate(1540.000000, 587.000000)">
                <g transform="translate(0.000000, 1.000000)">
                    <mask id="mask-2" fill="white">
                        <use xlink:href="#path-1"></use>
                    </mask>
                    <g id="Clip-2"></g>
                    <path d="M1.85776361,15.7557553 C2.18912361,15.7557553 2.46024748,15.4937605 2.46024748,15.1736447 L2.46024748,10.0321342 C2.46024748,9.71192368 2.18912361,9.45002368 1.85776361,9.45002368 C1.52633006,9.45002368 1.25520619,9.71192368 1.25520619,10.0321342 L1.25520619,15.1736447 C1.25520619,15.4937605 1.52633006,15.7557553 1.85776361,15.7557553 L1.85776361,15.7557553 Z M18.3865378,16.8131368 L0.602464258,16.8131368 C0.271128774,16.8131368 4.90322581e-06,17.0750368 4.90322581e-06,17.3952474 C4.90322581e-06,17.7153395 0.271128774,17.9772632 0.602464258,17.9772632 L18.3865378,17.9772632 C18.7179714,17.9772632 18.9890707,17.7153395 18.9890707,17.3952474 C18.9890707,17.0750368 18.7179714,16.8131368 18.3865378,16.8131368 L18.3865378,16.8131368 Z M11.8493365,0.253421053 L16.2376255,3.00855789 C16.2175223,3.06675 16.2074462,3.12494211 16.2074462,3.18313421 L16.2074462,15.1736447 C16.2074462,15.4937605 16.4785701,15.7557553 16.8100281,15.7557553 C17.1413881,15.7557553 17.4124875,15.4937605 17.4124875,15.1736447 L17.4124875,3.19284474 C17.4124875,2.87275263 17.1413881,2.61082895 16.8100281,2.61082895 C16.6091185,2.61082895 16.4384617,2.69808158 16.3279185,2.84359737 L11.799152,0.00123157895 L6.80830555,6.04494474 L1.89789652,3.48392368 L1.80750555,3.6585 L6.86863974,6.29715789 L11.8493365,0.253421053 Z" id="Fill-1" fill="#FFFFFF" mask="url(#mask-2)"></path>
                </g>
                <g transform="translate(1.000000, 0.000000)" fill="#FFFFFF">
                    <path d="M10.3116723,6.99691178 L10.3116723,16.3811805 C10.3116723,16.7113371 10.5781301,16.9815052 10.9037928,16.9815052 C11.2295759,16.9815052 11.4960337,16.7113371 11.4960337,16.3811805 L11.4960337,6.99691178 C11.4960337,6.6666819 11.2295759,6.39658707 10.9037928,6.39658707 C10.5781301,6.39658707 10.3116723,6.6666819 10.3116723,6.99691178 M5.41613012,9.17791897 L5.41613012,16.3811805 C5.41613012,16.7113371 5.68268434,16.9815052 6.00839518,16.9815052 C6.33405783,16.9815052 6.60051566,16.7113371 6.60051566,16.3811805 L6.60051566,9.17791897 C6.60051566,8.84768908 6.33405783,8.57759425 6.00839518,8.57759425 C5.68268434,8.57759425 5.41613012,8.84768908 5.41613012,9.17791897" id="Fill-3"></path>
                    <path d="M0.0173277108,4.36565862 C0.0173277108,4.97602213 0.500942169,5.46623764 1.10306265,5.46623764 C1.70511084,5.46623764 2.1887253,4.97602213 2.1887253,4.36565862 C2.1887253,3.75541724 1.70511084,3.26520172 1.10306265,3.26520172 C0.500942169,3.26520172 0.0173277108,3.75541724 0.0173277108,4.36565862" id="Fill-5"></path>
                    <path d="M5.03124819,6.95683721 C5.03124819,7.44707716 5.42601928,7.84730991 5.90963373,7.84730991 C6.39324819,7.84730991 6.78811566,7.44707716 6.78811566,6.95683721 C6.78811566,6.4666217 6.39324819,6.06646221 5.90963373,6.06646221 C5.42601928,6.06646221 5.03124819,6.45660733 5.03124819,6.95683721" id="Fill-7"></path>
                    <path d="M10.0155518,1.02417672 C10.0155518,1.57440517 10.4597205,2.02466092 11.0025398,2.02466092 C11.545359,2.02466092 11.9895518,1.57440517 11.9895518,1.02417672 C11.9895518,0.473923851 11.545359,0.0236925287 11.0025398,0.0236925287 C10.4597205,0.0236925287 10.0155518,0.473923851 10.0155518,1.02417672" id="Fill-9"></path>
                </g>
            </g>
        </g>
    </g>
</svg>
