<svg xmlns="http://www.w3.org/2000/svg" xmlns:xlink="http://www.w3.org/1999/xlink" width="52" height="52" viewBox="0 0 52 52">
    <defs>
        <rect id="a" width="52" height="52" rx="2"/>
        <rect id="b" width="8.229" height="6.545" y="14.532" rx="3"/>
        <rect id="c" width="8.229" height="6.545" x="13.553" y="22.904" rx="3"/>
        <rect id="d" width="8.229" height="6.545" x="13.553" y="6.54" rx="3"/>
    </defs>
    <g fill="none" fill-rule="evenodd">
        <g>
            <use fill="#FFF" xlink:href="#a"/>
            <rect width="51" height="51" x=".5" y=".5" stroke="#BFDBFF" rx="2"/>
        </g>
        <g transform="translate(6 8)">
            <use fill="#FFF" xlink:href="#b"/>
            <rect width="7.229" height="5.545" x=".5" y="15.032" stroke="#448EED" rx="2.773"/>
            <g stroke="#448EED" stroke-linecap="square">
                <path d="M8.743 17.182l5.143-6.546M8.157 18.555l5.729 5.172M22.114 9l8.229-4.91M22.114 10.636l7.2 3.273M22.114 25.364l6.172-3.273M22.114 27l7.2 4.91"/>
            </g>
            <use fill="#BFDBFF" xlink:href="#c"/>
            <rect width="7.229" height="5.545" x="14.053" y="23.404" stroke="#448EED" rx="2.773"/>
            <use fill="#BFDBFF" xlink:href="#d"/>
            <rect width="7.229" height="5.545" x="14.053" y="7.04" stroke="#448EED" rx="2.773"/>
            <rect width="8.229" height="6.545" x="27.771" y="9.818" fill="#448EED" rx="3"/>
            <rect width="8.229" height="6.545" x="27.771" y="19.636" fill="#448EED" rx="3"/>
            <rect width="8.229" height="6.545" x="27.771" y="29.455" fill="#448EED" rx="3"/>
            <rect width="8.229" height="6.545" x="27.771" fill="#448EED" rx="3"/>
        </g>
    </g>
</svg>
