<?xml version="1.0" encoding="UTF-8"?>
<svg width="52px" height="52px" viewBox="0 0 30 30" version="1.1" xmlns="http://www.w3.org/2000/svg" xmlns:xlink="http://www.w3.org/1999/xlink">
    <!-- Generator: Sketch 54 (76480) - https://sketchapp.com -->
    <title>iconResidual-Normal</title>
    <desc>Created with Sketch.</desc>
    <g id="Page-2" stroke="none" stroke-width="1" fill="none" fill-rule="evenodd">
        <g id="5-4-4-Model-Selection_Advanced-View_Model-Expand_ROC-Cure-Copy-3" transform="translate(-177.000000, -360.000000)" stroke="#1D2B3C">
            <g id="Group-17" transform="translate(177.000000, 313.000000)">
                <g id="iconResidual-Normal" transform="translate(0.000000, 47.333333)">
                    <g>
                        <path d="M0.683742551,2.42640416 L0.683742551,26.8891036 C0.683742551,27.8772217 1.48833696,28.6827539 2.47739281,28.6827539 L26.9400923,28.6827539 C27.9282104,28.6827539 28.7337426,27.8781595 28.7337426,26.8891036 L28.7337426,2.42640416 C28.7337426,1.43828606 27.9291481,0.632753898 26.9400923,0.632753898 L2.47739281,0.632753898 C1.48927471,0.632753898 0.683742551,1.4373483 0.683742551,2.42640416 Z" id="Rectangle-7-Copy" stroke-width="1.2" fill="#FFFFFF"></path>
                        <g id="Arrow" transform="translate(2.250000, 3.375000)" stroke-linecap="square" stroke-width="0.6">
                            <path d="M1.17544909,0.208890381 L2.11580836,1.04445191" id="Line"></path>
                            <path d="M0.235089818,0.208890381 L1.17544909,1.04445191" id="Line-Copy-2" transform="translate(0.705269, 0.626671) scale(-1, 1) translate(-0.705269, -0.626671) "></path>
                        </g>
                        <g id="Arrow-Copy" transform="translate(26.706923, 25.108691) rotate(90.000000) translate(-26.706923, -25.108691) translate(25.300673, 24.264941)" stroke-linecap="square" stroke-width="0.6">
                            <path d="M1.17544909,0.208890381 L2.11580836,1.04445191" id="Line"></path>
                            <path d="M0.235089818,0.208890381 L1.17544909,1.04445191" id="Line-Copy-2" transform="translate(0.705269, 0.626671) scale(-1, 1) translate(-0.705269, -0.626671) "></path>
                        </g>
                        <path d="M3.42544909,24.8907093 L26.9344309,24.8907093" id="Line" stroke-width="0.6" stroke-linecap="square"></path>
                        <path d="M3.42544909,24.8907093 L3.42544909,4.00167114" id="Line-Copy" stroke-width="0.6" stroke-linecap="square"></path>
                        <path d="M3.78643799,14.90625 L26.8269653,14.90625" id="Line-4" stroke-width="0.9" stroke-linecap="square"></path>
                        <path d="M7.76953486,12.0593514 L10.2381628,18.5071895 L13.5296667,13.348919 L15.1754187,16.5728381 L20.1126745,10.125 L11.8839147,10.125 L20.1126745,18.5071895 L13.9411047,19.7967571 L24.2270544,12.0593514 L24.2270544,16.5728381" id="Path-4" stroke-width="1.2" stroke-linecap="round" stroke-linejoin="round" stroke-dasharray="0.6,4.2"></path>
                    </g>
                </g>
            </g>
        </g>
    </g>
</svg>
