<svg xmlns="http://www.w3.org/2000/svg" width="20" height="19" viewBox="0 0 20 19">
    <g fill="none" fill-rule="evenodd">
        <path fill="#FF3151" d="M11.748 1.869l7.867 14.16A2 2 0 0 1 17.866 19H2.133a2 2 0 0 1-1.748-2.971L8.25 1.869a2 2 0 0 1 3.497 0z"/>
        <path fill="#FFF" d="M10.5 8.558c-.828 0-1.5-.573-1.5-1.279S9.672 6 10.5 6s1.5.573 1.5 1.28c0 .705-.672 1.278-1.5 1.278zm.06 1.28c.746 0 1.35.604 1.35 1.35v3.439a1.35 1.35 0 0 1-2.7 0v-3.44c0-.745.604-1.35 1.35-1.35z"/>
    </g>
</svg>
