<?xml version="1.0" encoding="UTF-8" standalone="no"?>
<svg width="34px" height="36px" viewBox="0 0 34 36" version="1.1" xmlns="http://www.w3.org/2000/svg" xmlns:xlink="http://www.w3.org/1999/xlink">
    <!-- Generator: Sketch 50.2 (55047) - http://www.bohemiancoding.com/sketch -->
    <title>icon_start_modeling_d</title>
    <desc>Created with Sketch.</desc>
    <defs></defs>
    <g id="Page-1" stroke="none" stroke-width="1" fill="none" fill-rule="evenodd">
        <g id="5-2-1modeling_automatic_generating" transform="translate(-1790.000000, -287.000000)" fill="#9B9B9B" fill-rule="nonzero">
            <path d="M1808.51429,304.485714 L1815.71429,304.485714 C1817.41848,304.485714 1818.8,305.867236 1818.8,307.571429 L1818.8,310.657143 L1822.17959,310.657143 C1823.15342,310.657143 1823.94286,311.446584 1823.94286,312.420408 L1823.94286,321.236735 C1823.94286,322.210559 1823.15342,323 1822.17959,323 L1813.36327,323 C1812.38944,323 1811.6,322.210559 1811.6,321.236735 L1811.6,312.420408 C1811.6,311.446584 1812.38944,310.657143 1813.36327,310.657143 L1816.74286,310.657143 L1816.74286,307.571429 C1816.74286,307.003364 1816.28235,306.542857 1815.71429,306.542857 L1798.22857,306.542857 C1797.66051,306.542857 1797.2,307.003364 1797.2,307.571429 L1797.2,310.657143 L1800.57959,310.657143 C1801.55342,310.657143 1802.34286,311.446584 1802.34286,312.420408 L1802.34286,321.236735 C1802.34286,322.210559 1801.55342,323 1800.57959,323 L1791.76327,323 C1790.78944,323 1790,322.210559 1790,321.236735 L1790,312.420408 C1790,311.446584 1790.78944,310.657143 1791.76327,310.657143 L1795.14286,310.657143 L1795.14286,307.571429 C1795.14286,305.867236 1796.52438,304.485714 1798.22857,304.485714 L1806.45714,304.485714 L1806.45714,299.342857 L1803.07755,299.342857 C1802.10373,299.342857 1801.31429,298.553416 1801.31429,297.579592 L1801.31429,288.763265 C1801.31429,287.789441 1802.10373,287 1803.07755,287 L1811.89388,287 C1812.8677,287 1813.65714,287.789441 1813.65714,288.763265 L1813.65714,297.579592 C1813.65714,298.553416 1812.8677,299.342857 1811.89388,299.342857 L1808.51429,299.342857 L1808.51429,304.485714 Z" id="icon_start_modeling_d"></path>
        </g>
    </g>
</svg>