<?xml version="1.0" encoding="UTF-8" standalone="no"?>
<svg width="36px" height="35px" viewBox="0 0 36 35" version="1.1" xmlns="http://www.w3.org/2000/svg" xmlns:xlink="http://www.w3.org/1999/xlink">
    <!-- Generator: Sketch 50.2 (55047) - http://www.bohemiancoding.com/sketch -->
    <title>icon_model_selection_a</title>
    <desc>Created with Sketch.</desc>
    <defs></defs>
    <g id="Page-1" stroke="none" stroke-width="1" fill="none" fill-rule="evenodd">
        <g id="5-2-1modeling_automatic_generating" transform="translate(-1840.000000, -648.000000)" fill="#1D2B3C">
            <path d="M1862.65211,669.393663 L1862.65211,674.944368 C1862.65211,676.048937 1861.75668,676.944368 1860.65211,676.944368 L1842,676.944368 C1840.89543,676.944368 1840,676.048937 1840,674.944368 L1840,657.550705 C1840,656.446135 1840.89543,655.550705 1842,655.550705 L1847.5507,655.550705 L1847.5507,650 C1847.5507,648.895431 1848.44614,648 1849.5507,648 L1868.20282,648 C1869.30739,648 1870.20282,648.895431 1870.20282,650 L1870.20282,667.393663 C1870.20282,668.498233 1869.30739,669.393663 1868.20282,669.393663 L1862.65211,669.393663 Z M1862.65211,669.393663 L1862.65211,657.550705 C1862.65211,656.446135 1861.75668,655.550705 1860.65211,655.550705 L1847.5507,655.550705 L1847.5507,667.393663 C1847.5507,668.498233 1848.44614,669.393663 1849.5507,669.393663 L1862.65211,669.393663 Z M1865.76662,672.50817 L1876,676.512536 L1871.50457,678.160417 L1869.77099,682.741549 L1865.76662,672.50817 Z M1850.06761,658.067606 L1859.13521,658.067606 C1859.6875,658.067606 1860.13521,658.515321 1860.13521,659.067606 L1860.13521,666.876762 L1851.06761,666.876762 C1850.51532,666.876762 1850.06761,666.429046 1850.06761,665.876762 L1850.06761,658.067606 Z" id="icon_model_selection_a"></path>
        </g>
    </g>
</svg>