<?xml version="1.0" encoding="UTF-8" standalone="no"?>
<svg width="36px" height="35px" viewBox="0 0 36 35" version="1.1" xmlns="http://www.w3.org/2000/svg" xmlns:xlink="http://www.w3.org/1999/xlink">
    <!-- Generator: Sketch 50.2 (55047) - http://www.bohemiancoding.com/sketch -->
    <title>icon_model_selection_d</title>
    <desc>Created with Sketch.</desc>
    <defs></defs>
    <g id="Page-1" stroke="none" stroke-width="1" fill="none" fill-rule="evenodd">
        <g id="5-2-1modeling_automatic_generating" transform="translate(-1791.000000, -648.000000)" fill="#9B9B9B">
            <path d="M1813.65211,669.393663 L1813.65211,674.944368 C1813.65211,676.048937 1812.75668,676.944368 1811.65211,676.944368 L1793,676.944368 C1791.89543,676.944368 1791,676.048937 1791,674.944368 L1791,657.550705 C1791,656.446135 1791.89543,655.550705 1793,655.550705 L1798.5507,655.550705 L1798.5507,650 C1798.5507,648.895431 1799.44614,648 1800.5507,648 L1819.20282,648 C1820.30739,648 1821.20282,648.895431 1821.20282,650 L1821.20282,667.393663 C1821.20282,668.498233 1820.30739,669.393663 1819.20282,669.393663 L1813.65211,669.393663 Z M1813.65211,669.393663 L1813.65211,657.550705 C1813.65211,656.446135 1812.75668,655.550705 1811.65211,655.550705 L1798.5507,655.550705 L1798.5507,667.393663 C1798.5507,668.498233 1799.44614,669.393663 1800.5507,669.393663 L1813.65211,669.393663 Z M1816.76662,672.50817 L1827,676.512536 L1822.50457,678.160417 L1820.77099,682.741549 L1816.76662,672.50817 Z M1801.06761,658.067606 L1810.13521,658.067606 C1810.6875,658.067606 1811.13521,658.515321 1811.13521,659.067606 L1811.13521,666.876762 L1802.06761,666.876762 C1801.51532,666.876762 1801.06761,666.429046 1801.06761,665.876762 L1801.06761,658.067606 Z" id="icon_model_selection_d"></path>
        </g>
    </g>
</svg>