<svg xmlns="http://www.w3.org/2000/svg" width="36" height="28" viewBox="0 0 36 28">
    <path fill="#979797" fill-rule="evenodd" d="M21.26 8.495v7.114H15V8.495h-4L18.043 0l7.044 8.495h-3.826zM5.675 21H30.13L36 26.29v1.033H0v-1.032L5.674 21zm5.701-17v2.3h-2.73c-.241 0-.345.093-.345.08v11.112c0-.013.104.08.345.08h18.96c.241 0 .345-.093.345-.08V6.38c0 .012-.104-.081-.346-.081H24.48V4h3.125c1.461 0 2.646 1.066 2.646 2.38v11.112c0 1.315-1.185 2.38-2.646 2.38H8.645c-1.46 0-2.645-1.065-2.645-2.38V6.38C6 5.066 7.184 4 8.645 4h2.73z"/>
</svg>
