<svg xmlns="http://www.w3.org/2000/svg" width="20" height="20" viewBox="0 0 20 20">
    <g fill="none" fill-rule="evenodd">
        <circle cx="10" cy="10" r="10" fill="#C4CBD7"/>
        <path fill="#FFF" d="M11.13 12.074H9.01v-1.046c0-.381.048-.668.146-.858.097-.19.304-.45.62-.775l.95-.976c.14-.168.209-.384.209-.65a.994.994 0 0 0-.223-.662.729.729 0 0 0-.586-.265c-.242 0-.445.105-.607.314-.163.21-.263.486-.3.83H7c.102-.93.442-1.66 1.019-2.19.576-.53 1.3-.796 2.17-.796.87 0 1.576.237 2.12.712.544.474.817 1.13.817 1.967 0 .372-.047.649-.14.83-.093.182-.158.312-.195.391-.038.08-.124.198-.258.356-.135.158-.226.26-.273.307-.223.223-.434.432-.634.628-.2.195-.333.356-.398.481-.065.126-.098.314-.098.565v.837zM8.87 13.86c0-.344.118-.634.356-.872.237-.237.527-.355.872-.355.344 0 .635.118.872.355.237.238.356.528.356.872 0 .345-.119.635-.356.873a1.186 1.186 0 0 1-.872.355c-.345 0-.635-.118-.872-.355a1.186 1.186 0 0 1-.356-.873z"/>
    </g>
</svg>
