<svg xmlns="http://www.w3.org/2000/svg" width="90" height="112" viewBox="0 0 90 112">
    <g fill="#8F97A4" fill-rule="evenodd">
        <path fill-opacity=".3" d="M20.5 83h49.04a2.5 2.5 0 0 1 0 5H20.5a2.5 2.5 0 1 1 0-5zm0-10h42.735a2.5 2.5 0 1 1 0 5H20.5a2.5 2.5 0 1 1 0-5zm0 19h29.802a2.5 2.5 0 0 1 0 5H20.5a2.5 2.5 0 1 1 0-5z"/>
        <path fill-rule="nonzero" d="M7.56 7.56v96.602h74.762V30.821H61.906a5 5 0 0 1-5-5V7.56H7.56zM6.72 0h51.182a8 8 0 0 1 5.614 2.3l23.98 23.615a8 8 0 0 1 2.386 5.7v73.387a6.72 6.72 0 0 1-6.72 6.72H6.72a6.72 6.72 0 0 1-6.72-6.72V6.72A6.72 6.72 0 0 1 6.72 0z"/>
    </g>
</svg>
