<?xml version="1.0" encoding="UTF-8" standalone="no"?>
<svg width="34px" height="32px" viewBox="0 0 34 32" version="1.1" xmlns="http://www.w3.org/2000/svg" xmlns:xlink="http://www.w3.org/1999/xlink">
    <!-- Generator: Sketch 50.2 (55047) - http://www.bohemiancoding.com/sketch -->
    <title>modeling</title>
    <desc>Created with Sketch.</desc>
    <defs></defs>
    <g id="Page-1" stroke="none" stroke-width="1" fill="none" fill-rule="evenodd">
        <g id="2-1-1project" transform="translate(-1212.000000, -33.000000)" fill="#9B9B9B" fill-rule="nonzero">
            <g id="progress" transform="translate(303.000000, 28.000000)">
                <g id="modeling" transform="translate(909.000000, 5.000000)">
                    <path d="M8.29030962,8 L1.05647614,8 C0.471040319,8 0,8.49122807 0,9.10175439 L0,30.8982456 C0,31.5087719 0.471040319,32 1.05647614,32 L8.29030962,32 C8.87574544,32 9.34678576,31.5087719 9.34678576,30.8982456 L9.34678576,9.10175439 C9.35351491,8.49122807 8.87574544,8 8.29030962,8 Z M7.23383347,29.7964912 L2.11295229,29.7964912 L2.11295229,10.2035088 L7.23383347,10.2035088 L7.23383347,29.7964912 Z" id="Shape"></path>
                    <path d="M32.8258689,14.8571429 L25.591981,14.8571429 C25.0065408,14.8571429 24.535497,15.3193925 24.535497,15.8939027 L24.535497,30.9632401 C24.535497,31.5377504 25.0065408,32 25.591981,32 L32.8258689,32 C33.4113091,32 33.8823529,31.5377504 33.8823529,30.9632401 L33.8823529,15.8939027 C33.8823529,15.3193925 33.4113091,14.8571429 32.8258689,14.8571429 Z M26.6484651,16.9306626 L28.2903894,16.9306626 L26.6484651,18.5419326 L26.6484651,16.9306626 Z M26.6484651,20.1928241 L29.9659597,16.9372661 L31.64153,16.9372661 L26.6484651,21.837112 L26.6484651,20.1928241 Z M31.7693848,29.9264803 L30.1207313,29.9264803 L31.7693848,28.3086066 L31.7693848,29.9264803 Z M31.7693848,26.6643187 L28.445161,29.9264803 L26.7695907,29.9264803 L31.7626556,25.0266344 L31.7626556,26.6643187 L31.7693848,26.6643187 Z M31.7693848,23.3823465 L26.6484651,28.4076601 L26.6484651,26.7633722 L31.7693848,21.7380586 L31.7693848,23.3823465 Z M31.7693848,20.0937706 L26.6484651,25.1190843 L26.6484651,23.4747964 L31.7693848,18.4494827 L31.7693848,20.0937706 Z" id="Shape"></path>
                    <path d="M19.9806079,0 L12.740046,0 C12.1546102,0 11.68357,0.478428022 11.68357,1.07304571 L11.68357,30.9269543 C11.68357,31.521572 12.1546102,32 12.740046,32 L19.9738787,32 C20.5593145,32 21.0303548,31.521572 21.0303548,30.9269543 L21.0303548,1.07304571 C21.0370839,0.478428022 20.5660436,0 19.9806079,0 Z" id="Shape"></path>
                </g>
            </g>
        </g>
    </g>
</svg>