<?xml version="1.0" encoding="UTF-8" standalone="no"?>
<svg width="27px" height="36px" viewBox="0 0 27 36" version="1.1" xmlns="http://www.w3.org/2000/svg" xmlns:xlink="http://www.w3.org/1999/xlink">
    <!-- Generator: Sketch 50.2 (55047) - http://www.bohemiancoding.com/sketch -->
    <title>Group</title>
    <desc>Created with Sketch.</desc>
    <defs></defs>
    <g id="Page-1" stroke="none" stroke-width="1" fill="none" fill-rule="evenodd">
        <g id="5-1-1modeling" transform="translate(-677.000000, -31.000000)" fill="#1D2B3C">
            <g id="progress" transform="translate(398.000000, 31.000000)">
                <g id="Group" transform="translate(279.000000, 0.000000)">
                    <path d="M8.79545455,29.4545455 L17.3863636,29.4545455 C18.177135,29.4545455 18.8181818,30.0955923 18.8181818,30.8863636 C18.8181818,31.677135 18.177135,32.3181818 17.3863636,32.3181818 L8.79545455,32.3181818 C8.0046832,32.3181818 7.36363636,31.677135 7.36363636,30.8863636 C7.36363636,30.0955923 8.0046832,29.4545455 8.79545455,29.4545455 Z M8.79545455,33.1363636 L17.3863636,33.1363636 C18.177135,33.1363636 18.8181818,33.7774105 18.8181818,34.5681818 C18.8181818,35.3589532 18.177135,36 17.3863636,36 L8.79545455,36 C8.0046832,36 7.36363636,35.3589532 7.36363636,34.5681818 C7.36363636,33.7774105 8.0046832,33.1363636 8.79545455,33.1363636 Z M22.9379147,21.7815422 C21.2238502,24.5440872 19.6038421,24.2744188 19.2084638,27.5005771 C19.1291037,28.1365936 18.5879948,28.6163905 17.9506488,28.6163905 L8.42847925,28.6163905 C7.78876285,28.6163905 7.25002436,28.1365936 7.17142278,27.4974355 C6.80458378,24.5050831 5.25160988,24.9372541 3.60382104,22.3456844 C3.60382104,22.3456844 2.65965387,20.8421303 2.67586723,20.864597 C2.04781307,19.8825365 0,16.4414216 0,13.1456738 C0,5.89883647 5.87132032,0 13.0897713,0 C20.3074638,0 26.1818182,5.89883647 26.1818182,13.1456738 C26.1818182,16.444468 24.135617,19.885678 23.5197939,20.8421303 L22.9379147,21.7815422 Z M8.79101562,10.5693359 C8.79101562,10.8388685 8.90380747,11.0893543 9.12939453,11.3208008 C9.3549816,11.5522473 9.6318343,11.6679688 9.95996094,11.6679688 C10.5166043,11.6679688 10.8945303,11.3369174 11.09375,10.6748047 C11.3046886,10.041989 11.5624985,9.56298991 11.8671875,9.23779297 C12.1718765,8.91259603 12.6464812,8.75 13.2910156,8.75 C13.8417996,8.75 14.2915022,8.9111312 14.6401367,9.23339844 C14.9887713,9.55566567 15.1630859,9.95116953 15.1630859,10.4199219 C15.1630859,10.6601575 15.1059576,10.8828115 14.9916992,11.0878906 C14.8774408,11.2929698 14.7368172,11.4790031 14.5698242,11.6459961 C14.4028312,11.8129891 14.1318378,12.0605452 13.7568359,12.3886719 C13.3290994,12.7636737 12.9892591,13.087401 12.7373047,13.3598633 C12.4853503,13.6323256 12.2832039,13.9487287 12.1308594,14.309082 C11.9785149,14.6694354 11.9023438,15.0957007 11.9023438,15.5878906 C11.9023438,15.9804707 12.0063466,16.2763662 12.2143555,16.4755859 C12.4223643,16.6748057 12.6787094,16.7744141 12.9833984,16.7744141 C13.5693389,16.7744141 13.9179682,16.4697296 14.0292969,15.8603516 C14.0937503,15.5732408 14.1420897,15.3725592 14.1743164,15.2583008 C14.2065431,15.1440424 14.2519528,15.0297857 14.3105469,14.9155273 C14.3691409,14.801269 14.4584955,14.6752937 14.5786133,14.5375977 C14.6987311,14.3999017 14.8583974,14.2402353 15.0576172,14.0585938 C15.7783239,13.4140593 16.2778306,12.9555678 16.5561523,12.6831055 C16.834474,12.4106432 17.074706,12.0869159 17.2768555,11.7119141 C17.4790049,11.3369122 17.5800781,10.9003931 17.5800781,10.4023438 C17.5800781,9.76952809 17.4028338,9.18359645 17.0483398,8.64453125 C16.6938459,8.10546605 16.1914095,7.67920079 15.5410156,7.36572266 C14.8906217,7.05224453 14.1406292,6.89550781 13.2910156,6.89550781 C12.3769486,6.89550781 11.5771519,7.08300594 10.8916016,7.45800781 C10.2060513,7.83300969 9.6845721,8.30614949 9.32714844,8.87744141 C8.96972478,9.44873333 8.79101562,10.0126925 8.79101562,10.5693359 Z M13.0800781,20.2021484 C13.425783,20.2021484 13.7304674,20.0849621 13.9941406,19.8505859 C14.2578138,19.6162098 14.3896484,19.2939474 14.3896484,18.8837891 C14.3896484,18.5146466 14.2636731,18.2041028 14.0117187,17.9521484 C13.7597644,17.7001941 13.4492206,17.5742188 13.0800781,17.5742188 C12.7050762,17.5742188 12.3886732,17.7001941 12.1308594,17.9521484 C11.8730456,18.2041028 11.7441406,18.5146466 11.7441406,18.8837891 C11.7441406,19.2998068 11.8774401,19.623534 12.144043,19.8549805 C12.4106459,20.0864269 12.7226545,20.2021484 13.0800781,20.2021484 Z" id="business_problem"></path>
                </g>
            </g>
        </g>
    </g>
</svg>