<?xml version="1.0" encoding="UTF-8" standalone="no"?>
<svg width="34px" height="31px" viewBox="0 0 34 31" version="1.1" xmlns="http://www.w3.org/2000/svg" xmlns:xlink="http://www.w3.org/1999/xlink">
    <!-- Generator: Sketch 50.2 (55047) - http://www.bohemiancoding.com/sketch -->
    <title>icon_sign_up/in</title>
    <desc>Created with Sketch.</desc>
    <defs></defs>
    <g id="Page-1" stroke="none" stroke-width="1" fill="none" fill-rule="evenodd">
        <g id="0-1-4sign-up_warning" transform="translate(-1740.000000, -46.000000)" fill="#1D2B3C" fill-rule="nonzero">
            <path d="M1743.4,67.2999689 L1747.36667,67.2999689 L1747.36667,72.6333333 L1770.03333,72.6333333 L1770.03333,49.9666667 L1747.36667,49.9666667 L1747.36667,55.5270534 L1743.4,55.5270534 L1743.4,49.9666667 C1743.4,47.7759372 1745.17594,46 1747.36667,46 L1770.03333,46 C1772.22406,46 1774,47.7759372 1774,49.9666667 L1774,72.6333333 C1774,74.8240628 1772.22406,76.6 1770.03333,76.6 L1747.36667,76.6 C1745.17594,76.6 1743.4,74.8240628 1743.4,72.6333333 L1743.4,67.2999689 Z M1755.3,59.0333333 L1755.3,53.3666667 L1766.06667,61.5833333 L1755.3,69.8 L1755.3,63.5666667 L1740,63.5666667 L1740,59.0333333 L1755.3,59.0333333 Z M1747.36667,67.2999689 L1747.36667,72.6333333 L1770.03333,72.6333333 L1770.03333,49.9666667 L1747.36667,49.9666667 L1747.36667,55.5270534 L1743.4,55.5270534 L1743.4,49.9666667 C1743.4,47.7759372 1745.17594,46 1747.36667,46 L1770.03333,46 C1772.22406,46 1774,47.7759372 1774,49.9666667 L1774,72.6333333 C1774,74.8240628 1772.22406,76.6 1770.03333,76.6 L1747.36667,76.6 C1745.17594,76.6 1743.4,74.8240628 1743.4,72.6333333 L1743.4,67.2999689 L1747.36667,67.2999689 Z" id="icon_sign_up/in"></path>
        </g>
    </g>
</svg>