<?xml version="1.0" encoding="UTF-8"?>
<svg width="280px" height="70px" viewBox="0 0 280 70" version="1.1" xmlns="http://www.w3.org/2000/svg" xmlns:xlink="http://www.w3.org/1999/xlink">
    <!-- Generator: Sketch 43.1 (39012) - http://www.bohemiancoding.com/sketch -->
    <title>Btn-ModelComparison-normal</title>
    <desc>Created with Sketch.</desc>
    <defs>
        <rect id="path-1" x="2.84217094e-14" y="0" width="267" height="68" rx="10"></rect>
    </defs>
    <g id="AdvancedModelView-forAlpha" stroke="none" stroke-width="1" fill="none" fill-rule="evenodd">
        <g id="Btn-ModelComparison-normal">
            <g id="iconModelsCompareCharts" transform="translate(7.000000, 1.000000)">
                <g id="Rectangle-17">
                    <use fill="#FFFFFF" fill-rule="evenodd" xlink:href="#path-1"></use>
                    <rect stroke="#4A4A4A" stroke-width="1" x="0.5" y="0.5" width="266" height="67" rx="10"></rect>
                </g>
                <path d="M87.7460938,60 L87.7460938,54.21875 L89.4960938,54.21875 C90.050784,54.21875 90.47591,54.3411446 90.7714844,54.5859375 C91.0670588,54.8307304 91.2148438,55.1861956 91.2148438,55.6523438 C91.2148438,56.4231809 90.8255247,56.9700505 90.046875,57.2929688 L91.9765625,60 L90.96875,60 L89.3242188,57.5546875 L88.5585938,57.5546875 L88.5585938,60 L87.7460938,60 Z M88.5585938,56.9414062 L88.8242188,56.9414062 C89.8554739,56.9414062 90.3710938,56.5364624 90.3710938,55.7265625 C90.3710938,55.1302054 89.9388064,54.8320312 89.0742188,54.8320312 L88.5585938,54.8320312 L88.5585938,56.9414062 Z M95.1328125,60.1445312 C94.3307252,60.1445312 93.6855493,59.8665392 93.1972656,59.3105469 C92.7089819,58.7545545 92.4648438,58.0195358 92.4648438,57.1054688 C92.4648438,56.1861933 92.710284,55.4511746 93.2011719,54.9003906 C93.6920597,54.3496066 94.3476521,54.0742188 95.1679688,54.0742188 C95.9856812,54.0742188 96.6406225,54.3489556 97.1328125,54.8984375 C97.6250025,55.4479194 97.8710938,56.180985 97.8710938,57.0976562 C97.8710938,58.0325568 97.6250025,58.7740858 97.1328125,59.3222656 C96.6406225,59.8704454 95.9739625,60.1445312 95.1328125,60.1445312 Z M95.1445312,59.53125 C95.73568,59.53125 96.1927067,59.3183615 96.515625,58.8925781 C96.8385433,58.4667947 97,57.8658893 97,57.0898438 C97,56.3372358 96.8378922,55.7487 96.5136719,55.3242188 C96.1894515,54.8997375 95.7408883,54.6875 95.1679688,54.6875 C94.592445,54.6875 94.1432308,54.9003885 93.8203125,55.3261719 C93.4973942,55.7519553 93.3359375,56.3437462 93.3359375,57.1015625 C93.3359375,57.8567746 93.4960921,58.4505187 93.8164062,58.8828125 C94.1367204,59.3151063 94.5794243,59.53125 95.1445312,59.53125 Z M101.496094,60.1445312 C100.597652,60.1445312 99.9036483,59.880862 99.4140625,59.3535156 C98.9244767,58.8261692 98.6796875,58.0794319 98.6796875,57.1132812 C98.6796875,56.1497348 98.929034,55.4023464 99.4277344,54.8710938 C99.9264348,54.3398411 100.628902,54.0742188 101.535156,54.0742188 C102.053388,54.0742188 102.660153,54.1588533 103.355469,54.328125 L103.355469,55.0976562 C102.563798,54.8242174 101.953127,54.6875 101.523438,54.6875 C100.89583,54.6875 100.410158,54.8997375 100.066406,55.3242188 C99.7226545,55.7487 99.5507812,56.3476524 99.5507812,57.1210938 C99.5507812,57.8580766 99.7343732,58.439451 100.101562,58.8652344 C100.468752,59.2910178 100.970049,59.5039062 101.605469,59.5039062 C102.152346,59.5039062 102.738278,59.3359392 103.363281,59 L103.363281,59.703125 C102.792966,59.9973973 102.170576,60.1445312 101.496094,60.1445312 Z M109.5625,60.1445312 C108.664058,60.1445312 107.970055,59.880862 107.480469,59.3535156 C106.990883,58.8261692 106.746094,58.0794319 106.746094,57.1132812 C106.746094,56.1497348 106.99544,55.4023464 107.494141,54.8710938 C107.992841,54.3398411 108.695308,54.0742188 109.601562,54.0742188 C110.119794,54.0742188 110.726559,54.1588533 111.421875,54.328125 L111.421875,55.0976562 C110.630204,54.8242174 110.019533,54.6875 109.589844,54.6875 C108.962236,54.6875 108.476564,54.8997375 108.132812,55.3242188 C107.789061,55.7487 107.617188,56.3476524 107.617188,57.1210938 C107.617188,57.8580766 107.800779,58.439451 108.167969,58.8652344 C108.535158,59.2910178 109.036455,59.5039062 109.671875,59.5039062 C110.218753,59.5039062 110.804684,59.3359392 111.429688,59 L111.429688,59.703125 C110.859372,59.9973973 110.236983,60.1445312 109.5625,60.1445312 Z M115.296875,60 L115.296875,59.203125 C114.888019,59.7994821 114.39193,60.0976562 113.808594,60.0976562 C113.4388,60.0976562 113.144532,59.981121 112.925781,59.7480469 C112.70703,59.5149728 112.597656,59.2005228 112.597656,58.8046875 L112.597656,55.7578125 L113.367188,55.7578125 L113.367188,58.5546875 C113.367188,58.8723974 113.413411,59.0983066 113.505859,59.2324219 C113.598308,59.3665371 113.752603,59.4335938 113.96875,59.4335938 C114.437502,59.4335938 114.880206,59.1250031 115.296875,58.5078125 L115.296875,55.7578125 L116.066406,55.7578125 L116.066406,60 L115.296875,60 Z M117.609375,60 L117.609375,55.7578125 L118.378906,55.7578125 L118.378906,56.5546875 C118.683595,55.9609345 119.126299,55.6640625 119.707031,55.6640625 C119.785157,55.6640625 119.867187,55.6705729 119.953125,55.6835938 L119.953125,56.4023438 C119.820312,56.3580727 119.703126,56.3359375 119.601562,56.3359375 C119.114581,56.3359375 118.707033,56.6249971 118.378906,57.203125 L118.378906,60 L117.609375,60 Z M121.761719,60 L120.183594,55.7578125 L120.953125,55.7578125 L122.1875,59.0585938 L123.488281,55.7578125 L124.207031,55.7578125 L122.53125,60 L121.761719,60 Z M128.132812,59.8632812 C127.617185,60.019532 127.175783,60.0976562 126.808594,60.0976562 C126.183591,60.0976562 125.67383,59.889976 125.279297,59.4746094 C124.884764,59.0592427 124.6875,58.5208366 124.6875,57.859375 C124.6875,57.2161426 124.861326,56.6888041 125.208984,56.2773438 C125.556642,55.8658834 126.001299,55.6601562 126.542969,55.6601562 C127.055992,55.6601562 127.452473,55.8424461 127.732422,56.2070312 C128.012371,56.5716164 128.152344,57.0898404 128.152344,57.7617188 L128.148438,58 L125.472656,58 C125.584636,59.0078175 126.078121,59.5117188 126.953125,59.5117188 C127.273439,59.5117188 127.666664,59.4257821 128.132812,59.2539062 L128.132812,59.8632812 Z M125.507812,57.421875 L127.378906,57.421875 C127.378906,56.6328086 127.084638,56.2382812 126.496094,56.2382812 C125.904945,56.2382812 125.575521,56.6328086 125.507812,57.421875 Z" id="ROC-Curve" fill="#4A4A4A"></path>
                <path d="M6.87890625,59.1445312 C6.49088348,59.1445312 5.99479469,59.0598967 5.390625,58.890625 L5.390625,58.078125 C6.04166992,58.3802098 6.57682082,58.53125 6.99609375,58.53125 C7.31901203,58.53125 7.57877506,58.4466154 7.77539062,58.2773438 C7.97200619,58.1080721 8.0703125,57.885418 8.0703125,57.609375 C8.0703125,57.3828114 8.00586002,57.190105 7.87695312,57.03125 C7.74804623,56.872395 7.5104184,56.6953135 7.1640625,56.5 L6.765625,56.2695312 C6.27343504,55.9882798 5.9264333,55.7233085 5.72460938,55.4746094 C5.52278545,55.2259102 5.421875,54.9361996 5.421875,54.6054688 C5.421875,54.160154 5.58333172,53.7936212 5.90625,53.5058594 C6.22916828,53.2180975 6.6406225,53.0742188 7.140625,53.0742188 C7.58593973,53.0742188 8.05598711,53.1484368 8.55078125,53.296875 L8.55078125,54.046875 C7.9414032,53.8072905 7.48698066,53.6875 7.1875,53.6875 C6.90364441,53.6875 6.66927176,53.7630201 6.484375,53.9140625 C6.29947824,54.0651049 6.20703125,54.2552072 6.20703125,54.484375 C6.20703125,54.6770843 6.27473891,54.8476555 6.41015625,54.9960938 C6.54557359,55.144532 6.79296695,55.3216136 7.15234375,55.5273438 L7.56640625,55.7617188 C8.06640875,56.0455743 8.41536359,56.3138008 8.61328125,56.5664062 C8.81119891,56.8190117 8.91015625,57.1223941 8.91015625,57.4765625 C8.91015625,57.9791692 8.72461123,58.382811 8.35351562,58.6875 C7.98242002,58.992189 7.49088848,59.1445312 6.87890625,59.1445312 Z M10.078125,60.5429688 L10.078125,54.7578125 L10.8476562,54.7578125 L10.8476562,55.5546875 C11.162762,54.9609345 11.6354135,54.6640625 12.265625,54.6640625 C12.7760442,54.6640625 13.1777329,54.8502586 13.4707031,55.2226562 C13.7636733,55.5950539 13.9101562,56.1041634 13.9101562,56.75 C13.9101562,57.4531285 13.7441423,58.0201801 13.4121094,58.4511719 C13.0800765,58.8821636 12.6432319,59.0976562 12.1015625,59.0976562 C11.5989558,59.0976562 11.1809912,58.9049498 10.8476562,58.5195312 L10.8476562,60.5429688 L10.078125,60.5429688 Z M10.8476562,57.9882812 C11.2434916,58.3424497 11.621092,58.5195312 11.9804688,58.5195312 C12.7200558,58.5195312 13.0898438,57.9557348 13.0898438,56.828125 C13.0898438,55.8333284 12.761722,55.3359375 12.1054688,55.3359375 C11.6757791,55.3359375 11.2565125,55.5690081 10.8476562,56.0351562 L10.8476562,57.9882812 Z M18.2226562,58.8632812 C17.7070287,59.019532 17.2656268,59.0976562 16.8984375,59.0976562 C16.2734344,59.0976562 15.7636738,58.889976 15.3691406,58.4746094 C14.9746074,58.0592427 14.7773438,57.5208366 14.7773438,56.859375 C14.7773438,56.2161426 14.9511701,55.6888041 15.2988281,55.2773438 C15.6464861,54.8658834 16.0911431,54.6601562 16.6328125,54.6601562 C17.1458359,54.6601562 17.5423163,54.8424461 17.8222656,55.2070312 C18.1022149,55.5716164 18.2421875,56.0898404 18.2421875,56.7617188 L18.2382812,57 L15.5625,57 C15.6744797,58.0078175 16.1679644,58.5117188 17.0429688,58.5117188 C17.3632829,58.5117188 17.7565081,58.4257821 18.2226562,58.2539062 L18.2226562,58.8632812 Z M15.5976562,56.421875 L17.46875,56.421875 C17.46875,55.6328086 17.1744821,55.2382812 16.5859375,55.2382812 C15.9947887,55.2382812 15.6653649,55.6328086 15.5976562,56.421875 Z M22.6796875,58.8632812 C22.1640599,59.019532 21.7226581,59.0976562 21.3554688,59.0976562 C20.7304656,59.0976562 20.2207051,58.889976 19.8261719,58.4746094 C19.4316387,58.0592427 19.234375,57.5208366 19.234375,56.859375 C19.234375,56.2161426 19.4082014,55.6888041 19.7558594,55.2773438 C20.1035174,54.8658834 20.5481744,54.6601562 21.0898438,54.6601562 C21.6028671,54.6601562 21.9993476,54.8424461 22.2792969,55.2070312 C22.5592462,55.5716164 22.6992188,56.0898404 22.6992188,56.7617188 L22.6953125,57 L20.0195312,57 C20.131511,58.0078175 20.6249956,58.5117188 21.5,58.5117188 C21.8203141,58.5117188 22.2135393,58.4257821 22.6796875,58.2539062 L22.6796875,58.8632812 Z M20.0546875,56.421875 L21.9257812,56.421875 C21.9257812,55.6328086 21.6315134,55.2382812 21.0429688,55.2382812 C20.45182,55.2382812 20.1223962,55.6328086 20.0546875,56.421875 Z M26.75,59 L26.75,58.203125 C26.4374984,58.7994821 25.966149,59.0976562 25.3359375,59.0976562 C24.8255183,59.0976562 24.4238296,58.9114602 24.1308594,58.5390625 C23.8378892,58.1666648 23.6914062,57.6575553 23.6914062,57.0117188 C23.6914062,56.3059861 23.8574202,55.7382834 24.1894531,55.3085938 C24.521486,54.8789041 24.9583306,54.6640625 25.5,54.6640625 C26.0026067,54.6640625 26.4192692,54.8567689 26.75,55.2421875 L26.75,52.8320312 L27.5234375,52.8320312 L27.5234375,59 L26.75,59 Z M26.75,55.7695312 C26.3515605,55.417967 25.9739601,55.2421875 25.6171875,55.2421875 C24.8802046,55.2421875 24.5117188,55.8059839 24.5117188,56.9335938 C24.5117188,57.9257862 24.8398405,58.421875 25.4960938,58.421875 C25.9231792,58.421875 26.3411438,58.1888044 26.75,57.7226562 L26.75,55.7695312 Z M33.1484375,59 L30.9648438,53.21875 L31.7851562,53.21875 L33.5742188,57.953125 L35.3007812,53.21875 L36.0195312,53.21875 L33.921875,59 L33.1484375,59 Z M37.9335938,59.1445312 C37.545571,59.1445312 37.0494822,59.0598967 36.4453125,58.890625 L36.4453125,58.078125 C37.0963574,58.3802098 37.6315083,58.53125 38.0507812,58.53125 C38.3736995,58.53125 38.6334626,58.4466154 38.8300781,58.2773438 C39.0266937,58.1080721 39.125,57.885418 39.125,57.609375 C39.125,57.3828114 39.0605475,57.190105 38.9316406,57.03125 C38.8027337,56.872395 38.5651059,56.6953135 38.21875,56.5 L37.8203125,56.2695312 C37.3281225,55.9882798 36.9811208,55.7233085 36.7792969,55.4746094 C36.5774729,55.2259102 36.4765625,54.9361996 36.4765625,54.6054688 C36.4765625,54.160154 36.6380192,53.7936212 36.9609375,53.5058594 C37.2838558,53.2180975 37.69531,53.0742188 38.1953125,53.0742188 C38.6406272,53.0742188 39.1106746,53.1484368 39.6054688,53.296875 L39.6054688,54.046875 C38.9960907,53.8072905 38.5416682,53.6875 38.2421875,53.6875 C37.9583319,53.6875 37.7239593,53.7630201 37.5390625,53.9140625 C37.3541657,54.0651049 37.2617188,54.2552072 37.2617188,54.484375 C37.2617188,54.6770843 37.3294264,54.8476555 37.4648438,54.9960938 C37.6002611,55.144532 37.8476545,55.3216136 38.2070312,55.5273438 L38.6210938,55.7617188 C39.1210963,56.0455743 39.4700511,56.3138008 39.6679688,56.5664062 C39.8658864,56.8190117 39.9648438,57.1223941 39.9648438,57.4765625 C39.9648438,57.9791692 39.7792987,58.382811 39.4082031,58.6875 C39.0371075,58.992189 38.545576,59.1445312 37.9335938,59.1445312 Z M46.5703125,56.7890625 L45.5859375,54.296875 L44.5976562,56.7890625 L46.5703125,56.7890625 Z M47.4375,59 L46.8085938,57.3984375 L44.359375,57.3984375 L43.7226562,59 L42.9609375,59 L45.2539062,53.21875 L46.0664062,53.21875 L48.3242188,59 L47.4375,59 Z M50.8398438,59.0976562 C50.2669242,59.0976562 49.7916686,58.8854188 49.4140625,58.4609375 C49.0364564,58.0364562 48.8476562,57.5013053 48.8476562,56.8554688 C48.8476562,56.1653611 49.0345033,55.6276061 49.4082031,55.2421875 C49.7819029,54.8567689 50.3033821,54.6640625 50.9726562,54.6640625 C51.3033871,54.6640625 51.673175,54.709635 52.0820312,54.8007812 L52.0820312,55.4453125 C51.6471332,55.3177077 51.2929701,55.2539062 51.0195312,55.2539062 C50.6263001,55.2539062 50.3105481,55.4016912 50.0722656,55.6972656 C49.8339832,55.99284 49.7148438,56.3867163 49.7148438,56.8789062 C49.7148438,57.3554711 49.8372384,57.7408839 50.0820312,58.0351562 C50.3268241,58.3294286 50.6471334,58.4765625 51.0429688,58.4765625 C51.394533,58.4765625 51.7565086,58.3867196 52.1289062,58.2070312 L52.1289062,58.8710938 C51.6315079,59.0221362 51.2018247,59.0976562 50.8398438,59.0976562 Z M54.9375,59.0976562 C54.3645805,59.0976562 53.8893248,58.8854188 53.5117188,58.4609375 C53.1341127,58.0364562 52.9453125,57.5013053 52.9453125,56.8554688 C52.9453125,56.1653611 53.1321596,55.6276061 53.5058594,55.2421875 C53.8795592,54.8567689 54.4010383,54.6640625 55.0703125,54.6640625 C55.4010433,54.6640625 55.7708313,54.709635 56.1796875,54.8007812 L56.1796875,55.4453125 C55.7447895,55.3177077 55.3906264,55.2539062 55.1171875,55.2539062 C54.7239564,55.2539062 54.4082043,55.4016912 54.1699219,55.6972656 C53.9316394,55.99284 53.8125,56.3867163 53.8125,56.8789062 C53.8125,57.3554711 53.9348946,57.7408839 54.1796875,58.0351562 C54.4244804,58.3294286 54.7447897,58.4765625 55.140625,58.4765625 C55.4921893,58.4765625 55.8541648,58.3867196 56.2265625,58.2070312 L56.2265625,58.8710938 C55.7291642,59.0221362 55.299481,59.0976562 54.9375,59.0976562 Z M60.03125,59 L60.03125,58.203125 C59.6223938,58.7994821 59.126305,59.0976562 58.5429688,59.0976562 C58.1731752,59.0976562 57.8789073,58.981121 57.6601562,58.7480469 C57.4414052,58.5149728 57.3320312,58.2005228 57.3320312,57.8046875 L57.3320312,54.7578125 L58.1015625,54.7578125 L58.1015625,57.5546875 C58.1015625,57.8723974 58.147786,58.0983066 58.2402344,58.2324219 C58.3326828,58.3665371 58.4869781,58.4335938 58.703125,58.4335938 C59.1718773,58.4335938 59.6145813,58.1250031 60.03125,57.5078125 L60.03125,54.7578125 L60.8007812,54.7578125 L60.8007812,59 L60.03125,59 Z M62.34375,59 L62.34375,54.7578125 L63.1132812,54.7578125 L63.1132812,55.5546875 C63.4179703,54.9609345 63.8606742,54.6640625 64.4414062,54.6640625 C64.5195316,54.6640625 64.6015621,54.6705729 64.6875,54.6835938 L64.6875,55.4023438 C64.5546868,55.3580727 64.4375005,55.3359375 64.3359375,55.3359375 C63.8489559,55.3359375 63.4414079,55.6249971 63.1132812,56.203125 L63.1132812,59 L62.34375,59 Z M67.8046875,58.4609375 C67.3437477,58.8854188 66.8997417,59.0976562 66.4726562,59.0976562 C66.121092,59.0976562 65.8294282,58.9876313 65.5976562,58.7675781 C65.3658843,58.5475249 65.25,58.2695329 65.25,57.9335938 C65.25,57.4700498 65.4446595,57.1139335 65.8339844,56.8652344 C66.2233092,56.6165352 66.7812464,56.4921875 67.5078125,56.4921875 L67.6914062,56.4921875 L67.6914062,55.9804688 C67.6914062,55.4882788 67.4388046,55.2421875 66.9335938,55.2421875 C66.5273417,55.2421875 66.088544,55.3671863 65.6171875,55.6171875 L65.6171875,54.9804688 C66.1354193,54.7695302 66.6210915,54.6640625 67.0742188,54.6640625 C67.5481795,54.6640625 67.8977853,54.7708323 68.1230469,54.984375 C68.3483084,55.1979177 68.4609375,55.5299457 68.4609375,55.9804688 L68.4609375,57.9023438 C68.4609375,58.3424501 68.5963528,58.5625 68.8671875,58.5625 C68.9010418,58.5625 68.9505205,58.5572917 69.015625,58.546875 L69.0703125,58.9726562 C68.8958325,59.05599 68.7031261,59.0976562 68.4921875,59.0976562 C68.1328107,59.0976562 67.9036463,58.8854188 67.8046875,58.4609375 Z M67.6914062,58.0429688 L67.6914062,56.9453125 L67.4335938,56.9375 C67.0117166,56.9375 66.6705742,57.0175773 66.4101562,57.1777344 C66.1497383,57.3378914 66.0195312,57.5481758 66.0195312,57.8085938 C66.0195312,57.9934905 66.0846348,58.1497389 66.2148438,58.2773438 C66.3450527,58.4049486 66.5039053,58.46875 66.6914062,58.46875 C67.0117204,58.46875 67.3450504,58.3268243 67.6914062,58.0429688 Z M71.6914062,59.0976562 C71.1184867,59.0976562 70.6432311,58.8854188 70.265625,58.4609375 C69.8880189,58.0364562 69.6992188,57.5013053 69.6992188,56.8554688 C69.6992188,56.1653611 69.8860658,55.6276061 70.2597656,55.2421875 C70.6334654,54.8567689 71.1549446,54.6640625 71.8242188,54.6640625 C72.1549496,54.6640625 72.5247375,54.709635 72.9335938,54.8007812 L72.9335938,55.4453125 C72.4986957,55.3177077 72.1445326,55.2539062 71.8710938,55.2539062 C71.4778626,55.2539062 71.1621106,55.4016912 70.9238281,55.6972656 C70.6855457,55.99284 70.5664062,56.3867163 70.5664062,56.8789062 C70.5664062,57.3554711 70.6888009,57.7408839 70.9335938,58.0351562 C71.1783866,58.3294286 71.4986959,58.4765625 71.8945312,58.4765625 C72.2460955,58.4765625 72.6080711,58.3867196 72.9804688,58.2070312 L72.9804688,58.8710938 C72.4830704,59.0221362 72.0533872,59.0976562 71.6914062,59.0976562 Z M74.3789062,60.5429688 L75.0664062,59 L73.4257812,54.7578125 L74.2578125,54.7578125 L75.4726562,57.953125 L76.7695312,54.7578125 L77.4960938,54.7578125 L75.1796875,60.5429688 L74.3789062,60.5429688 Z" id="Speed-VS-Accuracy" fill="#4A4A4A"></path>
                <path d="M147.746094,60 L147.746094,54.21875 L148.566406,54.21875 L148.566406,59.3867188 L151.167969,59.3867188 L151.167969,60 L147.746094,60 Z M152.035156,60 L152.035156,55.7578125 L152.804688,55.7578125 L152.804688,60 L152.035156,60 Z M152.035156,54.9882812 L152.035156,54.21875 L152.804688,54.21875 L152.804688,54.9882812 L152.035156,54.9882812 Z M155.265625,56.3359375 L155.265625,60 L154.492188,60 L154.492188,56.3359375 L153.890625,56.3359375 L153.890625,55.7578125 L154.492188,55.7578125 L154.492188,55.25 C154.492188,54.2395783 154.95312,53.734375 155.875,53.734375 C156.132814,53.734375 156.42578,53.7773433 156.753906,53.8632812 L156.753906,54.4726562 C156.40755,54.3658849 156.130209,54.3125 155.921875,54.3125 C155.66927,54.3125 155.496745,54.3730463 155.404297,54.4941406 C155.311848,54.615235 155.265625,54.8398421 155.265625,55.1679688 L155.265625,55.7578125 L156.324219,55.7578125 L156.324219,56.3359375 L155.265625,56.3359375 Z M158.5625,60.0976562 C158.171873,60.0976562 157.867189,59.9856782 157.648438,59.7617188 C157.429686,59.5377593 157.320312,59.2265645 157.320312,58.828125 L157.320312,56.3359375 L156.789062,56.3359375 L156.789062,55.7578125 L157.320312,55.7578125 L157.320312,54.9882812 L158.089844,54.9140625 L158.089844,55.7578125 L159.199219,55.7578125 L159.199219,56.3359375 L158.089844,56.3359375 L158.089844,58.6875 C158.089844,59.2421903 158.329425,59.5195312 158.808594,59.5195312 C158.910157,59.5195312 159.033853,59.5026043 159.179688,59.46875 L159.179688,60 C158.942707,60.0651045 158.73698,60.0976562 158.5625,60.0976562 Z M165.265625,60.1445312 C164.367183,60.1445312 163.67318,59.880862 163.183594,59.3535156 C162.694008,58.8261692 162.449219,58.0794319 162.449219,57.1132812 C162.449219,56.1497348 162.698565,55.4023464 163.197266,54.8710938 C163.695966,54.3398411 164.398433,54.0742188 165.304688,54.0742188 C165.822919,54.0742188 166.429684,54.1588533 167.125,54.328125 L167.125,55.0976562 C166.333329,54.8242174 165.722658,54.6875 165.292969,54.6875 C164.665361,54.6875 164.179689,54.8997375 163.835938,55.3242188 C163.492186,55.7487 163.320312,56.3476524 163.320312,57.1210938 C163.320312,57.8580766 163.503904,58.439451 163.871094,58.8652344 C164.238283,59.2910178 164.73958,59.5039062 165.375,59.5039062 C165.921878,59.5039062 166.507809,59.3359392 167.132812,59 L167.132812,59.703125 C166.562497,59.9973973 165.940108,60.1445312 165.265625,60.1445312 Z M168.347656,60 L168.347656,53.8320312 L169.117188,53.8320312 L169.117188,56.5546875 C169.52344,55.9609345 170.02083,55.6640625 170.609375,55.6640625 C170.976564,55.6640625 171.26953,55.7805978 171.488281,56.0136719 C171.707032,56.246746 171.816406,56.5598939 171.816406,56.953125 L171.816406,60 L171.046875,60 L171.046875,57.203125 C171.046875,56.8880193 171.000652,56.6634121 170.908203,56.5292969 C170.815755,56.3951816 170.662761,56.328125 170.449219,56.328125 C169.977862,56.328125 169.533856,56.6367157 169.117188,57.2539062 L169.117188,60 L168.347656,60 Z M175.5,59.4609375 C175.03906,59.8854188 174.595054,60.0976562 174.167969,60.0976562 C173.816404,60.0976562 173.524741,59.9876313 173.292969,59.7675781 C173.061197,59.5475249 172.945312,59.2695329 172.945312,58.9335938 C172.945312,58.4700498 173.139972,58.1139335 173.529297,57.8652344 C173.918622,57.6165352 174.476559,57.4921875 175.203125,57.4921875 L175.386719,57.4921875 L175.386719,56.9804688 C175.386719,56.4882788 175.134117,56.2421875 174.628906,56.2421875 C174.222654,56.2421875 173.783857,56.3671863 173.3125,56.6171875 L173.3125,55.9804688 C173.830732,55.7695302 174.316404,55.6640625 174.769531,55.6640625 C175.243492,55.6640625 175.593098,55.7708323 175.818359,55.984375 C176.043621,56.1979177 176.15625,56.5299457 176.15625,56.9804688 L176.15625,58.9023438 C176.15625,59.3424501 176.291665,59.5625 176.5625,59.5625 C176.596354,59.5625 176.645833,59.5572917 176.710938,59.546875 L176.765625,59.9726562 C176.591145,60.05599 176.398439,60.0976562 176.1875,60.0976562 C175.828123,60.0976562 175.598959,59.8854188 175.5,59.4609375 Z M175.386719,59.0429688 L175.386719,57.9453125 L175.128906,57.9375 C174.707029,57.9375 174.365887,58.0175773 174.105469,58.1777344 C173.845051,58.3378914 173.714844,58.5481758 173.714844,58.8085938 C173.714844,58.9934905 173.779947,59.1497389 173.910156,59.2773438 C174.040365,59.4049486 174.199218,59.46875 174.386719,59.46875 C174.707033,59.46875 175.040363,59.3268243 175.386719,59.0429688 Z M177.730469,60 L177.730469,55.7578125 L178.5,55.7578125 L178.5,56.5546875 C178.804689,55.9609345 179.247393,55.6640625 179.828125,55.6640625 C179.90625,55.6640625 179.988281,55.6705729 180.074219,55.6835938 L180.074219,56.4023438 C179.941406,56.3580727 179.824219,56.3359375 179.722656,56.3359375 C179.235675,56.3359375 178.828127,56.6249971 178.5,57.203125 L178.5,60 L177.730469,60 Z M182.277344,60.0976562 C181.886717,60.0976562 181.582032,59.9856782 181.363281,59.7617188 C181.14453,59.5377593 181.035156,59.2265645 181.035156,58.828125 L181.035156,56.3359375 L180.503906,56.3359375 L180.503906,55.7578125 L181.035156,55.7578125 L181.035156,54.9882812 L181.804688,54.9140625 L181.804688,55.7578125 L182.914062,55.7578125 L182.914062,56.3359375 L181.804688,56.3359375 L181.804688,58.6875 C181.804688,59.2421903 182.044268,59.5195312 182.523438,59.5195312 C182.625001,59.5195312 182.748697,59.5026043 182.894531,59.46875 L182.894531,60 C182.657551,60.0651045 182.451824,60.0976562 182.277344,60.0976562 Z" id="Lift-Chart" fill="#4A4A4A"></path>
                <path d="M199.746094,60 L199.746094,54.21875 L200.566406,54.21875 L200.566406,59.3867188 L203.167969,59.3867188 L203.167969,60 L199.746094,60 Z M207.144531,59.8632812 C206.628904,60.019532 206.187502,60.0976562 205.820312,60.0976562 C205.195309,60.0976562 204.685549,59.889976 204.291016,59.4746094 C203.896482,59.0592427 203.699219,58.5208366 203.699219,57.859375 C203.699219,57.2161426 203.873045,56.6888041 204.220703,56.2773438 C204.568361,55.8658834 205.013018,55.6601562 205.554688,55.6601562 C206.067711,55.6601562 206.464191,55.8424461 206.744141,56.2070312 C207.02409,56.5716164 207.164062,57.0898404 207.164062,57.7617188 L207.160156,58 L204.484375,58 C204.596355,59.0078175 205.089839,59.5117188 205.964844,59.5117188 C206.285158,59.5117188 206.678383,59.4257821 207.144531,59.2539062 L207.144531,59.8632812 Z M204.519531,57.421875 L206.390625,57.421875 C206.390625,56.6328086 206.096357,56.2382812 205.507812,56.2382812 C204.916664,56.2382812 204.58724,56.6328086 204.519531,57.421875 Z M210.679688,59.4609375 C210.218748,59.8854188 209.774742,60.0976562 209.347656,60.0976562 C208.996092,60.0976562 208.704428,59.9876313 208.472656,59.7675781 C208.240884,59.5475249 208.125,59.2695329 208.125,58.9335938 C208.125,58.4700498 208.31966,58.1139335 208.708984,57.8652344 C209.098309,57.6165352 209.656246,57.4921875 210.382812,57.4921875 L210.566406,57.4921875 L210.566406,56.9804688 C210.566406,56.4882788 210.313805,56.2421875 209.808594,56.2421875 C209.402342,56.2421875 208.963544,56.3671863 208.492188,56.6171875 L208.492188,55.9804688 C209.010419,55.7695302 209.496091,55.6640625 209.949219,55.6640625 C210.423179,55.6640625 210.772785,55.7708323 210.998047,55.984375 C211.223308,56.1979177 211.335938,56.5299457 211.335938,56.9804688 L211.335938,58.9023438 C211.335938,59.3424501 211.471353,59.5625 211.742188,59.5625 C211.776042,59.5625 211.825521,59.5572917 211.890625,59.546875 L211.945312,59.9726562 C211.770832,60.05599 211.578126,60.0976562 211.367188,60.0976562 C211.007811,60.0976562 210.778646,59.8854188 210.679688,59.4609375 Z M210.566406,59.0429688 L210.566406,57.9453125 L210.308594,57.9375 C209.886717,57.9375 209.545574,58.0175773 209.285156,58.1777344 C209.024738,58.3378914 208.894531,58.5481758 208.894531,58.8085938 C208.894531,58.9934905 208.959635,59.1497389 209.089844,59.2773438 C209.220053,59.4049486 209.378905,59.46875 209.566406,59.46875 C209.88672,59.46875 210.22005,59.3268243 210.566406,59.0429688 Z M212.910156,60 L212.910156,55.7578125 L213.679688,55.7578125 L213.679688,56.5546875 C213.984377,55.9609345 214.42708,55.6640625 215.007812,55.6640625 C215.085938,55.6640625 215.167968,55.6705729 215.253906,55.6835938 L215.253906,56.4023438 C215.121093,56.3580727 215.003907,56.3359375 214.902344,56.3359375 C214.415362,56.3359375 214.007814,56.6249971 213.679688,57.203125 L213.679688,60 L212.910156,60 Z M216.183594,60 L216.183594,55.7578125 L216.953125,55.7578125 L216.953125,56.5546875 C217.359377,55.9609345 217.856768,55.6640625 218.445312,55.6640625 C218.812502,55.6640625 219.105468,55.7805978 219.324219,56.0136719 C219.54297,56.246746 219.652344,56.5598939 219.652344,56.953125 L219.652344,60 L218.882812,60 L218.882812,57.203125 C218.882812,56.8880193 218.836589,56.6634121 218.744141,56.5292969 C218.651692,56.3951816 218.498699,56.328125 218.285156,56.328125 C217.8138,56.328125 217.369794,56.6367157 216.953125,57.2539062 L216.953125,60 L216.183594,60 Z M221.148438,60 L221.148438,55.7578125 L221.917969,55.7578125 L221.917969,60 L221.148438,60 Z M221.148438,54.9882812 L221.148438,54.21875 L221.917969,54.21875 L221.917969,54.9882812 L221.148438,54.9882812 Z M223.460938,60 L223.460938,55.7578125 L224.230469,55.7578125 L224.230469,56.5546875 C224.636721,55.9609345 225.134112,55.6640625 225.722656,55.6640625 C226.089846,55.6640625 226.382811,55.7805978 226.601562,56.0136719 C226.820314,56.246746 226.929688,56.5598939 226.929688,56.953125 L226.929688,60 L226.160156,60 L226.160156,57.203125 C226.160156,56.8880193 226.113933,56.6634121 226.021484,56.5292969 C225.929036,56.3951816 225.776043,56.328125 225.5625,56.328125 C225.091143,56.328125 224.647137,56.6367157 224.230469,57.2539062 L224.230469,60 L223.460938,60 Z M228.441406,61.4101562 L228.53125,60.7421875 C228.976565,60.9531261 229.415362,61.0585938 229.847656,61.0585938 C230.714848,61.0585938 231.148438,60.5989629 231.148438,59.6796875 L231.148438,59.0117188 C230.864582,59.6054717 230.398441,59.9023438 229.75,59.9023438 C229.242185,59.9023438 228.838543,59.7174498 228.539062,59.3476562 C228.239582,58.9778627 228.089844,58.4791698 228.089844,57.8515625 C228.089844,57.2057259 228.260415,56.6796895 228.601562,56.2734375 C228.94271,55.8671855 229.384112,55.6640625 229.925781,55.6640625 C230.399742,55.6640625 230.80729,55.8567689 231.148438,56.2421875 L231.148438,55.7578125 L231.921875,55.7578125 L231.921875,58.84375 C231.921875,59.5078158 231.88737,59.9993474 231.818359,60.3183594 C231.749349,60.6373714 231.619793,60.8984365 231.429688,61.1015625 C231.093748,61.4583351 230.571618,61.6367188 229.863281,61.6367188 C229.368487,61.6367188 228.894534,61.5611987 228.441406,61.4101562 Z M231.148438,58.53125 L231.148438,56.7695312 C230.809894,56.417967 230.441408,56.2421875 230.042969,56.2421875 C229.6888,56.2421875 229.411459,56.3841132 229.210938,56.6679688 C229.010416,56.9518243 228.910156,57.3411434 228.910156,57.8359375 C228.910156,58.7656296 229.236976,59.2304688 229.890625,59.2304688 C230.33594,59.2304688 230.755206,58.9973982 231.148438,58.53125 Z M238.398438,60.1445312 C237.499996,60.1445312 236.805992,59.880862 236.316406,59.3535156 C235.82682,58.8261692 235.582031,58.0794319 235.582031,57.1132812 C235.582031,56.1497348 235.831378,55.4023464 236.330078,54.8710938 C236.828779,54.3398411 237.531245,54.0742188 238.4375,54.0742188 C238.955732,54.0742188 239.562497,54.1588533 240.257812,54.328125 L240.257812,55.0976562 C239.466142,54.8242174 238.855471,54.6875 238.425781,54.6875 C237.798174,54.6875 237.312502,54.8997375 236.96875,55.3242188 C236.624998,55.7487 236.453125,56.3476524 236.453125,57.1210938 C236.453125,57.8580766 236.636717,58.439451 237.003906,58.8652344 C237.371096,59.2910178 237.872393,59.5039062 238.507812,59.5039062 C239.05469,59.5039062 239.640622,59.3359392 240.265625,59 L240.265625,59.703125 C239.69531,59.9973973 239.07292,60.1445312 238.398438,60.1445312 Z M244.132812,60 L244.132812,59.203125 C243.723956,59.7994821 243.227868,60.0976562 242.644531,60.0976562 C242.274738,60.0976562 241.98047,59.981121 241.761719,59.7480469 C241.542968,59.5149728 241.433594,59.2005228 241.433594,58.8046875 L241.433594,55.7578125 L242.203125,55.7578125 L242.203125,58.5546875 C242.203125,58.8723974 242.249348,59.0983066 242.341797,59.2324219 C242.434245,59.3665371 242.588541,59.4335938 242.804688,59.4335938 C243.27344,59.4335938 243.716144,59.1250031 244.132812,58.5078125 L244.132812,55.7578125 L244.902344,55.7578125 L244.902344,60 L244.132812,60 Z M246.445312,60 L246.445312,55.7578125 L247.214844,55.7578125 L247.214844,56.5546875 C247.519533,55.9609345 247.962237,55.6640625 248.542969,55.6640625 C248.621094,55.6640625 248.703125,55.6705729 248.789062,55.6835938 L248.789062,56.4023438 C248.656249,56.3580727 248.539063,56.3359375 248.4375,56.3359375 C247.950518,56.3359375 247.54297,56.6249971 247.214844,57.203125 L247.214844,60 L246.445312,60 Z M250.597656,60 L249.019531,55.7578125 L249.789062,55.7578125 L251.023438,59.0585938 L252.324219,55.7578125 L253.042969,55.7578125 L251.367188,60 L250.597656,60 Z M256.96875,59.8632812 C256.453122,60.019532 256.011721,60.0976562 255.644531,60.0976562 C255.019528,60.0976562 254.509768,59.889976 254.115234,59.4746094 C253.720701,59.0592427 253.523438,58.5208366 253.523438,57.859375 C253.523438,57.2161426 253.697264,56.6888041 254.044922,56.2773438 C254.39258,55.8658834 254.837237,55.6601562 255.378906,55.6601562 C255.89193,55.6601562 256.28841,55.8424461 256.568359,56.2070312 C256.848309,56.5716164 256.988281,57.0898404 256.988281,57.7617188 L256.984375,58 L254.308594,58 C254.420573,59.0078175 254.914058,59.5117188 255.789062,59.5117188 C256.109377,59.5117188 256.502602,59.4257821 256.96875,59.2539062 L256.96875,59.8632812 Z M254.34375,57.421875 L256.214844,57.421875 C256.214844,56.6328086 255.920576,56.2382812 255.332031,56.2382812 C254.740882,56.2382812 254.411459,56.6328086 254.34375,57.421875 Z" id="Learning-Curve" fill="#4A4A4A"></path>
                <g id="RocCurveIcon" transform="translate(91.000000, 23.000000)" stroke-linecap="square">
                    <g id="ArrowRight" transform="translate(22.000000, 21.000000)" stroke="#4A4A4A">
                        <path d="M0.5,0.5 L2.5,2.5" id="Line"></path>
                        <path d="M0.5,2.5 L2.5,4.5" id="Line-Copy-25" transform="translate(1.500000, 3.500000) scale(1, -1) translate(-1.500000, -3.500000) "></path>
                    </g>
                    <g id="ArrowUp" transform="translate(2.500000, 1.500000) rotate(-90.000000) translate(-2.500000, -1.500000) translate(1.000000, -1.000000)" stroke="#4A4A4A">
                        <path d="M0.5,0.5 L2.5,2.5" id="Line"></path>
                        <path d="M0.5,2.5 L2.5,4.5" id="Line-Copy-25" transform="translate(1.500000, 3.500000) scale(1, -1) translate(-1.500000, -3.500000) "></path>
                    </g>
                    <path d="M3.5,22.5 C3.5,22.5 4.92323985,13.3705166 9.95964797,8.83648574 C14.9960561,4.30245487 23,4 23,4" id="Line" stroke="#4A4A4A" stroke-dasharray="3"></path>
                    <path d="M3.5,22.5 C3.5,22.5 7.78076172,13.4316406 12.2324219,8.97851562 C16.684082,4.52539063 23.1083984,4.09326172 23.1083984,4.09326172" id="Line" stroke="#979797" stroke-dasharray="2"></path>
                    <path d="M2.5,23.5 L23.5,23.5" id="Line" stroke="#4A4A4A"></path>
                    <path d="M2.5,22.5 L2.5,1.5" id="Line" stroke="#4A4A4A"></path>
                    <path d="M3.5,22.5 L23.5,4.5" id="Line" stroke="#D8D8D8" stroke-dasharray="3"></path>
                </g>
                <g id="Speed-VS-Accuracy" transform="translate(29.000000, 23.000000)">
                    <g id="ArrowRight" transform="translate(22.000000, 21.000000)" stroke="#4A4A4A" stroke-linecap="square">
                        <path d="M0.5,0.5 L2.5,2.5" id="Line"></path>
                        <path d="M0.5,2.5 L2.5,4.5" id="Line-Copy-25" transform="translate(1.500000, 3.500000) scale(1, -1) translate(-1.500000, -3.500000) "></path>
                    </g>
                    <g id="ArrowUp" transform="translate(2.500000, 1.500000) rotate(-90.000000) translate(-2.500000, -1.500000) translate(1.000000, -1.000000)" stroke="#4A4A4A" stroke-linecap="square">
                        <path d="M0.5,0.5 L2.5,2.5" id="Line"></path>
                        <path d="M0.5,2.5 L2.5,4.5" id="Line-Copy-25" transform="translate(1.500000, 3.500000) scale(1, -1) translate(-1.500000, -3.500000) "></path>
                    </g>
                    <path d="M2.5,23.5 L23.5,23.5" id="Line" stroke="#4A4A4A" stroke-linecap="square"></path>
                    <path d="M2.5,22.5 L2.5,1.5" id="Line" stroke="#4A4A4A" stroke-linecap="square"></path>
                    <circle id="Oval-5" fill="#9B9B9B" cx="7" cy="8" r="1"></circle>
                    <circle id="Oval-5-Copy-4" fill="#9B9B9B" cx="8" cy="18" r="1"></circle>
                    <circle id="Oval-5-Copy" stroke="#4A4A4A" fill="#4A4A4A" cx="11" cy="14" r="1"></circle>
                    <circle id="Oval-5-Copy-2" fill="#9B9B9B" cx="16" cy="14" r="1"></circle>
                    <circle id="Oval-5-Copy-3" fill="#9B9B9B" cx="18" cy="19" r="1"></circle>
                </g>
                <g id="LiftChartIcon" transform="translate(153.000000, 21.000000)">
                    <g id="ArrowRight" transform="translate(22.000000, 23.000000)" stroke="#4A4A4A" stroke-linecap="square">
                        <path d="M0.5,0.5 L2.5,2.5" id="Line"></path>
                        <path d="M0.5,2.5 L2.5,4.5" id="Line-Copy-25" transform="translate(1.500000, 3.500000) scale(1, -1) translate(-1.500000, -3.500000) "></path>
                    </g>
                    <g id="ArrowUp" transform="translate(2.500000, 3.500000) rotate(-90.000000) translate(-2.500000, -3.500000) translate(1.000000, 1.000000)" stroke="#4A4A4A" stroke-linecap="square">
                        <path d="M0.5,0.5 L2.5,2.5" id="Line"></path>
                        <path d="M0.5,2.5 L2.5,4.5" id="Line-Copy-25" transform="translate(1.500000, 3.500000) scale(1, -1) translate(-1.500000, -3.500000) "></path>
                    </g>
                    <path d="M2.5,25.5 L23.5,25.5" id="Line" stroke="#4A4A4A" stroke-linecap="square"></path>
                    <path d="M2.5,24.5 L2.5,3.5" id="Line" stroke="#4A4A4A" stroke-linecap="square"></path>
                    <g id="Line1" transform="translate(13.346049, 14.843583) scale(-1, 1) rotate(20.000000) translate(-13.346049, -14.843583) translate(6.846049, 1.843583)">
                        <path d="M0.464779502,25.9532196 L12.8458996,0.747048318" id="Line" stroke="#4A4A4A" stroke-linecap="square"></path>
                        <ellipse id="Oval-9" fill="#4A4A4A" cx="2.57954985" cy="21.8757008" rx="1.39433851" ry="1.39208509"></ellipse>
                        <ellipse id="Oval-9-Copy" fill="#4A4A4A" cx="5.0160731" cy="16.6377447" rx="1.39433851" ry="1.39208509"></ellipse>
                        <ellipse id="Oval-9-Copy-2" fill="#4A4A4A" cx="10.3340311" cy="6.05006495" rx="1.39433851" ry="1.39208509"></ellipse>
                        <ellipse id="Oval-9-Copy-3" fill="#4A4A4A" cx="7.45259636" cy="11.3997886" rx="1.39433851" ry="1.39208509"></ellipse>
                    </g>
                    <g id="Line1-Copy" transform="translate(12.373526, 14.715549) scale(-1, 1) rotate(20.000000) translate(-12.373526, -14.715549) translate(5.373526, 1.715549)">
                        <polyline id="Line" stroke="#9B9B9B" stroke-linecap="square" points="1.5 25.5 3.26870084 16.6161957 4.45425391 10.0172581 8.22605848 3.90239925 13.7416592 0.462817617"></polyline>
                        <circle id="Oval-9" fill="#9B9B9B" cx="2.21828724" cy="22.9023275" r="1.5"></circle>
                        <circle id="Oval-9-Copy" fill="#9B9B9B" cx="3.56030738" cy="15.8420201" r="1.5"></circle>
                        <circle id="Oval-9-Copy-2" fill="#9B9B9B" cx="8.45951675" cy="4.2704081" r="1.5"></circle>
                        <circle id="Oval-9-Copy-3" fill="#9B9B9B" cx="4.68092214" cy="9.52606043" r="1.5"></circle>
                    </g>
                </g>
                <g id="LearningCurveIcon" transform="translate(217.000000, 23.000000)">
                    <g id="ArrowRight-Copy" transform="translate(22.000000, 21.000000)" stroke="#4A4A4A" stroke-linecap="square">
                        <path d="M0.5,0.5 L2.5,2.5" id="Line"></path>
                        <path d="M0.5,2.5 L2.5,4.5" id="Line-Copy-25" transform="translate(1.500000, 3.500000) scale(1, -1) translate(-1.500000, -3.500000) "></path>
                    </g>
                    <g id="ArrowUp-Copy" transform="translate(2.500000, 1.500000) rotate(-90.000000) translate(-2.500000, -1.500000) translate(1.000000, -1.000000)" stroke="#4A4A4A" stroke-linecap="square">
                        <path d="M0.5,0.5 L2.5,2.5" id="Line"></path>
                        <path d="M0.5,2.5 L2.5,4.5" id="Line-Copy-25" transform="translate(1.500000, 3.500000) scale(1, -1) translate(-1.500000, -3.500000) "></path>
                    </g>
                    <path d="M2.5,23.5 L23.5,23.5" id="Line-Copy-28" stroke="#4A4A4A" stroke-linecap="square"></path>
                    <path d="M2.5,22.5 L2.5,1.5" id="Line-Copy-26" stroke="#4A4A4A" stroke-linecap="square"></path>
                    <polyline id="Line" stroke="#979797" stroke-linecap="square" points="3.5 5.5 8.8203125 13.5014648 24.0991211 18.6269531"></polyline>
                    <polyline id="Line-Copy-29" stroke="#4A4A4A" stroke-linecap="square" points="3.66162109 5.74804688 7.59375 18.3759766 23.4267578 11.0874023"></polyline>
                    <circle id="Oval-10" stroke="#4A4A4A" fill="#FFFFFF" cx="7.5" cy="18.5" r="1.5"></circle>
                    <circle id="Oval-10-Copy" stroke="#4A4A4A" fill="#FFFFFF" cx="23.5" cy="10.5" r="1.5"></circle>
                    <circle id="Oval-10-Copy-3" stroke="#9B9B9B" fill="#FFFFFF" cx="23.5" cy="18.5" r="1.5"></circle>
                    <circle id="Oval-10-Copy-4" stroke="#9B9B9B" fill="#FFFFFF" cx="9.5" cy="13.5" r="1.5"></circle>
                    <circle id="Oval-10-Copy-2" stroke="#4A4A4A" fill="#FFFFFF" cx="4.5" cy="6.5" r="1.5"></circle>
                </g>
                <path d="M65.9033203,14 L65.9033203,6.7734375 L67.8955078,6.7734375 L69.6337891,11.8564453 L71.4257812,6.7734375 L73.1738281,6.7734375 L73.1738281,14 L71.7871094,14 L71.7871094,8.54589844 L70.0244141,13.5166016 L68.8134766,13.5166016 L67.0849609,8.47265625 L67.0849609,14 L65.9033203,14 Z M77.2314453,14.1220703 C76.3948526,14.1220703 75.7299829,13.8689804 75.2368164,13.362793 C74.7436499,12.8566055 74.4970703,12.17546 74.4970703,11.3193359 C74.4970703,10.4534462 74.7452775,9.76985928 75.2416992,9.26855469 C75.738121,8.7672501 76.4127562,8.51660156 77.265625,8.51660156 C78.1217491,8.51660156 78.7980118,8.7672501 79.2944336,9.26855469 C79.7908553,9.76985928 80.0390625,10.450191 80.0390625,11.3095703 C80.0390625,12.188481 79.7900416,12.8769506 79.2919922,13.375 C78.7939428,13.8730494 78.1071007,14.1220703 77.2314453,14.1220703 Z M77.2558594,13.21875 C78.0859417,13.21875 78.5009766,12.5823631 78.5009766,11.3095703 C78.5009766,10.7268851 78.3911144,10.2662777 78.1713867,9.92773438 C77.9516591,9.58919102 77.6497415,9.41992188 77.265625,9.41992188 C76.8847637,9.41992188 76.5844738,9.58919102 76.3647461,9.92773438 C76.1450184,10.2662777 76.0351562,10.7301403 76.0351562,11.3193359 C76.0351562,11.9020211 76.1442046,12.3642561 76.3623047,12.7060547 C76.5804047,13.0478533 76.8782533,13.21875 77.2558594,13.21875 Z M84.7412109,14 L84.7412109,12.9892578 C84.3701153,13.7444699 83.7858113,14.1220703 82.9882812,14.1220703 C82.3437468,14.1220703 81.8375669,13.8860701 81.4697266,13.4140625 C81.1018862,12.9420549 80.9179688,12.2926474 80.9179688,11.4658203 C80.9179688,10.5673783 81.1254862,9.85123965 81.5405273,9.31738281 C81.9555685,8.78352598 82.5130173,8.51660156 83.2128906,8.51660156 C83.7727893,8.51660156 84.2822243,8.73795352 84.7412109,9.18066406 L84.7412109,6.29003906 L86.1914062,6.29003906 L86.1914062,14 L84.7412109,14 Z M84.7412109,10.0400391 C84.3929019,9.64941211 84.0201843,9.45410156 83.6230469,9.45410156 C83.2682274,9.45410156 82.9850271,9.62499829 82.7734375,9.96679688 C82.5618479,10.3085955 82.4560547,10.7675752 82.4560547,11.34375 C82.4560547,12.4407607 82.8076137,12.9892578 83.5107422,12.9892578 C83.9404318,12.9892578 84.350584,12.7141955 84.7412109,12.1640625 L84.7412109,10.0400391 Z M92.3583984,13.8193359 C91.671546,14.0211599 91.0205109,14.1220703 90.4052734,14.1220703 C89.5100867,14.1220703 88.8037135,13.8681666 88.2861328,13.3603516 C87.7685521,12.8525365 87.5097656,12.1591841 87.5097656,11.2802734 C87.5097656,10.4501912 87.7465797,9.78206633 88.2202148,9.27587891 C88.69385,8.76969148 89.3196576,8.51660156 90.0976562,8.51660156 C90.8821654,8.51660156 91.4550763,8.76399492 91.8164062,9.25878906 C92.1777362,9.7535832 92.3583984,10.536453 92.3583984,11.6074219 L89.0332031,11.6074219 C89.1308599,12.6295624 89.6923777,13.140625 90.7177734,13.140625 C91.2028019,13.140625 91.7496714,13.0283214 92.3583984,12.8037109 L92.3583984,13.8193359 Z M89.0136719,10.7919922 L90.9375,10.7919922 C90.9375,9.87727407 90.6429066,9.41992188 90.0537109,9.41992188 C89.4547496,9.41992188 89.1080734,9.87727407 89.0136719,10.7919922 Z M93.8525391,14 L93.8525391,6.29003906 L95.2978516,6.29003906 L95.2978516,14 L93.8525391,14 Z M96.9628906,13.8291016 L96.9628906,12.7695312 C97.67904,13.0690119 98.2910131,13.21875 98.7988281,13.21875 C99.391279,13.21875 99.6875,13.0169291 99.6875,12.6132812 C99.6875,12.3528633 99.4433618,12.125001 98.9550781,11.9296875 L98.4667969,11.734375 C97.9361953,11.5195302 97.5569673,11.2884127 97.3291016,11.0410156 C97.1012358,10.7936186 96.9873047,10.487632 96.9873047,10.1230469 C96.9873047,9.61523184 97.1809876,9.22054177 97.5683594,8.93896484 C97.9557311,8.65738792 98.4977179,8.51660156 99.1943359,8.51660156 C99.630536,8.51660156 100.149737,8.58007749 100.751953,8.70703125 L100.751953,9.72265625 C100.172523,9.52083232 99.6923847,9.41992188 99.3115234,9.41992188 C98.7125621,9.41992188 98.4130859,9.60546689 98.4130859,9.9765625 C98.4130859,10.2207043 98.6344379,10.427408 99.0771484,10.5966797 L99.4970703,10.7578125 C100.125329,10.9954439 100.562336,11.2363269 100.808105,11.4804688 C101.053875,11.7246106 101.176758,12.0387351 101.176758,12.4228516 C101.176758,12.9274114 100.967613,13.3367497 100.549316,13.6508789 C100.13102,13.9650081 99.5865919,14.1220703 98.9160156,14.1220703 C98.2714812,14.1220703 97.620446,14.024415 96.9628906,13.8291016 Z M111.870117,13.7119141 C111.170244,14.0244156 110.335291,14.1806641 109.365234,14.1806641 C108.180333,14.1806641 107.25749,13.8470085 106.59668,13.1796875 C105.935869,12.5123665 105.605469,11.5813862 105.605469,10.3867188 C105.605469,9.16926475 105.93831,8.23258792 106.604004,7.57666016 C107.269697,6.9207324 108.219395,6.59277344 109.453125,6.59277344 C110.240889,6.59277344 111.023759,6.68554595 111.801758,6.87109375 L111.801758,8.04785156 C110.919592,7.73860522 110.180667,7.58398438 109.584961,7.58398438 C108.823238,7.58398438 108.235679,7.82568118 107.822266,8.30908203 C107.408852,8.79248289 107.202148,9.47851118 107.202148,10.3671875 C107.202148,11.2395877 107.424314,11.9199194 107.868652,12.4082031 C108.312991,12.8964868 108.93066,13.140625 109.72168,13.140625 C110.431319,13.140625 111.147457,12.9615903 111.870117,12.6035156 L111.870117,13.7119141 Z M115.429688,14.1220703 C114.593095,14.1220703 113.928225,13.8689804 113.435059,13.362793 C112.941892,12.8566055 112.695312,12.17546 112.695312,11.3193359 C112.695312,10.4534462 112.94352,9.76985928 113.439941,9.26855469 C113.936363,8.7672501 114.610998,8.51660156 115.463867,8.51660156 C116.319991,8.51660156 116.996254,8.7672501 117.492676,9.26855469 C117.989098,9.76985928 118.237305,10.450191 118.237305,11.3095703 C118.237305,12.188481 117.988284,12.8769506 117.490234,13.375 C116.992185,13.8730494 116.305343,14.1220703 115.429688,14.1220703 Z M115.454102,13.21875 C116.284184,13.21875 116.699219,12.5823631 116.699219,11.3095703 C116.699219,10.7268851 116.589357,10.2662777 116.369629,9.92773438 C116.149901,9.58919102 115.847984,9.41992188 115.463867,9.41992188 C115.083006,9.41992188 114.782716,9.58919102 114.562988,9.92773438 C114.343261,10.2662777 114.233398,10.7301403 114.233398,11.3193359 C114.233398,11.9020211 114.342447,12.3642561 114.560547,12.7060547 C114.778647,13.0478533 115.076496,13.21875 115.454102,13.21875 Z M119.56543,14 L119.56543,8.63867188 L120.952148,8.63867188 L120.952148,9.64941406 C121.375328,8.89420195 121.977535,8.51660156 122.758789,8.51660156 C123.162437,8.51660156 123.494465,8.61588442 123.754883,8.81445312 C124.015301,9.01302183 124.174804,9.29133936 124.233398,9.64941406 C124.734703,8.89420195 125.340166,8.51660156 126.049805,8.51660156 C127.029627,8.51660156 127.519531,9.05696074 127.519531,10.1376953 L127.519531,14 L126.132812,14 L126.132812,10.6113281 C126.132812,9.97655933 125.921226,9.65917969 125.498047,9.65917969 C125.065102,9.65917969 124.643557,9.97167656 124.233398,10.5966797 L124.233398,14 L122.84668,14 L122.84668,10.6113281 C122.84668,9.9733041 122.633466,9.65429688 122.207031,9.65429688 C121.780597,9.65429688 121.362307,9.96842134 120.952148,10.5966797 L120.952148,14 L119.56543,14 Z M129.262695,15.9287109 L129.262695,8.63867188 L130.708008,8.63867188 L130.708008,9.64941406 C131.079103,8.89420195 131.663407,8.51660156 132.460938,8.51660156 C133.105472,8.51660156 133.612466,8.75260181 133.981934,9.22460938 C134.351402,9.69661694 134.536133,10.3460245 134.536133,11.1728516 C134.536133,12.0712936 134.327802,12.7874322 133.911133,13.3212891 C133.494464,13.8551459 132.936201,14.1220703 132.236328,14.1220703 C131.673174,14.1220703 131.163739,13.9007184 130.708008,13.4580078 L130.708008,15.9287109 L129.262695,15.9287109 Z M130.708008,12.5986328 C131.059572,12.9892598 131.433917,13.1845703 131.831055,13.1845703 C132.185874,13.1845703 132.469074,13.0128598 132.680664,12.6694336 C132.892254,12.3260074 132.998047,11.8678414 132.998047,11.2949219 C132.998047,10.1979112 132.64486,9.64941406 131.938477,9.64941406 C131.512042,9.64941406 131.10189,9.92447642 130.708008,10.4746094 L130.708008,12.5986328 Z M138.515625,13.4238281 C138.033852,13.8893252 137.517906,14.1220703 136.967773,14.1220703 C136.499021,14.1220703 136.118166,13.9788426 135.825195,13.6923828 C135.532225,13.405923 135.385742,13.034833 135.385742,12.5791016 C135.385742,11.9866507 135.622556,11.5301123 136.096191,11.2094727 C136.569827,10.888833 137.247717,10.7285156 138.129883,10.7285156 L138.515625,10.7285156 L138.515625,10.2402344 C138.515625,9.68359097 138.198245,9.40527344 137.563477,9.40527344 C137.000323,9.40527344 136.430667,9.56477705 135.854492,9.88378906 L135.854492,8.88769531 C136.508792,8.64029824 137.156572,8.51660156 137.797852,8.51660156 C139.200853,8.51660156 139.902344,9.07486421 139.902344,10.1914062 L139.902344,12.5644531 C139.902344,12.9843771 140.037434,13.1943359 140.307617,13.1943359 C140.356446,13.1943359 140.419921,13.1878256 140.498047,13.1748047 L140.532227,13.9853516 C140.226235,14.0764979 139.956056,14.1220703 139.72168,14.1220703 C139.129229,14.1220703 138.748373,13.8893252 138.579102,13.4238281 L138.515625,13.4238281 Z M138.515625,12.6474609 L138.515625,11.5585938 L138.173828,11.5585938 C137.239579,11.5585938 136.772461,11.8515596 136.772461,12.4375 C136.772461,12.6360687 136.840006,12.8028965 136.975098,12.9379883 C137.110189,13.0730801 137.277017,13.140625 137.475586,13.140625 C137.814129,13.140625 138.160806,12.9762386 138.515625,12.6474609 Z M141.767578,14 L141.767578,8.63867188 L143.212891,8.63867188 L143.212891,9.64941406 C143.587241,8.89420195 144.156897,8.51660156 144.921875,8.51660156 C145.013021,8.51660156 145.102539,8.52636709 145.19043,8.54589844 L145.19043,9.83496094 C144.985351,9.76009077 144.794923,9.72265625 144.619141,9.72265625 C144.042966,9.72265625 143.574221,10.0139945 143.212891,10.5966797 L143.212891,14 L141.767578,14 Z M146.313477,14 L146.313477,8.63867188 L147.758789,8.63867188 L147.758789,14 L146.313477,14 Z M146.313477,7.73535156 L146.313477,6.52929688 L147.758789,6.52929688 L147.758789,7.73535156 L146.313477,7.73535156 Z M149.423828,13.8291016 L149.423828,12.7695312 C150.139978,13.0690119 150.751951,13.21875 151.259766,13.21875 C151.852217,13.21875 152.148438,13.0169291 152.148438,12.6132812 C152.148438,12.3528633 151.904299,12.125001 151.416016,11.9296875 L150.927734,11.734375 C150.397133,11.5195302 150.017905,11.2884127 149.790039,11.0410156 C149.562173,10.7936186 149.448242,10.487632 149.448242,10.1230469 C149.448242,9.61523184 149.641925,9.22054177 150.029297,8.93896484 C150.416669,8.65738792 150.958655,8.51660156 151.655273,8.51660156 C152.091474,8.51660156 152.610674,8.58007749 153.212891,8.70703125 L153.212891,9.72265625 C152.633461,9.52083232 152.153322,9.41992188 151.772461,9.41992188 C151.1735,9.41992188 150.874023,9.60546689 150.874023,9.9765625 C150.874023,10.2207043 151.095375,10.427408 151.538086,10.5966797 L151.958008,10.7578125 C152.586266,10.9954439 153.023274,11.2363269 153.269043,11.4804688 C153.514812,11.7246106 153.637695,12.0387351 153.637695,12.4228516 C153.637695,12.9274114 153.42855,13.3367497 153.010254,13.6508789 C152.591958,13.9650081 152.047529,14.1220703 151.376953,14.1220703 C150.732419,14.1220703 150.081383,14.024415 149.423828,13.8291016 Z M157.470703,14.1220703 C156.63411,14.1220703 155.969241,13.8689804 155.476074,13.362793 C154.982908,12.8566055 154.736328,12.17546 154.736328,11.3193359 C154.736328,10.4534462 154.984535,9.76985928 155.480957,9.26855469 C155.977379,8.7672501 156.652014,8.51660156 157.504883,8.51660156 C158.361007,8.51660156 159.03727,8.7672501 159.533691,9.26855469 C160.030113,9.76985928 160.27832,10.450191 160.27832,11.3095703 C160.27832,12.188481 160.029299,12.8769506 159.53125,13.375 C159.033201,13.8730494 158.346359,14.1220703 157.470703,14.1220703 Z M157.495117,13.21875 C158.325199,13.21875 158.740234,12.5823631 158.740234,11.3095703 C158.740234,10.7268851 158.630372,10.2662777 158.410645,9.92773438 C158.190917,9.58919102 157.888999,9.41992188 157.504883,9.41992188 C157.124022,9.41992188 156.823732,9.58919102 156.604004,9.92773438 C156.384276,10.2662777 156.274414,10.7301403 156.274414,11.3193359 C156.274414,11.9020211 156.383462,12.3642561 156.601562,12.7060547 C156.819663,13.0478533 157.117511,13.21875 157.495117,13.21875 Z M161.606445,14 L161.606445,8.63867188 L163.051758,8.63867188 L163.051758,9.64941406 C163.523765,8.89420195 164.132483,8.51660156 164.87793,8.51660156 C165.356448,8.51660156 165.734048,8.66796724 166.010742,8.97070312 C166.287436,9.27343901 166.425781,9.68684634 166.425781,10.2109375 L166.425781,14 L164.980469,14 L164.980469,10.5673828 C164.980469,9.95865581 164.778648,9.65429688 164.375,9.65429688 C163.916013,9.65429688 163.474937,9.97818687 163.051758,10.6259766 L163.051758,14 L161.606445,14 Z M177.285156,13.7119141 C176.585283,14.0244156 175.75033,14.1806641 174.780273,14.1806641 C173.595372,14.1806641 172.672529,13.8470085 172.011719,13.1796875 C171.350908,12.5123665 171.020508,11.5813862 171.020508,10.3867188 C171.020508,9.16926475 171.35335,8.23258792 172.019043,7.57666016 C172.684736,6.9207324 173.634434,6.59277344 174.868164,6.59277344 C175.655928,6.59277344 176.438798,6.68554595 177.216797,6.87109375 L177.216797,8.04785156 C176.334631,7.73860522 175.595706,7.58398438 175,7.58398438 C174.238277,7.58398438 173.650718,7.82568118 173.237305,8.30908203 C172.823891,8.79248289 172.617188,9.47851118 172.617188,10.3671875 C172.617188,11.2395877 172.839353,11.9199194 173.283691,12.4082031 C173.72803,12.8964868 174.345699,13.140625 175.136719,13.140625 C175.846358,13.140625 176.562496,12.9615903 177.285156,12.6035156 L177.285156,13.7119141 Z M178.59375,14 L178.59375,6.29003906 L180.039062,6.29003906 L180.039062,9.64941406 C180.51107,8.89420195 181.119788,8.51660156 181.865234,8.51660156 C182.343752,8.51660156 182.721353,8.66796724 182.998047,8.97070312 C183.274741,9.27343901 183.413086,9.68684634 183.413086,10.2109375 L183.413086,14 L181.967773,14 L181.967773,10.5673828 C181.967773,9.95865581 181.765953,9.65429688 181.362305,9.65429688 C180.903318,9.65429688 180.462242,9.97818687 180.039062,10.6259766 L180.039062,14 L178.59375,14 Z M187.788086,13.4238281 C187.306313,13.8893252 186.790367,14.1220703 186.240234,14.1220703 C185.771482,14.1220703 185.390626,13.9788426 185.097656,13.6923828 C184.804686,13.405923 184.658203,13.034833 184.658203,12.5791016 C184.658203,11.9866507 184.895017,11.5301123 185.368652,11.2094727 C185.842288,10.888833 186.520178,10.7285156 187.402344,10.7285156 L187.788086,10.7285156 L187.788086,10.2402344 C187.788086,9.68359097 187.470706,9.40527344 186.835938,9.40527344 C186.272784,9.40527344 185.703128,9.56477705 185.126953,9.88378906 L185.126953,8.88769531 C185.781253,8.64029824 186.429033,8.51660156 187.070312,8.51660156 C188.473314,8.51660156 189.174805,9.07486421 189.174805,10.1914062 L189.174805,12.5644531 C189.174805,12.9843771 189.309894,13.1943359 189.580078,13.1943359 C189.628906,13.1943359 189.692382,13.1878256 189.770508,13.1748047 L189.804688,13.9853516 C189.498696,14.0764979 189.228517,14.1220703 188.994141,14.1220703 C188.40169,14.1220703 188.020834,13.8893252 187.851562,13.4238281 L187.788086,13.4238281 Z M187.788086,12.6474609 L187.788086,11.5585938 L187.446289,11.5585938 C186.51204,11.5585938 186.044922,11.8515596 186.044922,12.4375 C186.044922,12.6360687 186.112467,12.8028965 186.247559,12.9379883 C186.38265,13.0730801 186.549478,13.140625 186.748047,13.140625 C187.08659,13.140625 187.433266,12.9762386 187.788086,12.6474609 Z M191.040039,14 L191.040039,8.63867188 L192.485352,8.63867188 L192.485352,9.64941406 C192.859702,8.89420195 193.429358,8.51660156 194.194336,8.51660156 C194.285482,8.51660156 194.375,8.52636709 194.462891,8.54589844 L194.462891,9.83496094 C194.257811,9.76009077 194.067384,9.72265625 193.891602,9.72265625 C193.315427,9.72265625 192.846681,10.0139945 192.485352,10.5966797 L192.485352,14 L191.040039,14 Z M198.349609,13.9707031 C198.004556,14.0716151 197.732748,14.1220703 197.53418,14.1220703 C196.280918,14.1220703 195.654297,13.5361387 195.654297,12.3642578 L195.654297,9.54199219 L195.053711,9.54199219 L195.053711,8.63867188 L195.654297,8.63867188 L195.654297,7.73535156 L197.099609,7.56933594 L197.099609,8.63867188 L198.24707,8.63867188 L198.24707,9.54199219 L197.099609,9.54199219 L197.099609,12.1738281 C197.099609,12.8313835 197.368161,13.1601562 197.905273,13.1601562 C198.028972,13.1601562 198.177082,13.13737 198.349609,13.0917969 L198.349609,13.9707031 Z M199.49707,13.8291016 L199.49707,12.7695312 C200.21322,13.0690119 200.825193,13.21875 201.333008,13.21875 C201.925459,13.21875 202.22168,13.0169291 202.22168,12.6132812 C202.22168,12.3528633 201.977542,12.125001 201.489258,11.9296875 L201.000977,11.734375 C200.470375,11.5195302 200.091147,11.2884127 199.863281,11.0410156 C199.635416,10.7936186 199.521484,10.487632 199.521484,10.1230469 C199.521484,9.61523184 199.715167,9.22054177 200.102539,8.93896484 C200.489911,8.65738792 201.031898,8.51660156 201.728516,8.51660156 C202.164716,8.51660156 202.683916,8.58007749 203.286133,8.70703125 L203.286133,9.72265625 C202.706703,9.52083232 202.226564,9.41992188 201.845703,9.41992188 C201.246742,9.41992188 200.947266,9.60546689 200.947266,9.9765625 C200.947266,10.2207043 201.168618,10.427408 201.611328,10.5966797 L202.03125,10.7578125 C202.659508,10.9954439 203.096516,11.2363269 203.342285,11.4804688 C203.588055,11.7246106 203.710938,12.0387351 203.710938,12.4228516 C203.710938,12.9274114 203.501792,13.3367497 203.083496,13.6508789 C202.6652,13.9650081 202.120772,14.1220703 201.450195,14.1220703 C200.805661,14.1220703 200.154626,14.024415 199.49707,13.8291016 Z" id="Models-Comparison-Ch" fill="#4A4A4A"></path>
            </g>
        </g>
    </g>
</svg>