<svg xmlns="http://www.w3.org/2000/svg" width="25" height="29" viewBox="0 0 25 29">
    <path fill="#FFF" fill-opacity=".8" fill-rule="nonzero" d="M2.773 28.253c0 .323.312.585.696.585h17.688c.385 0 .697-.262.697-.585V9.299H2.773v18.954zm13.46-15.728h2.613v12.753h-2.613V12.525zm-5.226 0h2.613v12.753h-2.613V12.525zm-5.226 0h2.613v12.753H5.78V12.525zm12.83-8.509v.841h5.221c.413 0 .747.301.747.673v1.7c0 .372-.334.673-.747.673H.794c-.413 0-.747-.3-.747-.672V5.53c0-.372.334-.673.747-.673h5.222v-3.26c0-.37.335-.672.747-.672h11.1c.413 0 .747.301.747.673v2.418z"/>
</svg>
