<svg xmlns="http://www.w3.org/2000/svg" width="24" height="27" viewBox="0 0 24 27">
    <path fill="#50647A" fill-rule="nonzero" d="M2.632 25.764c0 .305.3.552.672.552H20.38c.371 0 .673-.247.673-.552V7.894H2.632v17.87zm12.994-14.828h2.523V22.96h-2.523V10.936zm-5.045 0h2.522V22.96h-2.522V10.936zm-5.046 0h2.523V22.96H5.535V10.936zm12.386-8.022v.793h5.042c.398 0 .721.284.721.634v1.604c0 .35-.323.634-.721.634H.721C.323 6.579 0 6.295 0 5.945V4.34c0-.35.323-.634.721-.634h5.042V.634c0-.35.323-.634.721-.634H17.2c.398 0 .721.284.721.634v2.28z"/>
</svg>
