<svg xmlns="http://www.w3.org/2000/svg" width="26" height="26" viewBox="0 0 26 26">
    <path fill="#50647A" fill-rule="nonzero" d="M25.844 7.098L26 6.945l-.01-.424L18.092 0v4.005h-.001c-.175 0-.345.003-.52.01-3.476.125-6.507 2.002-8.059 4.834H4.653L.238 15.46l-.19.01v.344L0 15.924l.048.07v8.518c0 .82.668 1.488 1.49 1.488h22.547a1.49 1.49 0 0 0 1.49-1.488v-8.526l.048-.076-.055-.13-.017-.335h-.185l-3.362-5.044 3.84-3.303zm-1.527 8.348h-7.105v3.078H8.41v-3.078H1.305l3.82-5.717h3.963l-.033.087a8.448 8.448 0 0 0-.295.847c-.501 1.749-.32 3.034-.312 3.089l.173 1.169.634-.998c2.807-4.416 7.506-4.261 8.837-4.12v3.963l2.146-1.845 1.095-.942 2.984 4.467z"/>
</svg>
