<svg xmlns="http://www.w3.org/2000/svg" width="29" height="28" viewBox="0 0 29 28">
    <path fill="#FFF" fill-opacity=".8" fill-rule="nonzero" d="M28.228 7.545l.165-.163-.01-.456-8.347-7v4.3h-.002c-.185 0-.364.002-.55.01-3.672.134-6.876 2.149-8.516 5.19H5.834l-4.667 7.096-.2.01v.37l-.051.12.05.074v9.144c0 .881.707 1.598 1.575 1.598h23.827c.868 0 1.575-.717 1.575-1.598v-9.152l.051-.082-.058-.14-.018-.359h-.196l-3.553-5.415 4.059-3.547zm-1.95 9.396h-7.503v3.382H9.477v-3.382H1.973l4.034-6.28h4.187l-.035.096a9.544 9.544 0 0 0-.311.93c-.53 1.921-.34 3.333-.33 3.393l.182 1.284.67-1.096c2.965-4.85 7.928-4.681 9.335-4.526v4.354l2.265-2.027 1.158-1.035 3.15 4.907z"/>
</svg>
