<svg xmlns="http://www.w3.org/2000/svg" width="30" height="27" viewBox="0 0 30 27">
    <g fill="none" fill-rule="evenodd">
        <path fill="#FF3151" d="M16.74 1.523l12.63 22.335a2 2 0 0 1-1.742 2.984H2.372A2 2 0 0 1 .63 23.858L13.259 1.523a2 2 0 0 1 3.482 0z"/>
        <path fill="#FFF" d="M14.605 12.328c-1.09 0-1.973-.816-1.973-1.822 0-1.006.883-1.822 1.973-1.822s1.974.816 1.974 1.822c0 1.006-.884 1.822-1.974 1.822zm.08 1.822c.98 0 1.776.795 1.776 1.776v5.192a1.776 1.776 0 1 1-3.553 0v-5.192c0-.98.795-1.776 1.776-1.776z"/>
    </g>
</svg>
