<?xml version="1.0" encoding="UTF-8" standalone="no"?>
<svg width="38px" height="40px" viewBox="0 0 38 40" version="1.1" xmlns="http://www.w3.org/2000/svg" xmlns:xlink="http://www.w3.org/1999/xlink">
    <!-- Generator: Sketch 50.2 (55047) - http://www.bohemiancoding.com/sketch -->
    <title>icon_data_quality_d</title>
    <desc>Created with Sketch.</desc>
    <defs></defs>
    <g id="Page-1" stroke="none" stroke-width="1" fill="none" fill-rule="evenodd">
        <g id="4-4-1data_quality_missing_value" transform="translate(-1836.000000, -661.000000)" fill="#D5D5D5" fill-rule="nonzero">
            <g id="Group-9" transform="translate(1790.000000, 180.000000)">
                <g id="icon_data_quality_d" transform="translate(46.000000, 481.000000)">
                    <path d="M37.9018254,33.7398438 L33.2418254,23.9028906 C30.6687302,27.5909375 26.6511905,30.2171094 22.0006349,31.0134375 L25.9015873,39.2478906 C26.4003175,40.3015625 27.9438095,40.23125 28.3454762,39.143125 L30.3449206,33.7365625 L30.7569841,33.5474219 L36.2494444,35.515625 C37.3515873,35.91375 38.3999206,34.789375 37.9018254,33.7398438 Z" id="Shape"></path>
                    <path d="M19.0476984,0 C11.0170635,0 4.48293651,6.43164062 4.48293651,14.3371875 C4.48293651,22.2427344 11.0171429,28.674375 19.0476984,28.674375 C27.0783333,28.674375 33.6124603,22.2427344 33.6124603,14.3371875 C33.6124603,6.43164062 27.0784127,0 19.0476984,0 Z M26.1345238,13.28375 L23.5519048,15.7620312 L24.1622222,19.2623437 C24.3488095,20.3310156 23.2049206,21.1339062 22.2407143,20.6361719 L19.0477778,18.9839844 L15.8548413,20.6360938 C14.8850794,21.1373437 13.7477778,20.325 13.9333333,19.2622656 L14.5436508,15.7619531 L11.9610317,13.2836719 C11.1761111,12.5303906 11.611746,11.2154688 12.6947619,11.0605469 L16.2643651,10.5501563 L17.860873,7.36632813 C18.3439683,6.39945313 19.7512698,6.39859375 20.2349206,7.36632813 L21.8314286,10.5501563 L25.4010317,11.0605469 C26.4838889,11.2153906 26.9194444,12.5303906 26.1345238,13.28375 Z" id="Shape"></path>
                    <path d="M4.85365079,23.9028906 L0.193650794,33.7398438 C-0.306746032,34.7942969 0.751031746,35.9125 1.84611111,35.5153906 L7.33849206,33.5471875 L7.75055556,33.7363281 L9.75,39.1429688 C10.150873,40.2288281 11.694127,40.3036719 12.1938889,39.2478125 L16.0948413,31.0133594 C11.4442857,30.2171094 7.4268254,27.5910156 4.85365079,23.9028906 Z" id="Shape"></path>
                </g>
            </g>
        </g>
    </g>
</svg>