<?xml version="1.0" encoding="UTF-8" standalone="no"?>
<svg width="36px" height="32px" viewBox="0 0 36 32" version="1.1" xmlns="http://www.w3.org/2000/svg" xmlns:xlink="http://www.w3.org/1999/xlink">
    <!-- Generator: Sketch 50.2 (55047) - http://www.bohemiancoding.com/sketch -->
    <title>data</title>
    <desc>Created with Sketch.</desc>
    <defs></defs>
    <g id="Page-1" stroke="none" stroke-width="1" fill="none" fill-rule="evenodd">
        <g id="4-4-2data_quality_outlier" transform="translate(-942.000000, -33.000000)" fill="#1D2B3C" fill-rule="nonzero">
            <g id="progress" transform="translate(398.000000, 28.000000)">
                <g id="data" transform="translate(544.000000, 5.000000)">
                    <path d="M30.7947149,22.4084881 L28.58461,22.4084881 L28.58461,4.75331565 C28.58461,2.12201592 26.4595091,0 23.8243839,0 L4.52846761,0 C4.44346357,0 4.35845953,0 4.2734555,0.0424403183 C1.63833036,0.339522546 -0.231758445,2.67374005 0.0232536647,5.30503979 C0.278265775,7.51193634 2.02084853,9.29442971 4.2734555,9.54907162 C4.35845953,9.54907162 4.44346357,9.59151194 4.52846761,9.59151194 L4.78347972,9.59151194 L4.78347972,27.2466844 C4.82598174,29.8779841 6.95108265,32 9.54370577,32 L30.4546988,32 L30.5822048,32 L30.7947149,32 C33.4298401,32 35.554941,29.8779841 35.554941,27.2466844 C35.597443,24.530504 33.4298401,22.4084881 30.7947149,22.4084881 Z M4.78347972,7.00265252 L4.78347972,6.9602122 C3.55092119,6.9602122 2.57337476,5.98408488 2.57337476,4.75331565 C2.57337476,3.52254642 3.55092119,2.5464191 4.78347972,2.5464191 L19.6166841,2.5464191 C18.8941498,3.9469496 18.8941498,5.60212202 19.6166841,7.00265252 L4.78347972,7.00265252 Z M25.1844485,24.3607427 L7.758621,24.3607427 L7.758621,21.8143236 L25.1844485,21.8143236 L25.1844485,24.3607427 Z M25.1844485,19.2679045 L7.758621,19.2679045 L7.758621,16.7214854 L25.1844485,16.7214854 L25.1844485,19.2679045 Z M25.1844485,14.1750663 L7.758621,14.1750663 L7.758621,11.6286472 L25.1844485,11.6286472 L25.1844485,14.1750663 Z M30.837217,29.3687003 C29.6046584,29.3687003 28.627112,28.3925729 28.627112,27.1618037 L28.627112,24.9549072 L30.837217,24.9549072 C32.0697755,24.9549072 33.0473219,25.9310345 33.0473219,27.1618037 C33.0473219,28.3925729 32.0697755,29.3687003 30.837217,29.3687003 Z"></path>
                </g>
            </g>
        </g>
    </g>
</svg>