<svg width="16px" height="11px" viewBox="0 0 16 11" version="1.1" xmlns="http://www.w3.org/2000/svg" xmlns:xlink="http://www.w3.org/1999/xlink">
    <g id="Page-1" stroke="none" stroke-width="1" fill="none" fill-rule="evenodd">
        <g id="5-5-4modeling-BClassification-simpleView5" transform="translate(-922.000000, -370.000000)" stroke="#448EED" stroke-width="0.6">
            <g id="Group-12" transform="translate(922.800000, 370.200000)">
                <rect id="Rectangle-54" x="0.3" y="4.62" width="3.6" height="1.56" rx="0.78"></rect>
                <path d="M6.3,1.74 C5.96862915,1.74 5.7,2.00862915 5.7,2.34 L5.7,2.7 C5.7,3.03137085 5.96862915,3.3 6.3,3.3 L8.7,3.3 C9.03137085,3.3 9.3,3.03137085 9.3,2.7 L9.3,2.34 C9.3,2.00862915 9.03137085,1.74 8.7,1.74 L6.3,1.74 Z" id="Rectangle-54-Copy"></path>
                <rect id="Rectangle-54-Copy-3" x="10.5" y="0.3" width="3.6" height="1.56" rx="0.78"></rect>
                <path d="M11.1,6.06 C10.7686292,6.06 10.5,6.32862915 10.5,6.66 L10.5,7.02 C10.5,7.35137085 10.7686292,7.62 11.1,7.62 L13.5,7.62 C13.8313708,7.62 14.1,7.35137085 14.1,7.02 L14.1,6.66 C14.1,6.32862915 13.8313708,6.06 13.5,6.06 L11.1,6.06 Z" id="Rectangle-54-Copy-5"></path>
                <rect id="Rectangle-54-Copy-2" x="5.7" y="7.5" width="3.6" height="1.56" rx="0.78"></rect>
                <rect id="Rectangle-54-Copy-4" x="10.5" y="3.18" width="3.6" height="1.56" rx="0.78"></rect>
                <rect id="Rectangle-54-Copy-6" x="10.5" y="8.94" width="3.6" height="1.56" rx="0.78"></rect>
                <polyline id="Path-12" points="5.89164733 2.88 4.2 5.63733136 5.89164733 8.35714525"></polyline>
                <polyline id="Path-12-Copy" stroke-linecap="square" stroke-linejoin="bevel" points="10.092 1.44 9 2.52739781 10.092 3.6"></polyline>
                <polyline id="Path-12-Copy-2" stroke-linecap="square" stroke-linejoin="bevel" points="10.092 7.2 9 8.28739781 10.092 9.36"></polyline>
            </g>
        </g>
    </g>
</svg>
