<?xml version="1.0" encoding="UTF-8" standalone="no"?>
<svg width="34px" height="36px" viewBox="0 0 34 36" version="1.1" xmlns="http://www.w3.org/2000/svg" xmlns:xlink="http://www.w3.org/1999/xlink">
    <!-- Generator: Sketch 50.2 (55047) - http://www.bohemiancoding.com/sketch -->
    <title>icon_start_modeling_a</title>
    <desc>Created with Sketch.</desc>
    <defs></defs>
    <g id="Page-1" stroke="none" stroke-width="1" fill="none" fill-rule="evenodd">
        <g id="5-2-1modeling_automatic_generating" transform="translate(-1839.000000, -287.000000)" fill="#1D2B3C" fill-rule="nonzero">
            <path d="M1857.51429,304.485714 L1864.71429,304.485714 C1866.41848,304.485714 1867.8,305.867236 1867.8,307.571429 L1867.8,310.657143 L1871.17959,310.657143 C1872.15342,310.657143 1872.94286,311.446584 1872.94286,312.420408 L1872.94286,321.236735 C1872.94286,322.210559 1872.15342,323 1871.17959,323 L1862.36327,323 C1861.38944,323 1860.6,322.210559 1860.6,321.236735 L1860.6,312.420408 C1860.6,311.446584 1861.38944,310.657143 1862.36327,310.657143 L1865.74286,310.657143 L1865.74286,307.571429 C1865.74286,307.003364 1865.28235,306.542857 1864.71429,306.542857 L1847.22857,306.542857 C1846.66051,306.542857 1846.2,307.003364 1846.2,307.571429 L1846.2,310.657143 L1849.57959,310.657143 C1850.55342,310.657143 1851.34286,311.446584 1851.34286,312.420408 L1851.34286,321.236735 C1851.34286,322.210559 1850.55342,323 1849.57959,323 L1840.76327,323 C1839.78944,323 1839,322.210559 1839,321.236735 L1839,312.420408 C1839,311.446584 1839.78944,310.657143 1840.76327,310.657143 L1844.14286,310.657143 L1844.14286,307.571429 C1844.14286,305.867236 1845.52438,304.485714 1847.22857,304.485714 L1855.45714,304.485714 L1855.45714,299.342857 L1852.07755,299.342857 C1851.10373,299.342857 1850.31429,298.553416 1850.31429,297.579592 L1850.31429,288.763265 C1850.31429,287.789441 1851.10373,287 1852.07755,287 L1860.89388,287 C1861.8677,287 1862.65714,287.789441 1862.65714,288.763265 L1862.65714,297.579592 C1862.65714,298.553416 1861.8677,299.342857 1860.89388,299.342857 L1857.51429,299.342857 L1857.51429,304.485714 Z" id="icon_start_modeling_a"></path>
        </g>
    </g>
</svg>