<svg xmlns="http://www.w3.org/2000/svg" xmlns:xlink="http://www.w3.org/1999/xlink" width="53" height="53" viewBox="0 0 53 53">
    <defs>
        <rect id="a" width="52" height="52" x=".149" y=".058" rx="2"/>
    </defs>
    <g fill="none" fill-rule="evenodd">
        <use fill="#4390FF" xlink:href="#a"/>
        <rect width="51" height="51" x=".649" y=".558" stroke="#448EED" rx="2"/>
        <g stroke="#FFF" stroke-linecap="square">
            <path d="M6.09 6.371L7.76 7.857M6.09 6.371L4.418 7.857"/>
        </g>
        <g stroke="#FFF" stroke-linecap="square">
            <path d="M48.608 44.227L47.122 45.9M48.608 44.227l-1.486-1.671"/>
        </g>
        <path fill="#7AB5FB" d="M6.09 13.056s1.97-.167 3.614 2.375c1.001 1.547.553 8.468 1.144 12.687.338 2.414.407 9.034 2.058 12.276 1.652 3.247 4.886 3.113 4.886 3.113H6.09V13.056z"/>
        <path stroke="#FFF" stroke-linecap="square" d="M6.09 13.056s1.97-.167 3.614 2.375c1.001 1.547.553 8.468 1.144 12.687.338 2.414.407 9.034 2.058 12.276 1.652 3.247 4.886 3.113 4.886 3.113M6.09 44.25h41.793M6.09 44.25V7.114"/>
        <path fill="#F0F6FF" fill-opacity=".8" d="M6.926 27.168s.096-5.16 3.292-5.16c.922 0 3.408 7.032 4.556 13.653.373 2.151 1.855-4.599 8.576-2.903 2.155.543 3.826 4.1 6.823 8.432 2.996 4.332 15.203 2.317 15.203 2.317H6.926v-16.34z"/>
        <path stroke="#FFF" stroke-linecap="square" d="M6.926 27.168s.096-5.16 3.292-5.16c.922 0 3.408 7.032 4.556 13.653.373 2.151 1.855-4.599 8.576-2.903 2.155.543 3.826 4.1 6.823 8.432 2.996 4.332 15.203 2.317 15.203 2.317M20.254 10.371v32.68"/>
        <circle cx="20.5" cy="8.5" r="2.5" fill="#FFF" stroke="#FFF"/>
    </g>
</svg>
