<svg xmlns="http://www.w3.org/2000/svg" width="102" height="103" viewBox="0 0 102 103">
    <g fill="none" fill-rule="evenodd">
        <path fill="#8F97A4" fill-opacity=".3" d="M16.744 24.752H37.13a2.912 2.912 0 0 1 0 5.825H16.744a2.912 2.912 0 0 1 0-5.825zm0 15.531h45.137a2.912 2.912 0 1 1 0 5.825H16.744a2.912 2.912 0 1 1 0-5.825zm0 15.531H48.05a2.912 2.912 0 1 1 0 5.825H16.744a2.912 2.912 0 1 1 0-5.825zm0 15.531H44.41a2.912 2.912 0 0 1 0 5.824H16.744a2.912 2.912 0 0 1 0-5.824z"/>
        <path fill="#8F97A4" fill-rule="nonzero" d="M6.552 6.552v83.722h64.793V26.71H54.32a5 5 0 0 1-5-5V6.552H6.552zM5.824 0h43.92a8 8 0 0 1 5.614 2.3l20.153 19.846a8 8 0 0 1 2.386 5.7v63.156a5.824 5.824 0 0 1-5.824 5.824H5.824A5.824 5.824 0 0 1 0 91.002V5.824A5.824 5.824 0 0 1 5.824 0z"/>
        <g transform="translate(47.525 47.525)">
            <ellipse cx="26.005" cy="26.369" fill="#8F97A4" stroke="#F9FBFC" stroke-width="5" rx="25.48" ry="25.844"/>
            <path fill="#FFF" d="M24.185 23.093v-9.465a2.548 2.548 0 0 1 5.096 0v9.465h9.464a2.548 2.548 0 1 1 0 5.096H29.28v9.464a2.548 2.548 0 1 1-5.096 0v-9.464H14.72a2.548 2.548 0 1 1 0-5.096h9.465z"/>
        </g>
    </g>
</svg>
