<svg xmlns="http://www.w3.org/2000/svg" width="100" height="107" viewBox="0 0 100 107">
    <g fill="none" fill-rule="evenodd">
        <path fill="#8F97A4" fill-opacity=".6" fill-rule="nonzero" d="M5.608 29.337v71.66h55.459V46.592H47.213a5 5 0 0 1-5-5V29.337H5.608zm-.623-5.608h37.121a8 8 0 0 1 5.613 2.3l16.57 16.317a8 8 0 0 1 2.386 5.7v53.574a4.985 4.985 0 0 1-4.985 4.985H4.985A4.985 4.985 0 0 1 0 101.62V28.714a4.985 4.985 0 0 1 4.985-4.985z"/>
        <path fill="#F9FBFC" d="M35.593 4.237h42.055L96.61 23.03v57.48H35.593z"/>
        <path fill="#8F97A4" fill-rule="nonzero" d="M38.659 5.608v71.66h55.459V22.863H80.264a5 5 0 0 1-5-5V5.608H38.66zM38.036 0h37.12a8 8 0 0 1 5.614 2.3l16.57 16.317a8 8 0 0 1 2.386 5.7v53.574a4.985 4.985 0 0 1-4.985 4.985H38.036a4.985 4.985 0 0 1-4.985-4.985V4.985A4.985 4.985 0 0 1 38.036 0zM81.965 98.226v-1.665a2 2 0 0 0-2.992-1.737l-7.316 4.181a2 2 0 0 0 0 3.473l7.316 4.18a2 2 0 0 0 2.992-1.736v-1.611h6.039a9.322 9.322 0 0 0 9.322-9.322v-5.006a2.542 2.542 0 0 0-5.085 0v5.006a4.237 4.237 0 0 1-4.237 4.237h-6.039z"/>
        <path fill="#8F97A4" fill-opacity=".3" d="M22.235 82.819l3.905-3.905a2.104 2.104 0 0 1 2.975 2.976l-3.904 3.904 3.904 3.905a2.104 2.104 0 1 1-2.975 2.976l-3.905-3.905-3.905 3.905a2.104 2.104 0 1 1-2.975-2.976l3.904-3.905-3.904-3.904a2.104 2.104 0 0 1 2.975-2.976l3.905 3.905z"/>
    </g>
</svg>
