<svg xmlns="http://www.w3.org/2000/svg" width="91" height="90" viewBox="0 0 91 90">
    <g fill="none" fill-rule="evenodd">
        <rect width="91" height="62" y="14" fill="#B5BEC6" fill-opacity=".5" rx="3"/>
        <path fill="#9FABB5" fill-opacity=".7" d="M2.205 13.68l46-12.637A3 3 0 0 1 52 3.935v82.13a3 3 0 0 1-3.794 2.894l-46-12.623A3 3 0 0 1 0 73.443v-56.87a3 3 0 0 1 2.205-2.892z"/>
        <text fill="#FFF" font-family="HelveticaNeue-Medium, Helvetica Neue" font-size="18" font-weight="400">
            <tspan x="9" y="50">SQL</tspan>
        </text>
        <path fill="#9FABB5" fill-rule="nonzero" d="M70 33c-6.168 0-11 2.224-11 5.063C59 39.846 63.907 42 70 42c5.037 0 9.488-1.419 11-2.9v-1.037C81 35.224 76.168 33 70 33zm-11 7v3.008C59 44.816 63.906 47 70 47c5.036 0 9.488-1.438 11-2.941V40.35c-2.35 1.639-6.839 2.658-11 2.658-4.361 0-8.952-1.15-11-3.008zm0 5v3.008C59 49.816 63.906 52 70 52c5.036 0 9.488-1.438 11-2.94v-3.71c-2.35 1.639-6.84 2.658-11 2.658-4.361 0-8.952-1.15-11-3.008zm0 5v2.255C59 54.915 63.832 57 70 57s11-2.085 11-4.745v-1.931c-2.35 1.515-6.84 2.458-11 2.458-4.361 0-8.952-1.063-11-2.782z"/>
    </g>
</svg>
