<svg xmlns="http://www.w3.org/2000/svg" width="1807" height="633" viewBox="0 0 1807 633">
    <defs>
        <linearGradient id="a" x1="0%" y1="58.81%" y2="58.81%">
            <stop offset="0%" stop-color="#1D2B3C"/>
            <stop offset="100%" stop-color="#7AE7BF"/>
        </linearGradient>
    </defs>
    <g fill="none" fill-rule="evenodd">
        <path fill="#4A87E2" d="M9.243 510.306c23.356 0 35.275 9.361 189.787 0 53.675-3.252 110.704-66.048 160.634-66.048 51.061 0 151.027 93.031 175.836 107.375 85.102 49.203 146.375 37.703 250.648 16.695 68.476-13.796 385.206-83.187 402.098-96.472 28.53-22.44 13.844-12.068 111.496-12.068 53.642 0 43.048-38.007 139.477-38.007 38.75 0 105.843 23.845 136.758-45.935 23.854-53.841 2.69-3.8 39.249-99.346 36.56-95.547 71.586 54.898 89.922 54.898 21.172 0 43.482-200.68 59.075-288.023 15.592-87.343 44.051-16.266 44.051 0V632H8l1.243-121.694z" opacity=".09"/>
        <path fill="#075AAF" stroke="url(#a)" stroke-linecap="round" stroke-width="3" d="M6.438 400.75c23.368 0 30.328-5.865 145.515 57.29 13.747 7.536 96.656 70.233 151 70.233 132.547 0 170.266-127.523 237.578-127.523 46.696 0 49.438 57.29 102.094 57.29 79.016 0 131.734-210.642 263.594-180.696 50.13 11.384 168.615 142.133 245.726 142.133 92.508 0 144.196-251.477 264.797-251.477 93.7 0 201.61 275.203 264.649 109.344 63.039-165.86 124.609-35.95 124.609-10.64v376.284H.471L6.437 400.75z" opacity=".039" transform="translate(1)"/>
    </g>
</svg>
