<?xml version="1.0" encoding="UTF-8"?>
<svg width="16px" height="15px" viewBox="0 0 16 15" version="1.1" xmlns="http://www.w3.org/2000/svg" xmlns:xlink="http://www.w3.org/1999/xlink">
    <!-- Generator: Sketch 52.2 (67145) - http://www.bohemiancoding.com/sketch -->
    <title>622666</title>
    <desc>Created with Sketch.</desc>
    <g id="Page-2" stroke="none" stroke-width="1" fill="none" fill-rule="evenodd">
        <g id="5-3-1modeling_adanced_simplified_view" transform="translate(-991.000000, -123.000000)" fill="#FFFFFF" fill-rule="nonzero">
            <g id="Group-8" transform="translate(986.000000, 118.000000)">
                <g id="Group-7" transform="translate(0.400000, 0.800000)">
                    <g id="622666" transform="translate(5.400000, 4.800000)">
                        <path d="M6.2877193,4.79070877 L5.09004912,4.79070877 C4.92477193,4.79070877 4.79062456,4.92485614 4.79062456,5.09013333 L4.79062456,8.68311579 C4.79062456,8.84839298 4.92477193,8.98254035 5.09004912,8.98254035 L6.2877193,8.98254035 C6.45299649,8.98254035 6.58714386,8.84839298 6.58714386,8.68311579 L6.58714386,5.09013333 C6.58714386,4.92485614 6.45299649,4.79070877 6.2877193,4.79070877 Z" id="Shape"></path>
                        <path d="M3.89240702,6.5872 L2.69473684,6.5872 C2.52945965,6.5872 2.39531228,6.72134737 2.39531228,6.88662456 L2.39531228,8.68311579 C2.39531228,8.84839298 2.52945965,8.98254035 2.69473684,8.98254035 L3.89240702,8.98254035 C4.05768421,8.98254035 4.19183158,8.84839298 4.19183158,8.68311579 L4.19183158,6.88662456 C4.19180351,6.72134737 4.05768421,6.5872 3.89240702,6.5872 Z" id="Shape"></path>
                        <path d="M8.68303158,2.99421754 L7.4853614,2.99421754 C7.32008421,2.99421754 7.18593684,3.12836491 7.18593684,3.29364211 L7.18593684,8.68311579 C7.18593684,8.84839298 7.32008421,8.98254035 7.4853614,8.98254035 L8.68303158,8.98254035 C8.84830877,8.98254035 8.98245614,8.84839298 8.98245614,8.68311579 L8.98245614,3.29364211 C8.98245614,3.12836491 8.84830877,2.99421754 8.68303158,2.99421754 Z" id="Shape"></path>
                        <path d="M14.1964632,13.3498105 L10.6220632,9.77538246 C11.4676211,8.74298947 11.9766175,7.42436491 11.9766175,5.98837895 C11.9766175,2.68642807 9.29027368,8.42105263e-05 5.98832281,8.42105263e-05 C2.68637193,8.42105263e-05 0,2.68642807 0,5.98837895 C0,9.29032982 2.68634386,11.9766737 5.98829474,11.9766737 C7.4242807,11.9766737 8.74290526,11.4676772 9.77529825,10.6221193 L13.3497263,14.1965474 C13.4664982,14.3133193 13.6197895,14.372014 13.7731088,14.372014 C13.9264281,14.372014 14.0797193,14.3133193 14.1964912,14.1965474 C14.4306246,13.962414 14.4306246,13.5839439 14.1964632,13.3498105 Z M5.98829474,10.7790316 C3.34686316,10.7790316 1.19764211,8.6298386 1.19764211,5.98837895 C1.19764211,3.3469193 3.34686316,1.19772632 5.98829474,1.19772632 C8.62972632,1.19772632 10.7789474,3.34694737 10.7789474,5.98837895 C10.7789474,8.62981053 8.62975439,10.7790316 5.98829474,10.7790316 Z" id="Shape"></path>
                    </g>
                </g>
            </g>
        </g>
    </g>
</svg>