<svg xmlns="http://www.w3.org/2000/svg" width="89" height="74" viewBox="0 0 89 74">
    <g fill="none" fill-rule="evenodd">
        <path fill="#9FABB5" fill-opacity=".6" d="M79.113 31.847l-3.984 3.983V19a3 3 0 0 0-3-3H7a3 3 0 0 0-3 3v43a3 3 0 0 0 3 3h38.96l-6.594 6.593H3a3 3 0 0 1-3-3V3a3 3 0 0 1 3-3h73.113a3 3 0 0 1 3 3v28.847zm0 28.284v8.462a3 3 0 0 1-3 3H67.65l11.463-11.462zM62.959 48l-5 5H28v-5h34.96zM12 38h10.765v5H12v-5zm16 0h38.468v5H28v-5zM12 48h10.765v5H12v-5zm0-20h10.765v5H12v-5zm16 0h38.468v5H28v-5z"/>
        <g fill="#9FABB5">
            <path d="M81.1 36.264l7.782 7.781-25.69 25.691-7.782-7.78zM51.273 73.874l2.532-10.313 7.781 7.781z"/>
        </g>
    </g>
</svg>
