<svg xmlns="http://www.w3.org/2000/svg" width="95" height="74" viewBox="0 0 95 74">
    <g fill="#B8C0C9" fill-rule="evenodd">
        <path fill-opacity=".7" d="M14.952 55.338h64.446L94.865 69.28V74H0v-4.72l14.952-13.942zM29.975 10.54v6.06h-7.193c-.637 0-.91.247-.91.214v29.278c0-.033.273.213.91.213h49.96c.636 0 .91-.246.91-.213V16.815c0 .033-.274-.214-.91-.214h-8.236v-6.06h8.235c3.85 0 6.971 2.809 6.971 6.274v29.278c0 3.465-3.12 6.274-6.97 6.274h-49.96c-3.85 0-6.971-2.809-6.971-6.274V16.815c0-3.465 3.12-6.274 6.97-6.274h7.194z"/>
        <path d="M47.547 0l18.56 22.386h-37.12z"/>
        <path d="M39.527 18.446h16.498v22.685H39.527z"/>
    </g>
</svg>
