<?xml version="1.0" encoding="UTF-8"?>
<svg width="52px" height="52px" viewBox="0 0 48 48" version="1.1" xmlns="http://www.w3.org/2000/svg" xmlns:xlink="http://www.w3.org/1999/xlink">
    <!-- Generator: Sketch 54 (76480) - https://sketchapp.com -->
    <title>Page 1</title>
    <desc>Created with Sketch.</desc>
    <defs>
        <polygon id="path-1" points="0 0.724 47.276 0.724 47.276 47.9997 0 47.9997"></polygon>
    </defs>
    <g id="Page-1" stroke="none" stroke-width="1" fill="none" fill-rule="evenodd">
        <g id="5-4-2-Model-Selection_Advanced-View_Model-Expand_ROC-Cure-Copy-4" transform="translate(-467.000000, -589.000000)">
            <g id="Page-1" transform="translate(467.000000, 588.000000)">
                <path d="M31.4014,32.2555 C31.3604,32.2585 31.3214,32.2675 31.2794,32.2675 C30.3324,32.2675 29.5644,31.5005 29.5644,30.5535 C29.5644,30.4875 29.5774,30.4255 29.5844,30.3625 L27.9524,29.5635 C27.6464,29.8465 27.2404,30.0235 26.7914,30.0235 C25.8434,30.0235 25.0764,29.2555 25.0764,28.3085 C25.0764,27.7965 25.3054,27.3415 25.6634,27.0265 L24.1094,23.9765 C24.0184,23.9915 23.9254,24.0055 23.8304,24.0055 C22.8824,24.0055 22.1154,23.2365 22.1154,22.2905 C22.1154,22.1655 22.1304,22.0445 22.1564,21.9265 L19.4244,20.2115 C19.1334,20.4385 18.7724,20.5785 18.3754,20.5785 C17.5474,20.5785 16.8564,19.9925 16.6964,19.2125 L11.1634,18.2985 L11.1634,37.0165 L32.8014,37.0165 L31.4014,32.2555 Z" id="Fill-1" fill="#1D2B3C"></path>
                <g id="Group-5" transform="translate(0.000000, 0.276500)">
                    <mask id="mask-2" fill="white">
                        <use xlink:href="#path-1"></use>
                    </mask>
                    <g id="Clip-4"></g>
                    <path d="M37.3457,38.7397 L10.1627,38.7397 C9.6107,38.7397 9.1627,38.2917 9.1627,37.7397 L9.1627,10.8027 C9.1627,10.2497 9.6107,9.8027 10.1627,9.8027 C10.7157,9.8027 11.1627,10.2497 11.1627,10.8027 L11.1627,17.0127 L16.7807,17.9677 C17.0307,17.3277 17.6477,16.8737 18.3747,16.8737 C19.3217,16.8737 20.0887,17.6407 20.0887,18.5877 C20.0887,18.7727 20.0527,18.9477 19.9977,19.1147 L22.6467,20.7777 C22.9537,20.4827 23.3697,20.2997 23.8297,20.2997 C24.7767,20.2997 25.5437,21.0667 25.5437,22.0137 C25.5437,22.5047 25.3357,22.9437 25.0057,23.2567 L26.5757,26.3397 C26.6477,26.3307 26.7177,26.3177 26.7907,26.3177 C27.7377,26.3177 28.5047,27.0857 28.5047,28.0317 C28.5047,28.1667 28.4867,28.2957 28.4567,28.4207 L29.9817,29.1677 C30.2957,28.7997 30.7577,28.5617 31.2797,28.5617 C32.2257,28.5617 32.9927,29.3297 32.9927,30.2767 C32.9927,30.8217 32.7347,31.3027 32.3367,31.6157 L33.8447,36.7397 L37.3457,36.7397 C37.8987,36.7397 38.3457,37.1877 38.3457,37.7397 C38.3457,38.2917 37.8987,38.7397 37.3457,38.7397 M43.2767,0.7237 L3.9997,0.7237 C1.7907,0.7237 -0.0003,2.5137 -0.0003,4.7237 L-0.0003,43.9997 C-0.0003,46.2087 1.7907,47.9997 3.9997,47.9997 L43.2767,47.9997 C45.4857,47.9997 47.2767,46.2087 47.2767,43.9997 L47.2767,4.7237 C47.2767,2.5137 45.4857,0.7237 43.2767,0.7237" id="Fill-3" fill="#1D2B3C" mask="url(#mask-2)"></path>
                </g>
                <path d="M11.1631,18.299 L16.6961,19.213 C16.8561,19.993 17.5481,20.579 18.3751,20.579 C18.7721,20.579 19.1341,20.438 19.4251,20.212 L22.1561,21.927 C22.1311,22.044 22.1151,22.165 22.1151,22.29 C22.1151,23.237 22.8831,24.005 23.8301,24.005 C23.9261,24.005 24.0181,23.992 24.1091,23.977 L25.6631,27.027 C25.3061,27.341 25.0761,27.796 25.0761,28.309 C25.0761,29.256 25.8441,30.024 26.7911,30.024 C27.2401,30.024 27.6461,29.846 27.9521,29.564 L29.5841,30.362 C29.5771,30.426 29.5641,30.488 29.5641,30.553 C29.5641,31.5 30.3321,32.268 31.2791,32.268 C31.3211,32.268 31.3601,32.258 31.4011,32.256 L32.8021,37.016 L11.1631,37.016 L11.1631,18.299 Z M37.3461,37.016 L33.8451,37.016 L32.3371,31.893 C32.7341,31.579 32.9931,31.098 32.9931,30.553 C32.9931,29.606 32.2251,28.839 31.2791,28.839 C30.7581,28.839 30.2961,29.076 29.9811,29.444 L28.4571,28.697 C28.4861,28.572 28.5051,28.443 28.5051,28.309 C28.5051,27.362 27.7371,26.594 26.7911,26.594 C26.7181,26.594 26.6471,26.607 26.5761,26.616 L25.0061,23.533 C25.3361,23.22 25.5441,22.781 25.5441,22.29 C25.5441,21.343 24.7761,20.576 23.8301,20.576 C23.3701,20.576 22.9541,20.759 22.6461,21.054 L19.9981,19.391 C20.0531,19.224 20.0891,19.049 20.0891,18.864 C20.0891,17.918 19.3211,17.15 18.3751,17.15 C17.6471,17.15 17.0301,17.605 16.7801,18.244 L11.1631,17.29 L11.1631,11.079 C11.1631,10.527 10.7161,10.079 10.1631,10.079 C9.6101,10.079 9.1631,10.527 9.1631,11.079 L9.1631,38.016 C9.1631,38.569 9.6101,39.016 10.1631,39.016 L37.3461,39.016 C37.8981,39.016 38.3461,38.569 38.3461,38.016 C38.3461,37.464 37.8981,37.016 37.3461,37.016 L37.3461,37.016 Z" id="Fill-6" fill="#FFFFFF"></path>
            </g>
        </g>
    </g>
</svg>
