<svg xmlns="http://www.w3.org/2000/svg" width="276" height="255" viewBox="0 0 276 255">
    <g fill="none" fill-rule="evenodd">
        <path fill="#FFF" d="M34.234 13.872h200v190h-200z"/>
        <path stroke="#D8D8D8" stroke-linecap="square" d="M34.833 84.972h199.388M34.833 106.092h199.388M34.833 42.733h199.388M34.833 63.853h199.388M34.833 127.642h199.388M34.833 148.762h199.388M34.833 169.881h199.388M34.833 191h199.388"/>
        <path stroke="#4A4A4A" stroke-linecap="square" d="M34.833 212.12h199.388"/>
        <path stroke="#D8D8D8" stroke-linecap="square" d="M34.45 22.476h199.388M62.47 211.258v-191.8M90.127 211.258v-191.8M117.783 211.258v-191.8M145.439 211.258v-191.8M173.095 211.258v-191.8M200.75 211.258v-191.8M228.407 211.258v-191.8"/>
        <text fill="#4A4A4A" font-family="ArialMT, Arial" font-size="14" transform="translate(.667)">
            <tspan x="6.177" y="114.571">0</tspan>
        </text>
        <text fill="#4A4A4A" font-family="ArialMT, Arial" font-size="14" transform="translate(.667)">
            <tspan x="0" y="135.436">-0.5</tspan>
        </text>
        <text fill="#4A4A4A" font-family="ArialMT, Arial" font-size="14" transform="translate(.667)">
            <tspan x=".589" y="156.3">-1.0</tspan>
        </text>
        <text fill="#4A4A4A" font-family="ArialMT, Arial" font-size="14" transform="translate(.667)">
            <tspan x=".589" y="177.164">-1.5</tspan>
        </text>
        <text fill="#4A4A4A" font-family="ArialMT, Arial" font-size="14" transform="translate(.667)">
            <tspan x=".589" y="198.028">-2.0</tspan>
        </text>
        <text fill="#4A4A4A" font-family="ArialMT, Arial" font-size="14" transform="translate(.667)">
            <tspan x="6.177" y="31.114">2.0</tspan>
        </text>
        <text fill="#4A4A4A" font-family="ArialMT, Arial" font-size="14" transform="translate(.667)">
            <tspan x="6.177" y="51.978">1.5</tspan>
        </text>
        <text fill="#4A4A4A" font-family="ArialMT, Arial" font-size="14" transform="translate(.667)">
            <tspan x="6.177" y="72.843">1.0</tspan>
        </text>
        <text fill="#4A4A4A" font-family="ArialMT, Arial" font-size="14" transform="translate(.667)">
            <tspan x="6.177" y="93.707">0.5</tspan>
        </text>
        <path stroke="#9B9B9B" stroke-dasharray="5" stroke-linecap="square" d="M35.522 105.899h200.154"/>
        <path stroke="#4A4A4A" stroke-linecap="square" d="M34.815 211.258v-191.8"/>
        <text fill="#4A4A4A" font-family="ArialMT, Arial" font-size="14" transform="translate(.667)">
            <tspan x="99.975" y="251.575">Predicted Target Value</tspan>
        </text>
        <text fill="#4A4A4A" font-family="ArialMT, Arial" font-size="14" transform="translate(.667)">
            <tspan x="20.294" y="13.202">Residual</tspan>
        </text>
        <text fill="#4A4A4A" font-family="ArialMT, Arial" font-size="14" transform="translate(.667)">
            <tspan x="30.867" y="227.35">100</tspan>
        </text>
        <text fill="#4A4A4A" font-family="ArialMT, Arial" font-size="14" transform="translate(.667)">
            <tspan x="58.575" y="227.35">200</tspan>
        </text>
        <text fill="#4A4A4A" font-family="ArialMT, Arial" font-size="14" transform="translate(.667)">
            <tspan x="86.283" y="227.35">300</tspan>
        </text>
        <text fill="#4A4A4A" font-family="ArialMT, Arial" font-size="14" transform="translate(.667)">
            <tspan x="113.991" y="227.35">400</tspan>
        </text>
        <text fill="#4A4A4A" font-family="ArialMT, Arial" font-size="14" transform="translate(.667)">
            <tspan x="141.699" y="227.35">500</tspan>
        </text>
        <text fill="#4A4A4A" font-family="ArialMT, Arial" font-size="14" transform="translate(.667)">
            <tspan x="169.407" y="227.35">600</tspan>
        </text>
        <text fill="#4A4A4A" font-family="ArialMT, Arial" font-size="14" transform="translate(.667)">
            <tspan x="197.115" y="227.35">700</tspan>
        </text>
        <text fill="#4A4A4A" font-family="ArialMT, Arial" font-size="14" transform="translate(.667)">
            <tspan x="224.823" y="227.35">800</tspan>
        </text>
        <path stroke="#01B8BE" stroke-dasharray="1,29" stroke-linecap="round" stroke-linejoin="round" stroke-width="4" d="M43.667 200.878h186l-186-12.763h186L62.667 209l136-30.167h-130l29-73.677c-20 39.062-13 59.754 21 62.074 23.64 1.614 9.944-15.227 0-45.25-4.252-12.837 14.398-35.73 11-49.892-5.802-24.173-32.387-38.324-32-45.25.761-13.65 11.428-11.33 32 6.961 1.717 24.686 6.05 43.25 13 55.693 3.525 6.313 18.384-32.64 30-17.404 3.408 4.47-15.522 40.662-10 55.693 4.442 12.094 20.442 29.11 48 51.052"/>
    </g>
</svg>
